<mxfile host="Electron" modified="2023-12-08T14:25:25.595Z" agent="Mozilla/5.0 (Windows NT 10.0; Win64; x64) AppleWebKit/537.36 (KHTML, like Gecko) draw.io/22.0.3 Chrome/114.0.5735.289 Electron/25.8.4 Safari/537.36" etag="PdDBsYiqsX7qRBol7Gga" version="22.0.3" type="device">
  <diagram name="Page-1" id="1RWTbovNF1EyG-FC2Bqe">
    <mxGraphModel dx="814" dy="719" grid="1" gridSize="10" guides="1" tooltips="1" connect="1" arrows="1" fold="1" page="1" pageScale="1" pageWidth="850" pageHeight="1100" math="0" shadow="0">
      <root>
        <mxCell id="0" />
        <mxCell id="1" parent="0" />
        <mxCell id="yMEa9injsnM9xcDqbvA--1" value="" style="shape=image;verticalLabelPosition=bottom;labelBackgroundColor=default;verticalAlign=top;aspect=fixed;imageAspect=0;image=data:image/png,iVBORw0KGgoAAAANSUhEUgAAAscAAAHOCAYAAAB0EaR7AAAAAXNSR0IArs4c6QAAAARnQU1BAACxjwv8YQUAAAAJcEhZcwAAEnQAABJ0Ad5mH3gAAABhaVRYdFNuaXBNZXRhZGF0YQAAAAAAeyJjbGlwUG9pbnRzIjpbeyJ4IjowLCJ5IjowfSx7IngiOjcxMSwieSI6MH0seyJ4Ijo3MTEsInkiOjQ2Mn0seyJ4IjowLCJ5Ijo0NjJ9XX3Xcm/gAAD/OElEQVR4XuydBXgVRxeGv0BIQnAN7u5WSvGiRYs7xa1osWJFixQrFKcFWopTpMXdKe4uQYLEIO6y/3x7d+GSBgj9oQRy3ufZ3Luzs3Jv7tnzzZkzszaaAoIgCIIgCIIgIJ7xKgiCIAiCIAhxHhHHgiAIgiAIgmAg4lgQBEEQBEEQDEQcC4IgCIIgCIKBiGNBEARBEARBMBBxLAiCIAiCIAgGIo4FQRAEQRAEwUDEsSAIgiAIgiAYiDgWBEEQBEEQBAMRx4IgCIIgCIJgIOJYEARBEARBEAxEHAuCIAiCIAiCgYhjQRAEQRAEQTAQcSwIgiAIgiAIBiKOBUEQBEEQBMFAxPEbE4qbh3Zh/SEXhBglsZcP6VoFQRAEQRDePzaawngvxIRDs2BT8Q/1xgOjD17BqAqW4ljJh3StgiAIgiAIsYAPL3K8YyLSFar/j6V01X7ov+QU3COMeu+KQkUwpEYy5KnRFqUKGWUxwOfaFszo1Q8VRh8wSt4ifs5YP20EWleehi1Gkc6/vNZ3QkQAbm5agK9bt0Ppoub/rQkq1FT/t+UX4GNUE94SL/tNCIIgCILwSj68yLESxzYtDwEpglAtVxZLWUgAdp/xV4LgIcoPmo3NkyshmWVLrOHm/J7I0+MsnAZNhKu6vrfKzWWomGcxbhSsjkWXhqKOURxr8PwbQ2sPxKSriYHwICDYBk4FLf8ht8tP4dS4Ow790Qa59RLhrRDbfxOCIAiCEEv5MHOOg0LgVLwT5u74Dbu47P8D934uBaTJjMNTfsCS80a9WEd84/Xt4xhb/5VeB9A7+yBMuhUJ+CfGkDW/wjv4AFwv/aWWP+B9aRQ65LAzKgtvk1j7mxAEQRCEWMxH4z2zNK+OIWltgZRP4OZqFOqE4uamWehUrwnysiu/aBPU7bUMhz2NzSYRbtgycTCql7Z0+RepPQLzTlzAvCaW9aE7jHo4gKF6SkBPzLtpFCnub1XnaNgSRfRtav/K/TBmj5faYqmfZ9BdOBVMAfzaT9+ertBES3f3zWVoYq57/Y1JzS3XOXSP2hbigi3zJ6J1VePa1cLjDt3qxj11tgyuD5s8v2NHQUe1NgydjHqW643+Won732vQ3yrFIe9n7dB69C7cfGHkntX+17ywZ9rz76d082nYct+o9goOz56P2faJgBTVsNljHSbWy4Fk9sZG2CFZweqYOLmZVdTY+H+98F12wdfzo6bMWF+b+t+N7ocK+rU1QfVea3CRn8NL/f96dbF8Rv3/bpSbWH/3/P8/OwY/30SsuBxqVLTC8xSWDO6H6p9Z6vG41VtPw/o7L9ZlT4G+ffABhFzeiP7G/zVd6Xbqs0STRmIc1zy//n/e9OJASv6vua3JfGe471mATrWb6Ot5P+v5Br8JQRAEQRBexccTWooIRcB1JVC8E8CBmkAnAFu+64I89ddh8emkqNqwEhrlU+JhzgxUyP6dEqNGNbhhSZcuqDvuPHafDEDujCngFHINX386DLM9IuH2wMOo9xy3y4HGOyWMlw9G1jqbsHjjfeSpXAkdGhZBhktHcPEmT+CEwuq8X1ePDzevYLgVrqy2s05+GEkh8L0cBDdfDdu++xZD17hZhFO4WvbPR90em3E/aQ7U4bUXtMPFY1cxqU5DJZ4DWAtZilZCn97ZUcAnDG7eLfR6PH7hdPpmHetrJRd/7gensgvx44obQOoUKKw+bzyXB1gxZRjypBtp9b1YcAsMwp5vm6Ha9DtK5KZAyL1QnDy6FHUrTsPhV+V4++3CwpFPAJsn6PHDENRJbZS/FPP/xe/SA8nUdfHaXA/cwbw+XeBU4zdcjHI+/doGt8HQ/V5wSJEIbo8DsXvOONT79ldMatoUX+/3QbJ0qvx+oPq/j0KniX8be1rwvaz+J/7eWP9VI9T95ZE6Rgqk8A7AyV2b0bpQbyx5aFQk15ahSpr+6DjlIHZ7JtSvrbBq7+xesQ2Nc1RR4tPyPzFxc1H/k/vLULvQJJz0ToQsqe3gds8T83o0QP/lz8Xs8+OegkPRUuhQOx+0q5cwqX4NtFZC2Bq3BxHw3zcOBaotxf2IRMgWGoQbD26p30QDjDlkqROT34QgCIIgCC+BOccfFNsnaHCoojk1/l27YRRpmr92curXGhzLayg9SzsZbhQf/EkDqmgoO1U7GWyUqbqb+zdW5cW0OjOu6iXe64driPeFKmupzbUU6bj9NUadq5aGlGW0IduNQm2/NqRgPVW3vTZXv4D72txmaj3Rp1rHVf56DZ3wp9qFq0+NFU27MU9dH8prToP2GyUGN37XqqOmhpz5NBQep+32MMrJuf3aOucQY4WY115ac+q/0yhTqGPUQFXNqeAEbbNRZCHqtSoerFZ1q6myKtqQLc+vTwu+qv1QpbKGJMW08mNPGoXG/llLaWiyQrtnfq9XF2mf85oTltdGHzTKooPff5Lq6lyDtXW+Rtmr2DdV1a2hllbaj5esPrfHTq1rVnXNdkW0jstcjULj2jJ/ouXpuVnzNkovzFLfs1MdLVnywhpq/qpdMK753uK+GtJU15yKTNB2W4qef/cZi2i5e+7U3MzPp76LyVU/15CipPbJs+/CVVvcVp3PrriWt5dVXS1EuzBDnTO1+p3lmaYdMsr1/3da9dtBbfUdmb8L4/9nX05z6rBBc9PL1HE78H9UXOuxyur/oX/H/O6+efbdbR6k6mXk77S7tviepUwLv61NrVlV/40+v1bFS38TgiAIgiC8ig8zcpzQHm5nF+Hrmu1QnctnLfHJwLNAjvJYt7YXShmpvVs27VJ/A9Dx644o9awrPxHq1CgJ2KfEqaOnwMyAU2cuAJE+qDZ1CHrks9Qiaeu1wY9f2ALBRkG0JIZDIvUSFg8n9+17npYQPwUK50thrMQAzzQY/dMIVLWOrhathEbZrfNxE6H8Z+oCEycG7rnBOlNCKaYYcXPTAexEKJx69seQ2lbXZ58PgwfXAOKlxs2df+OwUazjlhkTh7ZEFjNlOl9lNG2srss2DPfvRwkzWxPoDyQAnAomh30So+wVbNnKmTz81P/hW/QraPW5U1fHwCF51IdMgS17/oa7Uazjkwitmtd5NgCzcM3PUM0tHD5aKowe0g6FjWvOUr4UqnnYwO3Cddy4YymzEAk8LIOhQ6sjrfn51HfRtXtZIDw57qvfxkWW3dyF338PAkKrYsIEq7qwQ+FezTAwRH1Qlw3Yc9QoJu4B6nv+Gv0q8AdCjN+eQ0J1PBfcYBGPu0TVK99BfQ6r/4f+HTuo39EhnDxhlJGH/J32QAez2yF+DtRvkFd9bfa4f+fBC99NTH8TgiAIgiA858MUxzZKcGmBuPjQC7t3PsDus57I1HwAbpybiEamaIAz7rNHOkdaLG5TxZL/aSw2X+xVOiUQiABCVL0bV1U9x0gUzl9E39Mae4ogpZ9eTgo06lAd+UNtcXHBRORxqIq6vRZjS5Qc1FcTDqdMtVCqsrH6jFC4n9mFeROn6VOgVa/aBMmbnkLqtC92378JN5xd1N9QlC+U/58zeuTIjBo+SlJ5+b+YExucDMmiE7c2NvDxe4U41lGC9LpqXbx2ij3j/+WgoVShf/4fcmfPpISg+mf4Rrk23+xIa50ukDszSlFY+6jyjEYZ0cvZQlI/HqasPCNSifdsL9ZVJCuUA+X9VN2bbnoDCup72+eg6jYuisJRv4v4mZGjhjqnFobgFzJY1A/HMfE/v+f46rjmd8zjplTXdX+4kf9sLv3w9T5+b+qLe+F6NSRLpBpHUUmoTDnqdyMIgiAIwhvzYYrjwBCgRG8cuvQXtIA5+PnLlHiwuj/yNPhnTip8A1CnU2sjz9eyDBnxBYZ83QQdKuR8LlwibSxC+F+QrEJvXPFYiOUTyqF4+khsmbMUdaPJQX0zArBlcDs4lZyAr4ftgLtjTpQqWx1Lp+eD51MHo04sJ09mfP5UCcFE+3HKyId9+7wsPvp/xk09AnDEUR0jRTTi9qX8y3NGRMItfWu0ql/+xd/p1zXVb7W15AoLgiAIwn/Ihz8gzzEfOq+YgNFlcwGbp2DojAvGBic4UVR4BsKhVCNMHDfgn0vfz5AWKeCQVNVTovrmnRcHP3EGi8fXlBB/lpLxClLnQ6uhk3HGZT2OjM0NpEmAJdOX4ZSx+Y05vxojpnBKjU+w7ulO/PHzSHXN3VA/M+cK/pcqXpEli5P6a4fDl67+M8ro7IKdjIpmTKm+vbdA9upo29ZOnS4So8cteHGmiH+QA1myqpdgG5y6ZP4Pn3PzzgO1LRxIl0L9z94m0Ue279+6DS1UFebOjDwsyOqE0sHx4bbuPC766VWeE+EC553qwwU7IVkaoyympEmJfD7qPNczoeq4wf/8jaqlVVGjriAIgiAI75wPXxyT+EUwalID9SYTtgzsaYzaT4SqVYuobUmx7sffsOWFqdtCcXP1YqzQk3ZToHzpzKq6qjfpZ6x/Vi8UF+ctw7gHCdQxjKJo8cLFy1apBfFToGyFfEgaZAsEhr6YruygylyNbvrXoeqdY8iyUFoko3gnEc5YuugokDDIKHhOhPpXul2+C3fr2RWioXCFz1BAqX23OdMxaavVdYdcw+TpOwG/xyhVuxJKGcX/H07o0KU64OEAXPsJRUoOxZIzbggxhWhEAO6f2YKhg9fo+dPlyzOdIil2D/wBM6ynUfPchTk/MkPXHY2qVn6DSG5MUP/c1H9hyexrz6dN8zqAaRMuAZEeqKq+L12M5yuLlnXV50i1B8OG7bKaVo6/kzWYGi8ETnUboE4JozimlKiEbnUTqjfrsGSe1TUQz1OY9POLs2u8CTH9TQiCIAiC8JyPQxyTCr1xaGwKJV7sMbqjZYqxZPU74qdKfsD9w6ibpiqqtx6Bod/xkbqtkKfF1meR09yt26BXZAAQdAKN01S3DPJTdYr0DkbT8upAYUbFaPHC4VHtUKT2YPT/bpoSeoORv+V2+Po/QPnWdVDeqJU7Xw4gWInS3dPQpCrzh6eBUxm/lGL58aVPuLr2X9G+0jfq2CNQI2UnHHIqDmgvJKECOXKidNZIIMMVfFupiX79Y1528KIdsWoeZxWOh0n16qA0r0XVz5/ja3y7U31XVQZjYi+rUYn/L+r/4ralCjI8UhLT4wQ6lmwKBwdLDriNbT1kLfk9ljhbhHCyhkOxeRAHpXnim0K1UcEYcJkmzSTMvOGB8oPmY2JDc3DbWyRJdjjPaYsK9dT/sFc/5Mw7Dj/degx8PghDvjJj6PnQb0ozfPIkMa7PHgqn/M2tficXAB8njJrSEYWN2jEnHzr0+gzwToF1vb/CJ5W7oNPgaejfpQts0nTCjJtvkrtuxZv8JgRBEARBeMYHKY6dckYvkMr364MhhRzhZH8AQyecAkfy9965AZtHlkSdMolw8fwFLNlwDfdT5MDEv35ER/PJE0k+w6zbU/Bj/UwoXDAhLj5UQjl3dez3G4fqWogSx/8ckeekP2CBpECeQjngFOiMFRsOYMlWZ6QuU1wdfyeWd1eC2KRyd+yekA/lMznhvpsX3OwTP8vWSPrsWFY4NcBvxzuhR7l8CPO+jS273ZDrh5n4uWVqOOn5IlbE/wxDfv0SrXI7IZ5DKC56KaFpNWjs+bVaKNx9DtyOtkOP+lkRrK6FAxsT5C6CbxbPh9vO5zM8mETd38Qpc8xyCNLWHoqHHlOwuGtJNK6UFk55LQPK8pTJjMadW2H6d3WMh4AkQp3Jv+HGXzXQqkpyuKvr4rVlr1tSfZ+bsDuax4K/9NpiXK4aGjdLY9zuCajq6Iwt+50RkC0NWg0ajwtbonwX+drghMd0zO1ZHOWTB+nXdjEwgaqrGmYeq1+Y6YToD32JBqf0L+aMJ6s5FN7Hu+GbVjlVu8BNn7Vjy6VQddzh+GPwi48adyoY/XfuxHQba17zmxAEQRAEIXpsOJ+b8V6ISsQBDEoxAVP97DHx9F8Y8qZd5kLs5uYy1MjzKy4UrIpFl4aijlEsCIIgCELc5eNJq/h/uLkGQ2dGeTxxhBe29J2MqQkC/10uqSAIgiAIgvDBIeJYJxQH+/WGU44vLXmkaimcszHqzvEBnqZEv8HN/0UuqSAIgiAIgvChIeKY5KiOYVOrolWuBLhv5LmGps+MVoO6Y7PzWgx59oQz4WMj2nxvQRAEQRDiLJJzLAiCIAiCIAgGEjkWBEEQBEEQBAMRx4IgCIIgCIJgIOJYEARBEARBEAxEHAuCIAiCIAiCgYhjQRAEQRAEQTAQcSwIgiAIgiAIBiKOBUEQBEEQBMFAxLEgCIIgCIIgGIg4FgRBEARBEAQDEceCIAiCIAiCYCDiWBAEQRAEQRAMRBwLgiAIgiAIgoGIY0EQBEEQBEEwEHEsCIIgCIIgCAYijgVBEARBEATBQMSxIAiCIAiCIBiIOBYEQRAEQRAEAxHHgiAIgiAIgmAg4lgQBEEQBEEQDGw0hfFeEARBEAThvbHvLtBuvbEixAk+yQhMqArkTW0UxAJEHAuCIAiCECvYdhOo/YN6k8ayLsQBPIAKZYGDHY31WICIY0EQBEEQYgW6OJ6qxEl6o0CIM0SONt7EAiTnWBAEQRAEQRAMRBwLgiAIgiAIgoGIY0EQBEEQBEEwEHEsCIIgCMJHixakFl+1+FgtXDcXvyiLv7EEqIX7RhoHEuIMMiBPEARBEIRYwdsckKeLWg+15ARKZAbs4wMRqozlFD5UP/pitc43kXyNUK/xgIdKLHvfVet26prs1avwzohNA/JEHAuCIAiCECt4W+JYU+KWwrjal0COtEBQIBAeZtlGwil+1aILIPUngutKJEeEA/Ftn28nNmp9+zn1Jli9d7CUmWhe6o8SzTaO6r0S0lDHsEmm3vNcat0mJWvFDC1E/fFV+7zBNHba0zc7R2xGZqsQBEEQBEF4B+ghPyVaazQAsqYAnioB6eevtG0oEBCk9Kd6H6SELt/z1S9AvSphyvVQJYi53d8o4zZ/JXJrFVHHjK+ObQhmQmE8uq16k069d1OvuYHq5dX7J+q9DbCkj3qvzh0TdGGcFPh9gHrPaHcM4LGndYn5OYSYI+JYEARBEISPBwrNzEoYp1Ia2QcIC1MCUgnmUPV6JxA4qwTvYVV+SIngbUrg7lKvd5QAZjpFqBLQRK+v3vOVUWU/tT23OiaM7TpKQR27A8yqot4rcXxLCeXxFdV7byBTFmDlafWe+c1KLFM8UwDrr1xY5qoWdXy+ch8okZslkXpVgl1zV4ta1+sw7YP7cF1dr3k87pPOUb26GGVKVOvneKwW1uO+6tr1955qUZ/z2XF5PHVuIXpEHAuCIAiC8PGgRHAuJyBQCWFTGFP47lJCtWEGYGAu4Lu8wFi1TC0IfJ8HqJoOuKnqH1RCkqKYKRbx41teeYwQtThRuCqeiUq1vv2gOmYh9V6JUJ8gJcbVggRAv5LAzqXAmZ+Ab5srQT5Zld8DNg4Bdo8ABquykxNU2RHg0nSga2Pg8iild5ma4QBsHQp0qa2OoerihtLN84D+jYDedYDRat8Do4GC1dW1qvpbZ6uyNsDPX6u6Slg/WQDUUCL94Ei1rkRxyEz1GdV2KCG9WZ2/q3lcimkRyNEi4lgQBEEQhI+KhLaWiG88pXIocN0CgE5KGI8pB3zziRKaXEoDA9QyvCww7wvgXAtg7mfA395KY4ZbRHK4etXFtTqGnrOsBLMJc5EZST7/SL2mBXrtVGL7KFC+JtBciW5kAdZfAn6YChQfB1xRojVciedqq4DJs4D0FNuq7vjdwEIlfgtOs+Q6n1Ci9m9nwNUfKK2uGamBdZeB6cMtot/WBqik6l9eD6RMDtRWgnf0FKCw2sYIdqqFQHL1uUsxb1sJ4gfqOCO+U5+vP3D8DvBYrRdXjQEkVIv6XMI/EXEsCIIgCMJHBcWsGfWluE2kRO0pT+DaE+C2F3DLanFWyxMlWlMrIdmjJHCxFXDGV+leJVT146j9eRy+/wcOSgBfUWK3gxK0F4Bde4Hf6wIXmCqhjhmijqGP+rNXglu9t1HCVl9PDPgz/UMRSNHNMiVW43G7utZxh4FNSvwmZ8RZCXA3JWhRGOj7hxK6vwLLmgE/jVDCl+kYSdSSBggIVq+VgDlK+K+ZCdxUnxeqURDC62b6BY97yHLcNJPUOhWgqMBoka9FEARBEISPCubaUsxSGFPYxlPrDmq9zBYg159AbiUQc69TixKbOdcoYawE56Qjln0LpQW21AHOM3dX7a/n/KpXPXJM8WqNHbDoFjCorHpPgavwUvXqbLOsD64ALJ2ohPE4oERXICsjwQn0akiRVP05BSxvrI6htvsNUudQRaUHAr7DgZ+HAE/VwhzqFMnUqw8wpBZweZo6VkZg330glRLZ5jUl5Xt17pZKRK+Yq7Q0Z71IpT4bz+MEFBumjqsE9SL1+lQdn8JZiB6Zyk0QBEEQhFjB25jKjQPP8hYECihB6B9oFCqYZsGFMILLlAm9TL23Ue+PPwK+KQ1Mr2mp03EjsEQJ34JKADP9IIEStecYEY5n2Z/oCornoADlK9MuOGiPKpdilTNPcCAfI78spzDmPmbUloKbEWQlyDkgD0zV4DrPmVwtnGM5tVoIz8lIMdMnuN8TtVA08zimkjO3M4rMeZl91WJOP8d9WJfX6qIWJZ5tuB5LkKncBEEQBEEQ3hWMHCvBaJ1ewTSJA0o8HlAidL87cFgJ17+VwDyhXoOUmC2mxOKPF4BbFKmKchS1Prou1qPHeloFF2soglnGFAaKT4pSU4RSzFL0cpAdBTjFMsWzWY+Clnm/FKusw/dKHHOeZF1EU9imU+t8r46n5zinUgtFOM9L0WyU63UIyzgokJgNgwDLds7FrJ+f52JUWW3XZ7Aw0juE54g4FgRBEATh48GI6pr5xlwojA8rkbi0IrC+BvBHTbXUUe/rASuYI6wEZRhFrtpnyRnL/rkpRJVK0kJVsSG0zWMT/UEfSmyWL6CWImrJbyyFlKbNpbYZ4pRP1nsmXimKcwKfFlOv6pw8HKO3eh11LF0As4yCl2XG+bhNf6XIZjmf2Mf3Rn2iC2Bju67ujGsro65Hn3tZoV8Ho9Lqu8imrpHXy1k3RCC/iIhjQRAEQRA+KsKVmOXgNjNq7KdE6SdKBDLVImVCILV6zwF4KdWSP40qTwp4MuKqxOZTI/LqSCGp9teUyGTkOJxpEYZY1VECs3lh4FCnfy5X26vt3J/RYWv8gR21gYNfqffWx3rbqM9QMbflWo52VkJYCXKNwpww6pwMuGxc65jyap3RZOEZIo4FQRAEQfjooCg2p2JL5gD4+AKlNihBuwNosA2ovFUtm4DiyyyzPjgxN/cJUC2HZf+HTGtQgjJMiWIeJ2rk2Jql54Emq58vDdapQopRVf/ZAzmYf+wGhKpjhVCgKvjIaf2hHXwwB1+ZnsFydR3mPvpriFqYBmFVh+gP92AZhTvX1SvX9fxlA17y/LrqjxE9pnCupT6jLv6t0KPsPB4fEGKel98fF77neYyc7WfXzfKoDYCPABHHgiAIgiB8PFANKhFH0abnHSuRTIGbwh4oqARuSrWeWonNPOo1hyrPrsqyKKF4QYnHEtmVsC1gOczf99QfO+M4qk4kheFLVNMlJSjX/a4WJbi5HNitCjnF2m2gXWXg8HeAyxRgWL9nk1Xo14h8wO5vgZZVgCOjgInt1fnU/v2UmL08Qe0zGViv9mHuM/OXj6o6IxqrOhSvahnUCNg5WG2jeOagPyVkebxlajEJUJ+xUjb1JrOqoz4zxfGEang2ldwzrgIj1bGvTATu/gCs6q3K7qhF1bsyDdgyQL2/r45B4Z0JODRCXTMfZEJh/5EJZBHHgiAIgiB8VEQosabnHCtRq6dFqHU+1MNDLVcDgVvq9YZ6dVbLHSUWL7kooZwamKdEaXwlrt2V0PzhtBLRSlBTXJuD+/TBd9FEj4unB1p3UEt9y1Lkc1WohORXSmz+2lAdO5kStnctDyCpmVPpU3V+plw0Sw5UzQEsUefNqd77+inhOh34saa6TiW49yhx3VAJ6M39Vf1HQCF1jSMrqfccUJdUie2yQHV1vK/5CGsllhuVBKqo4/1+Uq0bbLwG2Nuq8qxqRQnZAoWAYumAcQct3ws/Gx6qzz4IGKOu+7I6D6+VDzLZpMQ4n+w3Yy9QOw9wfLxaV42IC62Askpsl1uk1hOqrySa7+RDRsSxIAiCIAgfD0qoUfRRsOk5x0qIcsq2s77A50rEdlRisoMSkO1zAe2U4OtWAPiluRKFXYHSmaA/uKPecnUcJZwTKpWkcTGO8zLVxLmFlykhbC6/czo4tf93lQG/ECDDRCU2lehN863Sp8FAAquBdGT7LSBdX2DiXCWAlegcsQdo8qu6xvWWB4BUN1I9Zvyt9lXXUECJ41pKvDJdJEiJ90Hl1MYEQDX1mfgI6x0XLPXJWVf1+dX1D6uoVpSALptN7RMOTD5qJWqVeP8stxLe+4CmvwGt1gE+6jrrqu/HVp1nofo+Vly0fD+3Zlmexjdgp9pPXbc+C8ZHhohjQRAEQRA+KsyBeGZKhLMSjK2yAyubAosaAIsbAksaAb8qITtfrXcqCTgoweqrhGzin4ATzkBGJTy5v/Vx/jGVm8GEg0C2H58vRZXIRQYleJMAhzmnsLsSkUpYMkXhoFq3jaK+NlxTfygylQiur87fuJA61Q9A6HeAU2Loj5Wm+F19SV2Levu5ErhVlRB+pAT/hEPqnMmBgiWAZvmBe8yV9lKLgbf67IvOqPrq8+esAPQuZRHo+rzLJup6iqnzti1inHeERXgTXUCrc7VeBf2x2jlTAmsuK6GuRDL+j/moYzMijgVBEARB+HigmKOCNIWtestZ2VY8AI6r5Y4SjtbLZSVc/1LitMcGJQinKyHqoXRtIsv+FMXPBDKFsRlpjYK3Epv3jqjlpmXR5z1W9fno5rQ8lhLFGp9I5w+kSWg5pjXMC9aPrc7jOR5IroRproWA3QzAQ+2nR5rV9stuqooSyj1LA7VyAhfVeb5X52W0+7uK6nMqgT1mL4/4It13KMGr6gxXdYo4qX32GxtMlPgNHKbEr6qTfYE6rxL44dYNASW40yshbGdMKfeFqo+qamGe80eIiGNBEARBEGIFUSOq/wol4FyUoGQqhS5ulchLqMqyqvXPFgE55qjlJ7Uo4ZljGlBICcEvlRCdfxxIoURuJiVe46l9zOizGTEOpoBVIjU6fVwmsxKg7dVS21hqqUIliI/cAUoqUTmhC1AqNzCks+XhIsHquNGiRHFKtZxUIj5YCdKaGSyCV88LJkoMTz1qTD+nlkWnVNkTi4BuXgh45Af8qT6H/uQ8ax5ZtnUorqoHqc96UJVZfdcFVP2E6rMdc1GfWdXrni/K/0IJ/L/bqs+uPny3TUBSe+BKa1WuGhfmDBYfEyKOBUEQBEGIFeiC7CXR2RjD6CZTC/hqRn3VK/OH8ysRmFuJzzxKAOdIDORUoi9rUiBzSiBLEksdXRSrhfvwvR7lVcd4qvZ5WVpFo/yWwXzWS5EiSnT/AtxU4nVoBSV4uwIDygC3laBM9rI8XW/g4F2gaUHg4UBgsToO84PtTbWWGhi+XeluVcb5mP/gwDslwtdetmzez8dNM2UiKuqcy4085MOchYOzXxhQ8F65CtxQ19m5pOW8zGGm4Cbx1bn/aKe+J/Xd8ZHaC2cC4w5YBPqGQarCRzhbhY2mMN4LgiAIgiC8Nw4p4VZxkhInTkbBv4Rz83KqtM/yAAH+Sj8yUqtEYIQqpxjUc3jV+wj1nlqcUWYuJuY6t3GOYe7um0Kt87gGesQ0VInGdJb1qNxzM96o8xdRYjdrcmDTabVOkc3FEKjc/56resMn11EEuwClP7NEjLedUOvM62W5Erh8+p3+MA91LP2iAtXCueHUtqw51HEeqvfMFWZ9Xpv6HvXrYFqGEt5Zc6r1B+o9z8/r5+OmmQJCVIOivBLHjCDvYvQ5g6qvruEet/OYfPIehTX38VDbcqtVP/We3wm/R35Z/weRo403sQARx4IgCIIgxAr+VsKw7EQlTtIaBf8HunhVAjKbEp/JlVhkDq0ueg2BS/HD9+Y6X6mInq2ruhTZnswZVmLShmI0Cvo5jPr/QIlWPhpaF1kUsdw/qVpYX12LLnTN/ZmuwUi3gT5nMbexvjFwTn8stIH50A8+Rpro+dA8vjqG+UjpZ2XGsXW1x/2s6yjh/8I6xS7rcY5m7sv3FN98TwFsns88FlFl/68wJiKOBUEQBEEQonDOFSj+vRInjE6+BXSFQ2HHSCqhiDMXik+Wm8LOLKeoNN9TsFLIskx4p8QmcWz+XARBEARBEN4rmRkptYqQ/r8woqlHOylyuViLYUZLzXWzjGLa6j3TKEQYxz1EHAuCIAiCECtgnm2JPEqXGoPB3ha6SI66sPw1ixA3EXEsCIIgCEKs4Ts+Htnd8l4Q3gcijgVBEARBiDXwARPZy2nQOKuCILwHRBwLgiAIghBr4GOcr3WyQa3KgHZHLUFqCVeLTB8g/EfIbBWCIAiCIMRKZh8H5p0EHvsDviFABOf4Nac/46sMlvsosEklU7kJgiAIgiDEGFOohClRHMglzLIEM6JsbBM+bAq/hbmt3xYijgVBEARBEATBQHKOBUEQBEEQBMFAIseCIAgx4MqVK7h//76xBmTJkgUFChQw1l6Pr6+vvmTKlMkoeY6fnx/Cw8ORIkUKoyTmREREwMPDA6lSpcK1a9dQuHBhY8ubERwcjEOHDunHy507N3LmzGlsiV3wO6TbSpYsmVEiCILwdpHIsSAIQgxYtmyZLmC/+OILVKtWDQULFsSdO3eMra8nadKk0QpjMnv2bNy6dctYezMuXLiA/fv3I0GCBP9aGFP0J0yYEJ988on++YYOHYrTp08bW2MXU6ZMgbOzs7EmCILw9hFxLAiC8IbY2tpi5MiRuHz5sr7+448/omzZshg1apS+ToYPH66X9e/fH4MHD8aNGzfw119/6dvmzp2rb+Ny9uxZDBs2DKVLl0ZQUBDWrl2rl3fs2FGv++TJE3z//feoXr26HjVlXW7/4Ycf4O3tjRIlSqBly5bYvXs3xo0bp+/DyGqzZs30env37kVkZCQ6dOiAPn366GWnTp3S65n88ssv8PT0RPLkyfX1adOm6WKenDt3Tt+nadOm+vrt27cxZswY1KxZUxfS3F6xYkUMGTIEgYGBaNCgAVq3bv3s3Cbdu3fXy/788099nd+J+VkYsSYHDx7U1+vUqYOwsDD9844YMQK1a9dG5cqVcf78ef274GfmdyUIgvBOYFqFIAiC8GqGDh2qbdq0SX+vhBvT0TQljrUtW7ZoAwcO1MuXLFmiLVq0SNu+fbumxLEWERGhTZo0SVPCV7t7966mRKV28eJFTQlDvb6Li4t25coVbfTo0ZoSfpoSqJoSgfq2I0eOaH379tVCQ0O1xo0b68c6cOCApsSzvr19+/bazZs39WtYvny5XqYEtV6vR48e2vHjx/V9v/zyS+3hw4f69R4+fFhzc3PTihUrpinBrO8TEBCgKUGrv49KcHCwVr58ec3Hx0e7c+eOpgS6psSxfiw/Pz/983Lf8PBw/ZxKdOvbTpw4oXl5eWlKNGtKxGpjx47Vvyd+b+3atdNu3bql5c2bV/8sPA734XVlypRJP6+rq6v22WefaSEhIfo2nn/dunXawoULNSXCtTNnzuj1BEEQ3gUSORYEQYgh9erVwzfffKOnMGzdulXPOf77778RP358/P7771CCEMeOHcPOnTvRu3dvxIsXT4+CMm3BxsYGGTJk0HN5GaVdsGABtm3bhvz58+v5vkmSJMH69euRPn16/ViMkjLC6+/vDyVQ9WMVL14cT58+xYQJE/Drr79CiUf93Erg6tFhJSr1iOu8efOQJ08e/TqVOMbVq1f168+XLx/SpEkDBwcHPbr8OpjDzP0ZReZ+u3bt0qO5TLtInDgxnJyc9Ag1ryFt2rRQIlbfTwlfPQrNaLcS8HqUXQlyPeLO+qqBADs7Oz2Ng8fhe6ZxcB9+diWk9Yi5EvX6983zlyxZUv+cLBMEQXiXiDgWBEGIIZs2bdJTKLZv346VK1fqg9e4MK2hbdu2upBbuHChLoDNbn9up3gkzOvlsmjRInTr1k0XekuWLNFFNetQBLZo0UI/Vo8ePXD48GFd7JqsWbNGF71MR+jatasucol5fIpMno9QLBOKawprwrKootjR0RFFihSBu7u7UQJcv35dT5WguDaPx3zr12Gehw0BQvFOQUzM41Bcm8c1rzE0NBT29vZo3769/tmZUsJrMNM8TMzjCoIgvEtEHAuCILwhjIhyAB2jxxSzjIpSPP7888/47rvv8PnnnyN79ux6GaOsjKQyOvzo0SM9R5f5ueTTTz/VhS1F5YkTJ9C4cWM9Usvo8NGjR/X3FJImrEexy+0U4bwGinDW5TbOoEGxSxE9Y8YMvS7zjJmvSyhGKbZ5LdZ06dJFjwIzh5mClhHmWbNm6VHt5cuX69FfnuPrr7/+h2C1xhTQO3bs0KPVe/bs0Y/F74n50LxWNiT4/bEhwOsx96lQoQIGDhyIBw8e4PHjx3oONq/FGs7qwWO4ubkZJYIgCG8fmcpNEAQhBnBAHadaY3oBYdSXIpUzRFA8UtRRyH722We64OVgPaY5cB8OzuNAO0ZNmVrBdAUKQEZVOQCNaRY8BvdlOd/zGFznLZqiOlu2bLowZNoGt2XNmlUXi4wkM7WDQpapCHwlrMf6hQoVQurUqfW0BV4rz8mUDQ5qs4aD6SjQeb4cOXLoxycUzBw0yIh3mTJldMHN6+F5OYUcxS1TQSjUmRqSLl26ZwPxmAphDuw7c+aMnnbBhgK/A6ZWMMLO6PfJkydRqlQpPYLOckaI2XDgtXIAIAU2Pws/Hz87Z6vgtfC9IAjC20bEsSAIwluGwvS3337TBSTTFZguQFH4sUPhzDxiRpn/zZzNgiAIsQERx4IgCIIgCIJgIDnHgiAIgiAIgmAg4lgQBEEQBEEQDEQcC4IgCIIgCIKBiGNBEARBEARBMBBxLAiCIAiCIAgGIo4FQRAEQRAEwUDEsSAIgiAIgiAYiDgWBEEQBEEQBAMRx4IgCIIgCIJgIOJYEARBEARBEAxEHAuCIAiCIAiCgYhjQRAEQRAEQTAQcSwIgiAIgiAIBiKOBUEQBEEQBMFAxLEgCIIgCIIgGIg4FgRBEARBEAQDEceCIAiCIAiCYCDiWBAEQRAEQRAMRBwLgiAIgiAIgoGIY0EQBEEQBEEwEHEsCIIgCIIgCAYijgVBEARBEATBQMSxIAiCIAiCIBiIOBYEQRAEQRAEAxHHgiAIgiAIgmAg4lgQBEEQBEEQDEQcC4IVmqYhICDAWBME4X0QFham26IgCO+HyMhIBAUFGWtxDxHHgmCFi4sLnj59aqwJgvBfw8bp7du3RRwLwnuCtnf//n14eXkZJXEPEceCYODn5wcfHx8EBgYaJYIg/Ne4u7sjIiJCxLEgvCfoB+kPg4ODjZK4h4hjQTCwtbVFvHjxdMfMLiVBEP57EiRIoAvjuOyYBeF9Qhu0sbFBeHh4nG2kijgW4jQ0fDNKZW9vr98QiIhjQfjvoBM2bc7BwUF/Lz04gvDfYfpCYvpClsVVcWyjPrj0XQlxEv707927pzthRowdHR31fEfeIDJlyoSkSZPq5YIgvDtof3fu3NFtzc7OTu/BYZduwoQJdTukoxYE4d1BX3j37l29t8b0hf7+/np5lixZ9PW45gtFHAtxlocPH+oDDqxbyPHjx9fXKZB5M+A6F75PnTq1LpgFQXg7sDHKBqppfya0OWubNG2R3b0UzHHNUQvCu4QD0ZlnHBNfyCVt2rRIlCiRsffHiYhjIc7Cnz6njGKXLl+5eHt7IyQkRO/a5fbQ0FC9izdVqlRIly6dfrMQBOHtQedr2h8XRq/MRiujxrRPLlzPmTOnRJIF4S1j+kLrhb6Q/o89OPSBpi+kME6TJs1H7wtFHAsfFGZuojlg4E3hz51zN9Ih0+jZhWsNp3F78OCBLoR5E+C5TLEswlgQnjtSM4r0b6CjpV3R/miH1tDGb9y4oZ8nT548uq2zPqNXUe1VEOIqb9MXMm0iqi17eHjg8ePHyJgxox4cMhux9IVxARHHwgcDDZlzL9KIeUPImjWrsSVm0LidnZ11p0zoaHPlyvWCw2U3L/MfkyRJ8sbHF4SPHboL2geho2Q+YlRx+zp8fX11O+ax6NSZrsTGqAnLr169qr8yUhxXnLEgxBT6KaYFEgpbphq9CRTWtGPTF9Kf0tasfSHTLGinyZIl0+08riGJW8IHAR0lI7p58+ZFhgwZ9BYzF5bHBNajoXPwD4UvbygUy4xQ0cmb8OZAhx2XnwwkCC+DA+WcnJyQI0eOZ6KYjjamcH8O/DFFMWGEirZtwm08Nm32TY4tCHEB+i3aC3tV2KiknfxbX0jhy8Yn7ezWrVv6cUzoC9lbE1dnjRFxLMR62Lql8dKo2WJm6kP27Nn1G4S1sDWJ7iZBp8yFDpkRYXYTsR6XmzdvPptTlTcDlvGmEd1xBCEuQltgJInpDYwycQAPbYj5v56enkat10MhzBkp6NjTp0+vD+qhGGaOMbtwTZsz05hYVxAEC2YaBO2EPTD0h5kzZ9bt0VrYmkTnw2hrnImCjVzumzJlSr2eGSyijROKYx6Tdh4XEXEsxGooil1dXfVUCs4UQUHMHCgaMlu0UfOkePPgo2ejRn7NunTIhAKbjp0RZN4Y2MXEfXhD4M1CBt8JggXaBwfnsAGZIkUKPcLE3hcKWwrm6NIq2OVLu7V2zmzI0sZodxTY3JcOnvZGW6PINvfhsXPnzi3iWBAM6Av59Ej6KNqfm5ub7s9YTtuM6q/o8+gLzcCPiekLOaaGtkZfSD/IBin9KvdhQIp1OPCOS1xExLEQq3n06JH+yoguBSsjunTONOBs2bK9II55k2CXLQ2br2YLmLAeW8HcxmOy5UyRzSgyj81tFMh8ZdqGCGNBsMAeF0amEidOrNsRUyoYAaYN0tFaT29IZ8sGLB0u61DsmtDOTLuiE6YdsieH9kaBzW3chwKAxxRhLAjPoQ3ShrjQd7EByV5P+i36Qpab0M+ZOcXR+ULaKRurPCbFM22QUWRi+kIez3osQFxDxLEQq+FAA4peRpkIjZWD6BhVijpQx3S8NGoaP0U09yUU1RTCdMKMgrFLia1l3ghYl5EsRsWsxbYgxHVoGxSqHJDDSBWh3dEGKZLppK0bknxvRp0Y4WI02Bw4xDLWZ0oUnS+PTTs0t9FGTTsUBOFF6L9oW2ysEgpa2iGXl01vSF/Ihijtja+EPTUU07RP9tzwOLRp+kJi9p5ai+24iIhjIdZhzhjBFi9FMZ3wkydPnglkOmBrh2xCB0vxaxo5na+ZT8woFJ08j0HBzP25nZEt1ueNJy63kgXBGtoEH85B++ArhStzD2mX3PYyGyTWI9vpYBlFNvOJeRw6aUatuD9tlqkWdPhsrHLArUSMBcECxSv9IO2OvZ2cUYKNVFMgv8wOaUNcaHPcTntjsIgRZApp9gLRF1r7SvbYsC79bVxNpbBGxLEQqzAFK6NL7DZiNysjvTRYGrPZ+n0ZpsClSOYNgEKYNxYzB5nlbBnzBkPhTNFtduFGd5MRhLgInTLthzmNtAs6aNoJo7p00q+C0V/aGW2VeY3ETJegfVMwUxRzOwcA0T5ZxjzKuB6tEgQTClf2vDDKS3tiGhJFMQUy/ZYpbKODNsteV9ahH6UtUxhzKlMzB5nRYtobj0tfyIF6tHHar/hCEcdCLIPGTPFKJ8ouJHYZsVuWDpkRKTrVV0GD542A9enYTYFM525GkNllxBsAz0Vnz1wruRkIwnNoM3SUdJwUuLQrTv+UPHlyvfx1MPJEG2ZOMhu6tC82SNnw5Xs2dunwWYc2SdvmqyAIFuifaBO0RS5MJTSnYIuaYxwdtC/2xlBQm3n9jCDTF9K3cp3+j76QdsieoTedL/ljRh4CIsQKGEWioDWjRxTEzEfkew7woXFTNJvwZsFt0d0geDPgDYA3BrayzS4p7s8ppF4nsAUhrsLeGQphdr3SkTJyxUYmRS0Hz1nbIF0HU6AYmYqucUkb5Pb8+fPr9sd11qMTpj0LgvBP6NtoN2yE0l7oC2kv9JHsgWFj1dqH0U65Hp0vZK8rB93Rr1JQM0JMYUw7ptgWX/hy4o9WGO8F4T+FrWAzWsS8RrZkKYR5U+CNgF1HvBlwEI91VIkpEhS8dNx0utxmvZ3veXPhTYAtYy58z/3MriNrJy8IcRXaAwUxe1hogxTFtDt2wdKh0h7Z40InGjVizDxiRpbNdCfab1SRzG3cnw1dim46a9oh6/Oc0YlqQYhrsOFI+6EwphimrfCVNkjfRbthzwtFMiO9JvRzTJWgzdIXcj/r7bRnBot4DDZu2fPDyDNtkrbJ9ehEtSDiWHiP0HDpfBmBYnSKkV7eIOikKYhp5EyBYD1reNOgcdOo2Wqmg6fB09GyLl+5jTcUOnmKY/Mmw5sJxTOjXYIQ16G90anSVmiH5nSJfn6+ysZCkDVrFr0hSRuyFrJ0rE+fPkFSZVe2tvF1+3vy5Knu3GmDFNN89ff3UzYaqh+T9k3nHRISpOwyTByzIBiYvpCNRqY20C7pp1jGddoTxa11EIhwO30gbZOvHPzKxiftyvSFhPZKX0iboy9kHdos7ZHnEv6JpFUI7xUKVrZ8mXNoClYKXwpg5iVaO2QT7sOWNm8khDcBGjt/yjR05jsyKsUuJNYxp7rhew4KogCI7rjCu2PM+F9w995j1eCRiH1sY+Xum/i6SRGcvXgLWTNlQFBwGBInskc6pyTw8PRXTvefA39oPmlTJ8HZC7fg7RuMRI4OyMD6T3yRI2tahIRGwNsnGJ7eIUimzNohob06ZhJ93+TJEiIwKEw567j9aGhHR3vMmNLfWBPiOvRh7BGl36NoJQzm0GcxJSI6n8V9LOlKTHOy+MKAAH+1Hu8FX3j9+nXdPzKtkI1dNmIZbTanUhT+iYhj4b3AVixbuWzF8kZw7do1PT/YvCm8DraSOTUNBS+7eyl4GXFmOct4A2C0ijcAtrgZmRbeH191HoOfpg1QwiixUSK8b3jrZ8Q4IiJc2UgaPUWCdkOHGtPGI/cJDAzQBw+xEUp7Y08OI1eMKCdJnER38EGqwZs9e45/RL7iMgOGzMS0SX2Ntf+W0LBwda+M242T2EKksr8nyhemSsVe0oS4fOmi8oW5EF/Zop2dZeYI9rREJ9XYuxoeHgrn27eUvSVAsqTJkSJlCiWynRE/Pucct0SVndKmhbuHO5InT4nkKVLqkWgu9MP/lnjquAlVo/djRcSx8J9DAUsha7aG6Uj5M2SklxHk13XzsC6PQePmPjRwCmQej++ZC8k8K9ajs6fjlkfRvl9EHMcuaBt8wh0H99DeaCe0RYpd2mNM5vxm9In7cR+KYu5vzkJBgcwcSdahndIGGaWS+VOf8z7FcesOI5Epg2WaPeH9QOHq7xuEZMltlTgOhbdfCOLHU6IM8ZA1iyP8A7RX3i+5v7dvIPwDQ5A7uxMiwwNx6547Ejs64P6DUJQplRmOCePB1z9ACWMfPPUOQtrUjkpAp3orPXh7Dl7G6qUjkDN7RqPk40LEsfCfwp8bR75zxDrfM32CzpgRZHb/sOxV0WNzH4pjThFlpljwlQKZ4prHY2oGHTSdNs8lqRTvFxHHsQfaEEUrxXG+fPl0EcvoLsspbpmDTHt8FWx8Mt+RNkh7pU2z+5dCmI1UpkixB4f1OKiW9mrdXSy8X3HcvfckzJ81xFgT3ge0N9oNezWZl//4Mac5BFKkSKk3OunHXhXQsfhCjtmBPh0pfd6DB3zEtI0Sv/bPHgfN1AvLwFtvvReVvURvwxcuXbEVJYrmRaGCOY2SjwsZDSH8Z9AhM2LMQXaMNvHGQAOmoOXgAOZLvc55MgJF502DZ5SY+/DpdtyPDy4wBzVwnTcdPnFLhLEgPIezvFCssjHKfH86YApXOmTazuuEMaG90p5pw4Q2xig09+cxaaMUyhwAxHQL5jqKMBYEC/Rd9FW0DwZ3XF0tM1GkS5deF7K0ldf1dNLW/P0DdFujLXKfjBkzqWOH68fg8ekv2ZPDYzNV420J47iAiGPhP4HGy/kWGd2loGV0iQ6V5XSm5pO0XgcdLrtmeWNgBJnwpsDj8WbCUbks502BMCdLbgaCYIHRXTpmzhzBUfBm5JeCmXZC+4oJ5pzHFMkU2oT2bKZNcGARo9GEx2VdQRAsaYX0UfSFFK70XbQb2iWDRzEdH0Ob4iwy9KEMNhEej8EibqNAZrnpC+kfxRfGHBHHwn8CjZVOmK1cE3YL0YHSQVMwvwrWNWFrm06cjpnpFISGz7xi86ZAESAIwotwkCrtwxS0dJbshaH9sQfnVc7T2gZpf2akmDn+JnTs7BkinMfceh9BECwBGy5m45FQwNIOzR6cV2FtU0wZpC2a0WNCgczeGqZlsNHLge/CmyPiWHinMA+KrWF28XBADkUsnSkNnGKZEahXRatYj/tyKhq+8gbA+pwHmTcU5jOasJwzXnCbTFEjCBZoJ7Q5dt8yOsVGJPONKWwJxezrUinofDmjDHt5mL5EzEaq+ZABE9ofI2HmY6MFQbBMy0YbZNSYaQ70bcz3J+zJodCloH0ZrM8GJ30hj0H7pZCmr+N764CQGSxi2iKPK7w5Io6Ft4p1q9bMq2L3LVvKzE9k1yvhQLmYwAgXUyXo4DntFGen4A2F+ZK8MbCMLW4T3hQouMUpC/8Fu6Z1RY12QzBz5kx9qdOyK648b6/FgJvYetySHhSVuwd+xtgDxsobokVewbdLr6p3Hli3aLluL4wMc9APbTFnjuy4cePGs2jTCzw+i+Ejhj77TAOGT8IN71DEiwxHcKjlCV508rS7rFmz0eitolNB2NjlcwTZp9Mbv69iWuPK2H7rKrp90c4oEYSPB2tfyCAR/RZtkDCiy0Yk7S+mkV36UzZE6QvZ+0P7pSBmbxAbqTyOdSOVvpDCWHzhv0PEsfDWoNGaz24nvCGYXa8sozBmBItdr4w6xQTTwHlsvmfLmjcZtp7NaBdvFILwvijweQv07dtXX3oX8MXavef1cv87x7F3714cOX9bXyee14/oZadPn8GRE5ehIRmypLU8/MbrwWV9GxdvHw8sn98VV0/uh29EJIJdr+nlB/4+rdcFnuLmhXOq7CjYzPS8dljffvzibfh6P8Hf+7dg8oS1uO0ainS5cui28vDRYwQ8voxtW7filk985M2bBy7nT+LSxYv6vtc8LUf+buhYVOg08dlnapjSHQfO3kPCJEmRKPghdu7cgaPX3eD6+CEeP7gKd9WA3fvXBpy8fBd+rhfx0y/7ceTkNbjcvIZLl07j0JHrYIz68umj+nkuP3remHVI+vyR1EEPLujbD528ZJR44NaV86rsOLyNEkH4N9w9d0L/be3de0T9qt4mXrh05b7x/jn0eeydMdOXGDVmhJcCl9sYwKGwZQSZ4jYmMPWJfpO+kA1Pil4GnOhz2fglDBYJbwcRx8Jbg8KVOVO8KVAMU8xyQAAH4rHFzFYybw7kTfKqzBxG3mg46p03FkJRbLaYo42ACcJ/jF9ACAJtEyHg/mkkydEUBctWwdERuTBq430Eet5FlYZLUaBKFVxYNQJfdp+hfucnMGHVVcD9AL7q9iOqqG1VbP9Gl5lH8FUDB+T/pDKSxo9EsyZ9kbhYFaS81A1fTL2kRPUFtOs4EwWrlIW9201UnvNY33fHhC5YG5IKhQolxzf96yBnOi/8tWQ17j94gMyne6PEDzaoWCkvWqdNoOw1PpZ1KYvCM8+gQq5EyJ+mGLxCb+N4SAF8kd3S2CXlB0zHN/WKI0GwJ7IVr4KOvfohdGkZjN7miiDfk6hSogQKfNEE3xXKjs0RBZBV7VOpbD7sH58fkza6o0K5vIjYOggjt3mpa8yJH2pXQ0CYEvz3LWFx1x33ERH0BI6ZiyJ9qSrwWlUY7X6+obacQtNOS1C0yqeIWVNaEP5J+J/dMXRfuG4fhdOHo3ze2vAIflu58Fcwa94W4/1z6JeY0sBUJPotiln6QfpD+kKWcaHAZd2XQT9o7QvNFAn6V07DSN/I7Ux14nGYZii+8O0g4lh4q9BQGaXi0+torGwts4wCll2xr8sFZl2mYphdRlynyDZnqOBx2NqmSGZUmg6cN4hX3WAE4V0ys0NxfP755/oyKfBLDK+bCxdX9sPYU7fg5AAMWrATYxt2hbalE77+cyKYWNS6c2/O9o94aonPP8mSwebmHRzhASsOx9qRDXAntBdG8Xk4h0YiQ7uRKK3aiIVbrsWRQYXhGgDkr1gJtCaHFGlwbFZT4NIqjFq1D+63gYSJ7XHn5kO4unrh7O8XEBkWgFoNNmDvtArw80uMP9a0RsutgL2qu3lIOyTIlBlNcB6azX3sck6sR7rYO8McY7MnyPPan+i8zBmut6+j/bxdWN53PnJms0ermaeQNMwHPUcUVAJA48dSdqs+VwLgk5q1lDoJQJ06UzG4nXqvpPOw7z5F513xYGcE1IORCBF7+6D/xpvInxSoP/wslnatgmDl44vXrgPJmBT+PaH4edEO9KyVR19Lk78CDu+YiaS2FsH5+4imut22W2j2VgC/9rPY8sAVbKAps9qzBHPmDFVlw/So84LBjS32Pnqfvh1ep9Bcrdeo2whezztFdBgVZmSXUV8KW9MXchyOGeR5GazLHGP6QqZhcJ0im/6Ofo/phkxZZG4xj01RTJ8ovvDtIOJYeGvQiVIA0+jZaqZjZXcPDZiRYk5Z87o8REaW2aLmK9MnKLJ5Y6Copkhmy5gi2RyIwBsD0zQkr0p4X3RffAH79mzH0Eop8WnuTEhqrxybbWaMXP8zli1bhnHLb+DPw1PgdnYvHBNbfqd2CewQaQSEHJWIhH0xLDs4F3dU/e+aFcHkvy4j55OpSvmqbf7+WPD7Ov1Ys37bgfnLVyNVIhvYGk7Q5+pWJKk3CcvOpcSCkVUR4OOH0HB7uNhnVg7VDhm/LIFs2XMhUNV1TJhQ2Us6aKmywpWaV51bP0q8eEiZu6AStuUA9zPws4lEpLKzQKVQXU5swqK1O5Ho3Dg8SpodCdRHCIngxUfCLl4wglVZ1myqPEURTn/Bo+noAlk/eCQ4hM8cbGSbMjkeG+e2EA82fiGYvmy5/hmnLj2KVesXwsGWI/tlCjjh/8EOPWar39S3vTF48GDMWLQfabLlhr1tPOyd0RMH0vXFvn370Op2V/x6/C6O/DYedxut08uudMuLI4/Ur/PpSmz2qI09+ybg9PcdcLfAYLV9O8bmfoSnAeFYuPw2Jm/eh99buWPkZhf9rJxJiZFiBnWYW8ypDTntGgM79F0xmaGJ/tTsbWU6IntkKayZnkhbYhl9IccQ0AcyYMTziS98O4g4Ft4aHNHOGwGnkuEcjjRitpppyFynuH0VNHTW4Y2DczUyAm3eGNh65s2ENwveIExYX24GwvvE3iZC3UntUWP0OoRtHI3lp92QpXo95AnMgzZt2mBAy/Kwi4hEis7L8ceUI7pIPXfqOBLa2ugCOTBM/fG+hyPXAvT642YOwU9/XoZ3ImCwiz9QqzPaFs6KRmpb764tlB2kVMLVUNYK/2vHMXVCD7VvCdy76I9UmicSJY2HdLZBymkmRXLHcDzx9saY4bVw8qqLshd/HF1/BQM/iUBQlHGxmhITfzW7jMG/XkLBQoWQPl0CjKvYFA+0pEDNldjaeSISJE2Dm39tApp9oRy9P1LbReoO30ZdFxUx84spjBGq7JOvto74YUQdHL/ASJw//l53FoN4bneeT1Pi3B8RtfsitW0mtOD31bE+HOyTPWs8CML/RZZy2PjnSkye/B1SP/wLTcqXw+kngVg8bC6SxbuLNWvWwCdTYWzbfQvl2vVH7luqkda/DbYp01Nmi3ghu1C8fAVdLB277IayFT5V7+xRoXVrpExki669miOrstWE1Xsg1M8yA4y1L2T0mNFeBnpoJ/SFFLSvgr6Q/o6zLzHQxCATx/BwMCxFMv0efSGjxyasL77w7SHiWPi/YXcPocFaGytvALwpmBGjl8EuIuZisRuXYpqj4HkDYaSZQpnT3PBGwNY4jyWDDoTYgmMKJ6RJ9jwC9P3Qxli5aAkyFmmJLQWXonz58qjRYgYyVyyKFIVa4dsMi1FDlc0/8BRZU3Oqs0TIntYRSJ4Via/8rNcv33QT9s9shhTFNuLItFa4Gpwfk+uH6PuV//wrpGlcDQ7xHeGUxjKYLUOtoRhYJDnKleuK0l374cSfy1RpU3iOKYdZO67Dz/kp4mnxUPn7rfD4c4g6Ry3cqjEHdTLFR6aerZFI99O2SJU5I+7cvI1SQ06ije0fuqMtXaIyGp2/j64VsiIsRUnc/ukBMqVLhbqHcsDvl6Z46pcdTkksEWzH5GmRyi4JvhpRDq07/4D4nwyC5auJj8rjNsPjr6Hq3F/gZo3Zz84dPygEpTp+AoekFXC2yXVUVp+xQu3+SF+7HOKp78YppfpuBOHfEuqJxnmy4LIbRWsStBk5A4v7FMC4c8FwCAKq1m+DZs2aoVnvBVg9vBqWDu+IpyV6o830ZWhdJDFsomjY+PGCERBgEcDRYaMae4S+jzNLmNA3cjDd63whRTHTCpmrTDFNQcz96AfpDym2GVFm0IjHsg4UCW8XGyVspH0u/GtovMyfYroEo700aIpZtpZp5Byg96pWMn9+3IeCmLlS5s+RNwJzBC7LmGrB41EgU3Cze0r4cPiq8xj8NG0Akiez/E/jIp7HJmPcvXaY2dwJB38djGWRnbGwoyUX8v+B9sEuXDpNRpnsEtjiytVryF+gALyePEGIcqSMYr0KOvJHrq6IUHUj1fHsHZMgQTxNt2kzGsVGLKdgtDhkTTnsHLrTF/4dA4bMxLRJfY21/5buvSdh/qwhxtrHjIagdd1QbG4q/L1nIlJ6XoNNmvy47h6EhMd/xNfbE2PT7N7Y+105bC84E/k2fAL3QRqGFN8EG9v62HA+ANnPJsLqjBomVAPurhuBAceyY92U1pjX8BN8On0iFkx3wYJZPeD5eKVaT4V9vfPpg+7Y28kgD3tAaZ+MAr/KF9K+GByi8KUv5Dptj74wUSLLjDa0ddo5fSF9L9MoXjeO512xdMVWlCiaF4UK5jRKPi5EHAv/GrZyKWwpgClaOYCOOcB0tDRwitvX5VUxh5hRY6ZgMFeZ7znyljcGOmbeXKzhDUG6jz48RBwrIsJw4MABBIdFwDFNVlQokc/Y8P/BnhR219Iu6DTZMKVDph3RGfP9q+yFtko7JoxQ0faYI0nolOnorQf5sBeHbuNVjl54PSKO/ztunzqCW0/4dNb4yFO+GrJbtCZun92PW+5MgE+LyjWLw8brAfaduAybeElRKDPwOH425Ezsg0e2+VDA8mR03Di9H3c81T7piqJmUTucv+iLgvkz4faNUwhNXBiZkoTqDUiKYdogAzu0wdc1JDktG8fZMPDDAXYcjMeBsbQ12qUpkE0YUDKndHsfiDgWhGigA2XuEw3WjOLyRkDjpliO6YhZtq75E8ybN69+TA7io+jmQidMgRzTeSCF2IuI43cDhTEdMaNL7GalzTBKxd6VmNoNB7yyUWraGtfpqGnDtEM6dg6qjalNCzFDxPHHAW2EjUkGg8yHXEW1y5jAtEI2cimqeUz6QvpE2jRfeSzaYmzhYxfHknMs/Cto8HSYvAGwZUwY5eWoWRr2q6Chcx+KYtY1W7500CxnK5mOmDcKpmxQdAuC8E9oc7QVzvlNe6LNMNLLnpzXwTqmDRLaNLts2cBld62ZUsGeIEakabeCILwI7Y+imDZIIUuYJ0wbel3skbZnil++mr6Q9sZ1+kLaNM9BAc6BfsJ/g4hj4Y2geGUXLHOjaMj58+fX100Hy9bz67qP2F3EAQc0fraEmTNFo6fQ5k2G+zPFgsekwxZxLAgvwhlcaEOM8FLEMlJlDlSlI2Uj9VVQBLPnh6lQtEGOE+CrOX6ANsk0DTPqxe5d08YFQbD4QvpB+j/aCiO+7Ak17YT2RFt8FaYvpDhmfQpq+jvaMscJ0BdyCjgek/5WxPF/h4hj4ZXQaM0oFA3UxeW+fhPIlSuXcsyPEaEEbu7cufSW7utgK5p5UkFBgc/yFXkDYFeuq3L2LEuRIrlez9vbCylTptBTNF43mEgQPnZM4Us4nRPTmWiDFLUUuWZ+Y0wakmyUMhpMO6PD5Qh42pk5Cp7OmPA961J8v25grSB87NAX0kYIbYNpD0x1YE8N5/cntBXa5+ug7dGvstHJBijX2RPL4BJ7UM2xAiznDFDmjBXva/BdXERyjt+AR489cPL0VWMtbhASEoqw0EBlqMlVSzlUtVwDkZhGq7YFB/JGEQT7hMmU4A1FsqTPp12y1RvMNgi3mo9ViwzRW77+ARTbdkidJjXiKedMB/3o0QP1GomMGTLoTwzj424TxE+M5CmTw9Y23rMIlvB2SZYsMSqVL67/D94lknP8/0GHS8dJh8ncRObomzbBbcz75/+Qt3Pzf8nGLGeXsH4wAO2PzjdRooRKIAfoApvdtsQy88xdPQqWMKGj2u6rxHGEPsj2dREw4c2RnOMPC0aKGQSiIGYjlDZlDhin7dCu2IikiLb2V7RB9sZYzzjBcQEUx2x8spfHfCw0t5mRZApivjJdg8KYth+bkAF5wjNGjJ6PzyuVVD/8dysk3jecyikywmLg/KyhoUHw9fFHSmXAbq6PkDqt5Yl0EapOcKAPkiV/8QGvvIl4uD/SDTuhY0qkSGEZLR8U6KtawX7642UT2CdU5ZwD2fJdapHheOr1VAnxUH09eYpk6oYSu24GHyNVKo+H55NfkSrlux302KTVUKxbeR5NWhY1SoQ3Ib5qID545AE7Wwfky50GN5w9kCKZxdmevXgfpYpl0+3RmgQJIuHq5ot0aZMiNMzSCE2TOjHu3H2Mxx4ByJQuCbx8wpEhneV/z+2ZMiTDybO3ERgUhkL50iuhnBBe3q/PXxbeHDreP1ZMtKz8x4g4/ncwjYmNRwpdNkoplGk3FMdMdaKItYY9pYwwsw7rsqeHjda7d+/ogSfKL0aDrR8lzV4iinDuw7oU4Gb+f2xCxLHwDIrjMd91Rfz4H3cUk6KWNwEaLSNG/IlwMABbxSynwadOrYSym7tutNF1t9K4/f0tk6BnzWqZvJzH5Y1CKWGEqRZztmzZ9XIT3mA4Up43EI62F949g4fPwrcDvnrn4lgix28Oo1NsPCZKlFh3jMzJj4gIR5o0afVcR6e0aZXoDUVAQKBuh1Fhly0dOB/BHC9efL37l8dhJMrd3Q12ym4TOibS7dza8XJ6RTZw6bBlHuN3x/uMHHfuMR7Tfng/5/6QoO/zevpE2UIaPWjk4GCv216e3LlVI/O+cmUW8er55Ime2sRIsDUU0neV76TdhoWFI2s2+ks7/dHvPA61BFM16CPjGz049vZ2CAoM1m00aTLL0/VYJ7ZJtd9XbEPlCiVEHAtxRxzzJ8GBBRTG7A5ily2FK7uH+JABOk4uNPyXdbfyGOxmokOn42WLmq1ttoQ5gIH7c18Kbh5HeD+IOI69UMRy5gjaD/MRaT/MbWQEig1N2iRTItg4tRa31lAgW89ZbEa6mMfIwXeE4lhyGf973qc4LlK6NZImkacPvg7drpQAvuvqhwTK1u5c9ASSJEL+PInh5h2CQtmTK1EbX/mziFeIVxsEh4chMCAUKZMlxJG9HqrMHxWq5ULiRAlwzdkTmZyS4NDux6pcQ7kqH8YDro7svYqLl34TcSzEHXFMOGCHrVVGdjminSKZgtacTSImcH8KZHPKKEau2MqmY6fDZjkdO4WzCOT3g4jj2IvZ08IGJKO5tBcOlmNEmbYUE3gMdtPSDgntjw1cOn2WM/eRtikC+b9Hco4/DGgntkoAM83Q3d0DKVMkh6+fv54rHNNcfDZkGQmOVEI7MkLZm/KjbKwy0sw8f0t6YbxnM1R8CMg8x0KcgA6S08pQFBMarjmQgNEmimSKY6ZVvA46ZKZVsNuIDp3QGdMR8/i8yVAQc4ARj0mhzH0EIa5De2FjlE6TdsLGKHtfKFzZg8NIMMUx7eZ1MDrMHiAzf9EsMwUxB/zQGXMbI9QU4IIQ16EvYg+NOW0aG5SPH7vqg1SZvhTOsTZK7JoNzldhmeHJRe8t9VOCOiAgCEFqXx6ftsyeH6YXRijBzPPRBwuxAxHHgg4dJJ0vBTGdKW8QFLBc5zY6UkawYjKtGvenQ2fuMPcxUyp4TBo/c5bp+HmjYTkX03kLQlyGNkPbYMSYDUk2IJmHTzHM3hXaH2eqMGeYeBmsTzukc6Zd58mTRxfYjHSZKRUUyMxn5DF5bNq4IMR1aH+0CTYWKYBpJ1w3UwRpM8wvpl29Cu5HO2N6FO2Y+9AXMtBkbqPIpk2ynIEo2r8QOxBxLDzD0orNpk8rw6gvnTOjVJzTkfDGYN2NRAdM47aGzpgtYHYNmRFnGjzfcz7j+Lb2uON865lA5k3B7OYVBAH6QDhOn0Y7YuSX063RwZpEzTGmeKaztYaRKZax65fH4z6c0s20NR6bApx16OwpnqMbWCsIcREz3Y8NRtogUwTZo2P22ET1hfSDrGMN/Sb9HH0hA0Gm+GXAiGKZtsc5ylmPx6Kdv05wC/8dIo6Ff0BBy+gUDZY3A7aYLURg6/juaN68OTp06ICePbph2Iozz1InCA2dRs+bC8WvNcyXdLuxAdPOOeCuEsjc7wVRfH0TDlnGCL05Xncw7yTfnMOMX/bpRYLwoUK7oLBlbjGjV3TMZiPVGk4fxRkpzEgwYQ8N7ZbHiCp4OVeq2VNDx819yQt2KAiCDsUsfSFti4v1w3hM6MeYGsjUCWuBbPpC9spEtS+KbtNeTfEtNhi7EHEsRAuFLQ2YrVnziVkcSfvw4nE0HLIQU36YiJHDBuFyp3K46fn8sbJsJTMCTWOn842KU55GmF8/EZImT6mLcGvmTZ4H9wBj5Q25eGYlbjzhu2Lo1/lzvUwQPnQYbaJAZs9LVKFLYcyuX9oqo7+mc+U67ZDO1xxDEBUel41f6/lVBUH4J6Z9sTeHvZ/WUBgzVZCNUTY8rW2U781GaNSosimMeTyZMjF2IuI4jkDjNKeGolNlVywd5+sGwtHAX5hJIoED/Fyd9Ra0TdK06NIIOOsbilCvBxjfpRa+atsa+fqthJ1jUjy6fxvjW3+GFi1bone3ZqjT/xcEXR+FurszIGPGhBjeuQVatWqFlvWq4vixDfhx8Tb07toLriH+WNb7czRu3gp12w/ELfcQeLutQK9eX6NZq5G4+vQhRnWupe/bcNBv8PG8jBbVhmNGLXuccf8L3Yas0i814OZ+lKnVUtWrg+9/PapKPNFVCY2erbqgcc1y+H6Ds15PEP4L6BCZpkTbow3SFmmT0UWEo8JuWFP88jiMJlMYU+Cyy5aDhqxh9yzrc8wAz8d0J9o6z0e7p03ny5dPF8mCEJdgCgR7Qzm4nAvtg2lGpmB9GfSF1iKWx2GPDe2XgSQ2Yq17S81AEe2O+f/0wTwH69MueTxO0chBtxI1jn2IOP7IoTHSEGmYjABzUI6Zh8iWLp00HWdM4CTm4YmSQ4sIRRjskCLUDU3XA59nS4XNU8rBsd4ULF+xChFD4qHTpqs4t6IR/FttxMwZP6JhfltcSZYB8f3uYyfvL0cWIOjTTvh9xQqs3LQHn5ZpiG861sK8dbMRdm4CluZaiHWrV2Dzt58hd7HZSJ4yFDdTt8SaFWPhuXUZ8k3YhhVq3+Tr2uNgYEFs3d8T/baFoERa46l6mhdGt22D3RuXq3pbkOTEj1hzXzUSXFwwcI469u/jcOq36Za6gvCOoUNkfiFtjrZHG6Qt0ibpmKPrro0O2jNTIWjThDnEpjDmNjphRrHYHWz2+FAA8JHTfCwt96UDt36ktCDEBWgf5kwwjARTlHKhPbLxSduIqS+kP+W4HB7LFMYmbADT5mhnjDZTIDN6zLSLq1evPpvFielNQuxFxPFHDp0ou26iRpZMGGGic47a7RMVbne+cxeB97YjJDQM9v7nkShjQTwK1JDZIRSXPQtg4+SWaNGiBaqP2IhkD9zw9Jo9KpYKVK10HxQuXBRPbOxRpFh89KJPLtcHpe6tRoWqVVG3SRv4h6pzuG1DaCTwdO9u7OqXB1XVtqrdp+DTEteUurA8fpMULfUJWjnZoGrprnik7i926ngJgubo254R8BBTj1uEAMmRMzkeuCbQf/C2nFMybRrIrK7CfwEjtRTHTFGKTpDSUdNR0nG/DjZmGf3l75oDhqztmlEsRsTM6aAowDnKnnUZveLC81NQv9AbJAhxANoGB5tTCEcHbcV6APrLoLBlQ5d2Rd/K6K8JG7m0P/YKcVYY1uEAPDZWKc5pg3zlfjL4LnYj4vgjhjcDRo9eNe0TnSUNleL3VQKZRs6Hn0SGA6kSJ0S2Eg3heugXZHDsCedHHojvth2dp2zHqlWrsOfQGfz1QxukKVIaV55mR/58eeAY4gZcDkBwhPmY20RoPX4Rju7Zg9HNk6H7Vj8kuKeErrrUxDmBwQc17FHb9hw4hmObf4a3//Of6ubfl2PVI7X9xEKkT1cM8dQ+WtTsELsUqKleeCMiDx94I2XSMLy640wQ3i4UxrSxlzlkE3axUiQzVcL8zUYH65nb2agldLicnYLnYleu6XR5XjNXkqkXjG5xVgrauyDEJRgkYoTXeoaJqNBe6C8Z5X2VQOYx6A+JdV0Ka3MaVPYKmXZGm2RDliKZDVO+Rk3BEGIf8t/5CKHzZB4VjfNVNwNrGIHipORRp2YzoVPOxnmJs1aBd4iGW9evIWW5Nvih+Fx8t+kimg3fir1zRmDt2rUY26oWJq0/gpJfNMTAAjZY/ccfSFznRxTOnxB3fQtaDnjtT3QfMl6vf+GUPxoUjIc0tRphx5I/kbL6eriN+Rw/r1iLmYN7YsDcDZZ9DLLnTYcti9aqfScjLDwSp45eQGCyBTjx5zw8CjBuanYZ8evOaWgxcrmq9wNOap+jfT7APkt2y3ZBeMeYs7G8ThibsBHLyBYjwy8TyOwCZlewaePMPaZDpjCmjdLpmgNd6aTZVWwOFqKNs44QN5g+fTo2bdqk/zbiKrQB9shQ9MbUF9JvviqCzF4XClwej7Zl9tiY0yemTZtWt1ETM82CdsljM4rM+4IQu5HHR78BH8Ljo/nvZNcrjfPftExp5DTelw3U4c2GXUqWKLMNHBIlQkK7BHqXlAlFwQOX+/BWN4WkabIiXzYn+OychBHXS2BW7xpGLSE2II+PfjcwosT8xZgK46iYvT4vc6J0tnT6psOnrZsPEiC8D3B6KTZ46ZSZ0iHELv6Lx0dTuA0YMAA9e/ZEmTJlnjWc4sLjo+mr2BPDKO6/gftSzL5sJgnaN/OImXdMezMjz9bpErQ/2iHrMP2CjduPBXl8tPBBQYNmruG/7bJhN+yrUixMJ8wbBv12SGCAHu0yYeSZN4OQyHhIF3obdWtVR9GiRdH1eCFM7l7NqCUIHy9Md/h/hDFhFzAjwy/DHExkDiDiuUxhbDZg2UileGZXrhA3YTrNmjVr9Ll6K1SogI0bNxpbPn6YSsEo7r+Fg1Zpyy+LINO2+NQ79vhQGNM3ch8T7ssH7dAeaasfkzCOC4g4/ogwBxz8v102bC3zhvAygcybgTnvqhmhoiPmzYBOmQ47VbLEyFy2BW5dvYDz589j9Xd1kTCB/NyEjxuzC/v/EcaEjpZRKDZ2XwYdMRvCtDcOBDJnnuGAIDZSzYasDL6LnZw/ewSdOnXSl8OHD+tlTJMxy7iYjBkz5lnZkCHPI77WdXnvJadPn36hnL8DRjNLlSqFhg0bolKlSvD1+rdPW/owoC9koOf/9YU8xqtykE1fSKFM26MYpu0xlcJMs2Dk+t9Gr4X3h6RVvAGxOa3CnJXiVYPvmB/F7h22ZGnMdJqvunkw95HdcC9LseDxKIx546BQ5s2BC28ovBn/vzcm4d0jaRVvD3ah8nb6KmHM7Wx00gZpH7SbV9ks7Yl2+LJGL4/HCDOFsa2yaVt1PNojBRHzImUe49jLf5FWYcJ79bZt2/Qp/Zhe8fuqA1g4Z4Sx9eOB9kBf+LocY34fXAjrWXpCX+0LOaPMy1IsaNMUwzwm6/CVtssGLKPGH6MvlLQKIVbDmwHzD9kNG52T5XYz74mPqWTLlkbMKANvlIxMmTeJqPAG87pBesxl5M2Aops3A16HCGPhQyEk4DFuP40+PuB+R9kHn4weEYo7L6ljwugSbe1lwpg2xumdaHO0PdojbZHrtEdTWEeFjpvdsYwMa1ogbl++YWyxQDujA2b3sX9oGCKVDXIfzlBhCmP/py6497JplP0ewTt68xY+Avi7PHr0KAYNGqSnWPCV6RXxOMXPRwYbnMzDZ0MyOmHM7WaqA30hbZAL84Zph2xk0o9FB30hbfBlEWQGmphiQZ9IW+e5aLfs2RFf+GEi4vgDhw6XLdPobgZ0thyQwRsAb5I0UpaZTpgGzP15o2BaRHTwRsN9X5WDTIFMYU5hzPxGuRkIHwr2idIjZ8rof69ps+dFGkfgwY1FmLT3n49CN6HtsGH4MmHM+U4piH29PHWbs0ucQh/0mkTVp60EBIfBxcVFX14GnbOnZwByFsxjlLxIunTnsWrjRWWHFnukkzZJnDIzsiY3VqIwtV1LHHtgrAgfFadOndJnKWGwYsaMGfrYj48Zc/BddP6HPo+NUC4M9kT1hXw1H5ZDfxcdbIDSll+VYkHbo0+kMLYemCd8eIg4/oBh95H1AABr6IQpiiPCw5A8WRIkcnRAsqRJkD17VtXCzYEM6dPBwcFOCdok6gaaCPfv33vplD90zLwhvEogs9VsPRm6IMSYEE/0/rI3hn3dCfXr18fCQ8yzDcPCrkPQp09njJq3E6HeD9Gk0Zf69m2XfNR2L0xp3Adt27bAnB3nEeB8TN/G5dJDi3MLcb9llHXF+DHjcdTTA5PbdIKf/jO+hsljF+HRjbWYfMgySfafs77V6zdu0RZewcCWH4dh57lbaFrgayxsmgg7r7nC5+JWvU6Dxs3wyDtM2cwjTB076QVhvGvRd5i8cqVeb8i8rdgyfyjy58+P7Q+Y9pQA/gd/QP/+/ZG1xWBkSJsKdt5Hse6vTehXtST6Dx4GT79/9uSsGfU9Hsbzx09jZ6q1CCzu3QmTR47Uz/HzcT8MaTUVP479Cpsu+L8gjMm1w4sw7yTfncTkX35BP7VPq24DEHlvNQZtOIhW7fpg75Y5WC8i+aOC6W0UgubDkz5mXucLGR2m6KWv4jrTBSmkGdllUIdlFMxc2JBlT0508BxsDL9MIJu9NgxYCR82knP8BgwfPV+1CJPDLsH775KyjafBzdNPCd5EyuG+GDWOF08ZuRIXnk+8Ean+vRGhIXB/Go5MGdMq442nbgC8YWgICAxRNxVPZEyfTLWcbeDomACJE6VAeETUJ2oAQcGh8Pf3RXqntNFu56Ol46ljx1c3H+HDodfI1fC8+sv7zTkOeoySjhnQee8D9CgSiN6DxmL04l/w42elUXjmVjQv7YiJDRqg2uoD+MT+Eb7+ajKGLB2GsVk+Q49j51Aygz/6N+qFXuvXIQeuq9/3LLgFDMaoxu0waNs+5HhwHDaZy2C7+q3/mio15gZpSOFwCt2+2ozJIzQk3z0GWvkF6LgxORaPbI6gq9uxI7wCHjdODJutGtommIj+J/tiQRMPdGk8CmPW/YoMISdh47ABD32HIkMS45HlBitGNUfra19CW90STTPHQ6mZJ9Eyjz+afTkdh29PR++xf2PeyLY4OqctyhX6HVru32GTcQ72X9mMgt7r8M3OdPh51Jd4dHozftt0Bk5p06BUvWYondkTPaqOwJiVP2GKUwYk+usWhpbwgEOm5sp+f0W370OxYAQfffMipzeNxtqEozGp2m5UqboBv26aA/dZmTHxcxeU/dYGBX/W8EWuAGyf/ztuB3njiV8adBnZCemN/YV3w3+ZcxyVj2kqN0aM2RCIrveUKQ5MozDTJZj+wIgue26sYT0ehyKbx6Es4gNzojY0TZhiwXnDKbbjKpJzLDyDnTWaEoZsZb6vhSL00SNXJXqBFMkT60LY3BYaGoYHD/hggPtwd/OAFhmOtKmSIq1ypAXyZUHSJA5I5GgHx4R2SgTbwylNUlWeQwmjlKpuGIICgnDr9h2EhIS+cE4u9na2SK3qQQvD06d+/9iui271/UQtlyV2LwiPHW1juq4vSmQEUuVGneyRWHMLCDl2Admyq7K7FzDsz2C47tqCbdvOI1H4eWw8DkS4OCNjCiVML+zBjxsicH3bNrXdGa0rH8XubRdx1bGuEsuKTJ/ip54d9KcjRr3hxYsXH10zRgBFKsFu/2rMUsfY52KHBoVVo7P8p6C7TYSdWPhEOdNjG/DLDTucV3U27XRDrdwTcfvpi8KYMPo0oF8ruNy9ieTpgFwZ0yFFCke4OW9CsJYLPao7Yduvs1Gu1zLUZy5w0lCgRkNkd/SFf9rKOD16GJxv/Y25vx9E6XIV0a17dyWMLdMlRtrYIlmy5KrpC1QpkhP2GTOia9FMat0ypdvryF2+JrKoj5K65mAEPlbf4UVjg/qUX6jztG9UDZ/kCsaieX8Z5YIQe6GYZeQ3OmHM6C7TKBImtEfixI567w5nb4kqjAlFMEUz0yHYo5rQwf6VUyly8PvDhw+epWUIHx8SOX4DYsNsFRQ0zHtiqkNUmPfIVIoECVTLV6lnRnh5M4juxmENj3nz5k39JhIYGIRcuXLr+VMvg61m3pCED5//craKhfNGIvzeYZRr3Esvm7f+CMrmTKxHjos6VsVm/8vInMgGm0a3gEf733AluwOauGkoE3IYNmVnIfTeajyfDdAd3XJUwJjL15HuzirUmnIH25YMNbYp7uxCuR5/4cj2WfrqjB7tkG/8dPyWKjUWhGhIansCrZpswoLJCTDw8nAs+PK5jazrXQBHvtyP4t87IfgXDV0SfA6bPfugFZ2DZmsTYc2k9nquPh1pdLb150+9cCTrEPQrFY7xX9VG84WnUTHTQ6R3+BS3L49C9/U5sXREHVxd3x8FtOnQai5Ay7GJsHJSM9y+7YzaeepgnctxFMqUGqFP7qFCzS/R+Puf8U2NpOhVYzQW7P4dP3ZuhVIjVqJCtkfoVqwFZp8bg17fR7w2ctxtVCAWjKmPu+dmoZdLb1TsYINCpzRUd3JGz1IN8bjtbGwaUsHYU3iXvM/IcYWq3VCo0Icd8YsfzwaXrt5XdpgCaVK92CNla/Se3rnvrq/TH/59KxBffJIJSZNYHoQSHfN3XkejYskRHByO5EkdkDxFKj0QFZXgkDAsP3AHnWvkVI3uV/vXj5X5P+3HxUuzPtrIsYjjNyA2iGPmkNEhR9fdwwE9nF+RUNyaE5RbQwHNLqaoc59yXkjOsUn4CFp2Gb0MCgOZt/HjIFZM5abEcWnHDKjy13VMyn8HFfotw97Nv2DMZ6VRd+15lMkUjrV9q+NJ9+3ont8ew1rVQaXpS/BbeidM9dWQIUkoprSvj+zjtqNJZqBDvYbo+dsanGthh/gLNHSw+xM2mRpgq0cgtqdxRNtADb4/NkfV4Znw9LIDUh4br4Tvz+h7JB1m9qmHJxt6Y1yi4chXMz20yxqaxh+DNpubYvuAHBjcrDE+n7EZhYOuomKu2tjqexf5rILHHA2/dGxLXC6zEAOK+qNNrjwYfU9DjTQ3YOOYF/4XZqDS77lxZFxBtHLIhv2T7+JJm2OwydACW1015NlYGi3df8DqttmR3SpX1MfNHfapvdC3pkUcT2xQA59P34QyOZ7q4njm2ZFo0ccNG2d9ZezxnJeJ49bOvVGtsQ1yng1Bs5x+CHFIhWTydOn/jPcpjtt3GYvvR3c31j5MwsJClB+Mfg5vN7fH6q9m9JBpyJiR42GeD9RjKiL9aFhoKOIrH8keWZNAfz94+3nrgjpduvSq3suNwsvrCVKmTB0nI8i/LtuCBnUrijgWYoc4flU3EsUxo7oUvpzjNKow5oA6ztdIgcxuIetBRNzGQQv8OXCQgvVT76JiPp46ulHBwodFbBHHpZQ4HrB6E2xtglDk86bImzoCZ7dtReZK9ZDaUTXqgv3w55YdiFAOK3PBz1CmQGoc27AdReo2gKPyXWHeD7Fx11H9cPnKVUPhDCnUj9oXa//aoZed/mMdys5ehZqJbmPrljNIlicPHP2AQgXscSkgL8pktsHFoztw7aEvbO3ToE7dyrh/aj/i566MTPY+2LRtJ4pXro0Mka5YuWm/cqYRqNSiDfIks8HRfcdR9vPK+nk4kOf4vk0ITV0Un+Z1wvWTR5GtbF2ks/fF9s37UaNhfezftAJPghOjQKkiuHr6Bpp87oOafc+jb/3COPLgKb5uUReBAcH6wJ4X8cWxXaqxUL08LuzejmSFyiBrOjsc23wIJWt/gYNb1yJZ3jK4v30WGvWebOyj7hkPzuNe/KIokf4xjp0PR5mimeH/9Jr63HmQw/cgDjjHQ516FfHPzmbhXSI5x/8f9IUv81NMp2BDlQPvzId0WMMgk7fyhRyTQ39qnWpBG+YsTxTXFNX0lS+DPpcD0eOiL/zYc45FHL8BsUEcM8JLY41OHDMiTMPm9D1RBwow/8rMoeK/nDcETmpuIuI4bhJbxHGVXKWw8OJD5EpplL1lZvXqiOzDFqPuW5hdiYN32Mh82aNpzZHu1vZFaFu034gIjoy3rOvHuL8aTSd7Yu3snrh27Rq0yEj9YR7/FMfP4b5sCEeXXnVg4XBU6jreWBNiKyKO/z9eJY5po5xVgj2gUf0UfR33ZTkjy7Qha3FMUU1xTBvj1KQijqNHBuQJsQoasT6QKhoYKaYhRxXG5khcGjANnseI6rh5Q+A28rIRuiY8vghj4a2RMD32Pnx3wpj0nv12hDGhnb1s2kNC24pOGNMhM2IVHm55etYzYZuluS6MaacsZzTrdTZIx/+yp3WJMBbiAnzIjemzokL7oS+MThgzSGQKY/aeWgtjYs75zzpRe1+jwvOIL/w4EXH8gUGHSCEbUxgx5lODzPkd6bSjRptYzjxiRqNp6FFvFlGJmq8sCHEJ2gidKoVsTGGkmY7ZbLgy4hVVADPiTGfPxTrlKTp4PHk0tBCXoS/k4PSYwoYphbHpC9nDGjUqTJs265DX2VjURrDw8SDi+AODRsuFhh4T6ETNmwEdbnRdRIwqczsXCueXtZbptB8+fPjKwXqCEBdgOsSrpnqyho1Z8wEEtCE+SCCqMKY9c0CsmS5Fx/0yKLJfNq+rIMQVaEO0p5c9kCMqFNKmL6R9RWdjDBLxmKzDBuzLbIx17t+//9pGrPDhIuL4A4QCl1Gmlz0H3hoKXRoyW7jR5V9RGPOGwJsGeVWuMW8unKXCrCsIcRXaEfP2zdlhXoXZI0OiE8Z07uajoxm5Yp2X9c7Q5pnS8breHUGICzCYQ78Uk14c2iF9IQUthXFUX0g/aOYik1f5Qub7x9Vc47iCqJwPFBpuTG4KjDDR2dKRRzVkRr44uI7Omi1lTuH2MqdMEUCH/LocLEGIK9BW2FB8XZqT+ahaDmKNKoyZZ8y5ySmQaYNsxL5soB+FMXuCOL+yILw7jqNb5x+M9++GQN/V6LbwhrFGInD9pza46GasRuH6kV+x+KyxEoUbSzqjUMU6aNq0KVo0b4o2YzfC3YfPiHfDjN7fItwYokOfSduy5CJ7Y9bvu/VyCmamHnKhf6Md8vkAUW3VhMKYAvtlQaIlY3ti7x1j5R9ocN4yDmOXHzbWX0+Y73UM2PDUWDM5hhnrrhvv3w7BfvfR+9M8aNSsBSo374OrD1/f8P+YEXH8AUNjZ+SXxv0yKIijM3K2kNmNy2100BkzZnxpVy5H2DP36mUDgAQhrmI6ydcJZOvosQnF7vXr1/UGLm2YjU865eiiUdxOp8yGriD8V0SGBespQcGhYepHGImQ4GD9SZMkPDQEEWolMizEUieEz23kbzUcoeq3HWxVBlXGOlwoVuPZhONpiGbUCYUW4YvxfZeDT2fl8SNCjfOGWYI/ucu0RtsifBeBUOWvQrgtmALYQq2+0zFnzhysWr0WyyqexZDf9qvStPh6yljYUuVoaj99MKy6NnXI0OCT2LpbNUrV8T08PfV0QVsHyxNns2TJDDtlr6xvXi/RwkP0Hp54tgme+dSQYMtnCuMXQSJ24XhYFVTJzlOGPfvM+mb1/Xks74CcdUfCMp+NKlLXFcQLsoZPqzX244O8nnjsxEN3P3Ud4QgL4XcdrL6FT/D1l5zNJhKhqizUqG8+sCQ8xLLORneI1RzO1rxwfeoz3tw5G/FH38D6NauwtkdedBm2XF1fpLq+1/dQf4yIOP5AWX/gsv7KiBS7g14VQfZ+eBS1a1ZH9erVMfPPc3rEmDcDUxhzupqog/RMWJfRrLcpjMNC9uD7Nbex7aeh2HjNKIzKge/x4BUNV9ebq1FTfR5+pgkrYt4K/1eE+mP2AT7nN2bcOrxMvy4umy48NEqFjxWzR+VNB8py6kQKazNinDVrVmPrP6EwflU3ryC8bYJdryG+XUKcuuaMPtVS4ZfDzmiWMCE8fS05vsPaN8dl93uqjgOOX3XGwNp2mLvfHQGeK2CfID0OXHRGz8J22Hz3KToWTYA9Z13gvHcxanYYDnt7B/zRJx92nXfGgFL2WH/XF5S69x4/wdOLW2BrXw3Ot2+iuJ0t9l33w6l1/TCKehd7UbXEF9h4yhkzqjhg6V0NSR/+hYQRgXqPCn0hKo+E574NeIJ76F2prhKuwMSvKmDBHhfcPrkDpT7/EhevuWP7rmu4dOsBVgxIC2ePINxd8xVmb72GpEnD0CNHTvT97TBOL+qJij3mITzgCZoULYCrSqT+MftbTNz2GHd/74qyU7fC+fRaNGzenxeHE1OmoOgX5QC/G6hXuCRu3L4H543j0GrkMip+uBf/FtqeYXpdEhkeiDtuVo4u2A3Nc9jhyAX1Xe2ch7rdRiv//RjnbjrDJ/A4sjpkxRHnu/DXtqH3rFNqh2toWaAUZh1wxv4Bjuj32zE8Or0JCRzq46azMz61t0frUcstx7bG/zbq58mJKzfVef6aiObDFqFw48mYUcuy2dfHB7d9lNhW3+td17gZQRZx/EGyGzv23NLfMcrE7lo6z+hykC9t/AE9Frvir607sWvXLqQ4MxOdFxxFqmSJYKNawK8SxowuM5r8tmen0CK94eIZjFp9JqJBPqPwBZ6iW6t5egs/Op6c/gMlRt3Htp279M+U9txsjNpy19j69vHx2oiLzjG7Qeya2QuzL2bUr4vL+R86YN7e28ZW4WOFPSsxiSCbsDeG9moKY9phdIN/2OilHUaXFiUI75K72zrjm11eqFC8IBYuXYEuFadg3u7u6HtWyYZ76zHlVBGk2tcBvXd4oXKJgpi9ZBt6ft4TiZMALWbuQ83SBdGsXw+ccY4HT7/ygFMyFKzTE3t+G4+g4HC0nHoK9coURJN+vXHmUSawT6RgvvRY3rsufjqxHQULFcHVi3NRpeEG5HCca7koRdba3dC8QkE0mvA92p220fezj6fp9mcZKOuFZH7+sDzvFUigzMrbxwl2jqEoWOFLXDj4J0oWy4QebQohY8pgZKq0CTUrfYJzd31w45IlWhMvvi2GtKiG8p16IGLzYbhdXwj73ttQo2QBdBwyG0MrRaLUVz9jbc8vUbD8V+hfMQgzr4Zg5dBdKJwlnTpCCA5dDUZE3lwo2HICVo9rA9g6oGCB/OrgzwNN8RMkQYHM1v43HFfuOSEyU2oU/LI/tv8yFmly5EGlovmRKrE9ajRrj2oF8yGZ1a0gWY5iGPBFQdSatAFHjj7EwVn1seLhLhQpWBDbN75sLutQnHCOj/CcWVGw+Vj8MamTUa64tQO5GgzHppndEN82MfJneYdzbMZiRBy/RU6tHY2v2vdG785t0PT7zVD2j20/9kWTzr3RpX1DbDn/BHiwDjXqNEL/jr3RtnphzJsyDr1690aLFp3gqo7hd+MA2rZvh95dW+GrUWv1455YNQLteNxOrdDy+/WYNuQ3LBzXAL/tvII7+5aierteGD2oA0b/vEc53Ifolr0M2vXug9XHLmD15ov46btGsI1vsaY23SdgaKvCCAixwbW5udGt/0h07NEDO87x7DvRbew2vd6VY7PR6lAqTC6UBR369sO0+X9i47Qu6NFDXUfrWhiz6hwign0xr1s1tX9vNOvQB+dcAhHmcRbtW/dEb/WZ2nfsggtu4dg1bSCuRAkDe4TaY8XQlnoeWdDDv9GyeS99n7ZdemHHlj+x/9EjjJ2y4ln3k8eFnVi3biGW7b6sBIg3Hoerz2Okk3SevApj6mTTu4l+H9wUbbv1RpsOnfD3bSVUbs7GF+2/xjddeqNx3WpYO2uU/n037jxBSXDg0bE/UKddD/XdNsSQ+fuUGgnCrtmd0bWr+pxt62Pg3I34Vt2kFnbMit2XHuHkykmo00Fta1cdv+xgztw1dC1ZA+1798M+1wdYfNIeY3p8rl8XGTF2Hr6sklPdK32xZnhddFTX1rrbEJy49RSe95eg2zJLkt2uBX3ww2EvdM9YEu379MHSrXuwYFQ3/Tvp3bQCftl3H6FeLhjfqRZ69uqNuh1HwdkzBLcP/4qxc9ep/x8flyq8T8xBcjERyBTT7LlhWgZz/aPL5WevDkU0I8YijIV3gf/to+q+ug6b9hwzSp4T7hqOH3vk1+9BlbstRLsRRZG65HdY2XsKtvw2F+MntULArROY1TOvXqda9wVoN6wqYBOKpEksMxrZOyZEPNvk+OvOWpya+z2+alAFA9VN3zFR0LM0PjtlN/F4O+eK+uOfAOjTPo9+zHyd/8DQIXnh8DyDAokcLdOn2SZJrHbW3z6DdpI6tQPCMzgho2pY+pxw0SPHP/z1C0J2LUCXtk3ReNw+hESq8wTHRwK7pHA5PRujRoxAqR598I+5JxImRJlyyZHU1w1Zs1uJ2JBQPEFqjOzfXb/OHvN3wUmzB+/CtjTVJIXh4roGSwd8gxbViuGn7c76bq/FISPOh5/CzrED0bZeRQxfdhGpkrkbGznO4Z9Tyz1Lm0yaFKXSRMLDrgUyGHO6s2c5WhLnh/OTzVg9bCBa1iiJaZstwTafyztgk/sLnLjjj1JZ4/g0dZoQY4aPmqeFh0cYa/+k5ecdtFM+gcaaImiL1rDbHMt7v4fK7BtqTx5t0Ko0GaYXBZ2bqFUbvkN/v+OnjtqIXX5aW/UvOersr5cdn9lNW+3PbKUC2llfq+Nqu7Su321Ur3e1aiiqhUVE6qWTOnfSdrne0FqrY7g8DVUlZ7XmNTrr26IS6vu31mCM5dzaw+PqHOU1/7AdWqOBmzUvLy/t+r4+WoPtmjZBHWvNVVXH7Zyq01xzD3v++e8cn6bV/umaZeX6nxoyjtP81rXXphy8rIVZSqMlJPAPreGPN7UNLaFNvatpDxY30WadddbCje2a9kTrmiGDdtdX03w8D2nNin2q1Zl4yNhm4c6eiVqZTz/VCuVqqB2490Bdu/o+3eZr9cbutVRwOaKut4f6bLO0qn2W6UWnV/TR6sxx1t/P6FFL++XEXa0eUmhPAyxnXtC3s7bH857ar752L/j5J/B2/V37cp6rendca1Kvj6VQ0aJKe+1y6FWtTflGRsle7cv20433L3Ln+BKtzmzLubXLq9U5emqa1zyt6+88rqbtnN9bm3jUT+uovu+r7up6bvyp1W45WXvhv76gj9ZrjYtl5cRPWpfJGyzvFffXDtQ+LdVMO+DhbZTEjEHDftI8n7zZPv+Gtp1Ga17efsbax40Sx5qf3//3WcPDwzV3d3djTfgY6f/tDOPdf0+3XhONd9FxTOvaaZJ298Q0rdkSD70kItBHe+zupd4FaiPL5NeKftJDu6HW7p6ZrzX4xfI7jQzyVfeSQC3ca7rWdfE9vWzfkv5ahz3q/nT/kb6uaVe0SiirfuCrtK4Lruslh1d8q404FK51U/e+az7qLvpjY23s1if6tiCvx5pvsKadXN5YG7qbJTu1rqM369tun5qh4S9Ne9wH2phVJ/QydRWa+5p+WtM5B7UnT85rLVBQlSj39chVs3iuJ+qeD801cL9Wo8NS5WBOasjVT68TsGu8Vq799+qdh9Y1c1btvjJhT8/TWnl8pfm4rtKcuv+phaqDBPt7aW7+HlpvdZzTD0L0o3q5umgB6gwDVNn2K8p/hwVpDx556MfVgvdpnXtY/a/3jdYGL3vRnz0jIlS7e8/iE7TIc1oF1NPCvOZoHRfdVwUnta5tR1m2aZu0rtOPq9fLWtdaHSxF2h6t67A12s6ptbQhG/m/0rRzi77WGg/9VX//AmHBmstDd+P6DmplSg7QfG4eUn5JaQf1P4gJvy3fol28dMtY+/iQyPFb5Od132BCtRIoVqwYxjA/6uh+bFjQU18vVr4WsmQ4Dg937YU0Bj673UQLi8Q+1TAsmyOxvk/Hubuwb188+D1ZgdFVS+pl3x80KpP7ztiN80gQP56+bfHeXbh2NylSFCgMO/YlIQ3sHaJ/klek834kS2OcO316tLZ/ggS2tkgU9EiPgCVwtOQ3cixCCrbO0xbGgyttUat0cf1cf14DAg9vwdY++Syfr8lQlCx4A4kazIb9nC4oocrqdhurH+NVJHmqTv/VIgR/1wjF1T4N+v1obFHnVie3TWCLyNBghIS/mGORrcoQ/H3sGE6e/gXahkEo0X4RbPYdxKaRVSzXU6cr8pe4olr4TDtJb+yl9suW3XgHxPN4gk3wQspEtvo+0zfvwqmrmeDt+i1al7V8zt/PA8kcH+NPf/UlnD2PPzb9ZDm+Wk7c2o27dwHHhAmNI2ZGULCH8f5FvJzPPj93vrxoWSEE4Vr0c2gmYPd67toY28IOJY1znXkMuJw7gNnNMlvO32kObt9+nkrCqHlwSATi6/934X3CNIk3zUGOCmeikVkphPdJlhK98fWdJiii7jdFirfCdXUvBhJi2PDqSF+jBjgcLEuRThj0sJlep3Cx5jhvEw7/kBcHjeaIFwH7w2NQpKi6bxXujE6XtyPQ7BI0iB8WD7V65EMj5UcK9/wdGbZ8qd/nSpTqg7thwYhMmN+o+SJdNQ23M9bH0lHtn92X+7t9hd+7lld+NimSlLXcc+3PzUFhnr/IFyh77AnSOHyGpDfGov9Sb2z48oS+31DnT5DPZQM2PQL8Xe7h0SMPJE1qgwL1EyFp2qbYnOtXlCiurqlRf9hqSTHd3xPftSmr79t+yCogIh7Gbx2InZevAjbxcHdlH92nFSsxCs2HdNWvIyrejw6izICNxhqxge2+ofr3WaxwT/S8tgKh4V/gxLQv8PvfMYs+Vx+wFcknpdCva8Njb/wVmU75jnUo/91eo4bCxgauf3xjXN8IjPpjLHYvHIrMuQqhbkXL99ik14/w9zyO8v0tPdhxDkMkCzGAkWMSqVpdu3ds1TZv3qzdclfN2igEeV/TPlFfrdfDVVrn0euMUgOXP7TGXabobxk5bjf3sv6ekeNh+8K0umq/i5bG+j8IenpZK6m2Pw3apdXq+acqua5VdqqmvRjMdtW65sqvXb7roYWFhWlLB5bVllwyNimub5qmVen0o2rq7tAaT9hnKXx8SrUYi2mPnmzRWgxerRdd3jJM+3Knpn2vzrfrtl70DK87f6j6LbXHB77WvtlpaTlHx5oJbbXJbNxGwTpyvOiMUWjw6/Dm2qzTT7T26ry3nxqFCs8r+9X3vUhbsu2CdnjpUK3VfMv3pnN1g7qeb7TQ21O0XsuitGRvzNJaT9ijv2XkuOcW/a0eOV5yykWrhsKa70s+gs+DHeq4RTXNf7FWeCZb4ru1tl+Ntmx8xlWta/XWxntN+65DY237HWNFceynrlrnyRu1h4fHa41+eWgpvLFeHbezFvZkrvbl1PN60YYf2mmT/rZEjm9ZgibPcLs0U0P9Ndqu4dCmnTQKDW7s/0Ub98tmbd8lI9rwhkjk+N0RGBj4xhHkiIgI7enTp1pkpKU3SPh4ib2R448H2pObm5v++iZwn5CQl/u2l+OmdRg823j/fjixcaa21vD5m4a31qZtuq6+iFta7YlRnO3/ycceOY4/WmGRycLr2Lv/FCpVKKFP5ZIjZ27kyZNHjzqa/Dq8O9ZeeIR7p07hacnWaFy/Lbx3TMbyc+64fmQ35m4/jUpFkmLTYW80q1cW4W6HsdklLxp8kga3T/wFlzQNMbFbVoxeuAHu925i8YTxSPx5M+we1xUbLrni7qmT8C3dDk2qFsK6XxbCKW8NNCrtgwEbL+PJ9bNYMG8JslWqhBMLl6LON4MQHuiNMrWa4KfhX+Dhw1CcPbsXa3Y8xMjpo5EuaTY8/WsA1p7xxdLFQ1BzyG+oUzw39syfhZu+Lti17Tgc87ZASt9dyFCrE3LEf4ARPbrh0qOnuH7oJIp3bodanzfBrqENcd4zBHt//wU73W1QNuIkuszfDfebF3H9jh++aFQDHjt+Q1jqvEjmaMmNigi/igMXUyCjzVOEF2yCbM5L0HXxYXjeOI8bD0JRu2ENeB9egrO2xfBpqRzgN+yYJpv6voujWC4nZMmcFUfXf4/jd9T3evYMlm/9GyN+Hou8ucrh9IzO2H/PD8c3rsKaK09QPVcQNl5Ng0YVsuPxpe0461ALtXMDx7csR4KSPdCjtj8GrzkFz5sXsHDWfGT6pBwW9GqDk498cOvICeRu1hXl8qbDmnmLUPLTpsjmvQtT9t/D4yunMWfZXyhWoTAOrT6Iem0b6Z/t809y4KfpE+Fy/wFOn96O7dcSYcjQbsiSLi+uzG2OE/fDsGHbSQz4aRhyOWXE8uHj4RXhjL07TiJNuabw3fE7yn09QH3vFzBw8GjcffgI1/YcR+22TVH/i25YPbo77j/xwYYfJ+GiYw7UqVYXFUvkQba0/+5JTbv2nkD5skXhmPDdPop4w18HUKtmWTg4vL1ZT2I7zAXkrBRcYjLbCwfocR5jzk0uOcYfPzt3H0fNamWMtf+WzdsOo27t8sbaxwvtiD05zN035yV/HRzczgdm/bsZmhIhT7zbcElYGOmjnxn1nZMxbWqsWfIT9u/fD7vK/dCjZi74uwUgd8m8yPIW04jPX7yJ9OlSI23aj3PAng0VsvFeeA0jRs/HmO+6In78DycbhSPdaejPkvajwNHy7P6VeYzjJoOHz8K3A75CqpT/fKz42+SrzmPw07QBSJ4s7j1ulfbF2+zL5hEnFNBMpZB5jOMOA4bMxLRJfY21/5buvSdh/qyXzWTwcUJfyAeAvOxBVvSFtEEOkn2ZvxSes3TFVpQomheFCuY0Sj4uJOf4I4cj3fm4WRp9dPBBIHTaIowF4d1AZ8vG582bN3UHHBXOJc6J+EUYC8K7g76QPTP0h9FBX8gpE0UYC0TEcRyA3bR8hC27i1xdXfWbAB1yQECA/mQ86cIVhHcLHW6uXLl0EUzbow3ygQW0SUazuAhCbGDd4Bb6gGtrPO5dh1uMx5dG4t7ib7Ds+D1j/UUCvV3g7GWsRGHdty1f/mCotwAboAwEUSRb+8LAwEDxhcILSFrFG/AhplUIwqv4r9IqmrUZBgeHRMiZ/SXzbsYBQsPC8fSpP/wDQ/SHICSwjYeEDgmQInkiJE1izngixBVu3nbBssVjjLX/Fuu0igN/LMLh666wT5IafVsURjmnckjWfS7mflsMD+8+wpEjIShX0gcJi/ZAoYSnsONOfDzYuhV2ucuge7Oq+jHmTR+Pp0GJUKBAOqSv2AJlUnmje//FmDq9Bw4tXozq7b5+Nte+6619OBnxOerldcb6bdfhfeYMnqhz91PnrqDOnW/4b5jx/VdIrtcWYisfe1qFiOM3IDaL49u/D8LNz6ageOAufNJiPD7/NLveLRBplwRd+49Eubz/clqow5PQan9ODCx2Bavth6LQjoEoM/Qn5P6XT7L1vHYYxRoMR9XPcliuL0FCdPpmDCrmj75L+dHu2diUvBe6lTIKhLfKfyWO23YahbHDu8M2gURmBIFMnbkcM6cOMNb+W56J48tz0fHPDFg8rAEe7ZiGdYl6wGZsIuRYrqH47a9RfW4FnF3aEn8MawXn5ivQN+18JMmwHA8DD+GXGjbItCAIvkNzIN2kM2iR2Bk2Wcph3i0N3ZVeGtC0DqpO24LaWYyTGlzaOxGLQofixy/2o1Kx6Zix7y9EjLLB1DYaKo60QYYZ2kuenCrEJj52cSxTub0Br3sIiJ+3j+br66N5enpq3oHPH2nh7+2pl/kGW6Zn8vX11V85YbmXX5AW6Out+fr763W8AkI1fx8v/b16qxMe7KevP/EyZ+cO0et762XeqkKgNqQUtBUXNS3gxjYtb/3ZqoaBy1HV+KmhBRuX4+/z9BXX9/yzBftZrkHbP1xD212az650WuMtmhbq56vxmSOhQX6ab2CgXscn0HKhkeGh+jqXkDB+1kh1bE5LpW/W8bh6SMtWc4b2bAK8hyfV9RXS/EItlfzMa+EHiAjWfulbU5u+10t/QEh4kOW7fRLHpgR7l8hUboLwfogdU7kd1j7PUVs7wPvqUy/9oRA/ta6urb+vaT6HoPW0PG9DWzG0pTaZ04N5Dnn+4KJ5vbVJm+5o6dN31czZJ7eMaaUpcazzS88vtRm7/znF5MU9E7R+2/hun9Z18HK97NGNBVol9XZ2YWgb+NApIdYjDwERYsyIFrWQtN5Y+Nw+juSOtngSCFzdMB5NZhyEz6PrSOpQBw+DgDkDB+Kcqh8efA1fzr6M2W2SI2n5QfB5fAspEtlh9KbjeLx7Kiq3XqhaL5FoULQ0jt73wbr+ydBn1X2150HUKlUbu5x9sChFciy4HYrwU4CPtzcio+ZMZfoUs9q44lYk4LpzChJ/Ngo+rlf167v/NBTXN01Fzcn74Od2V13fF7gXANw/vAIOSdrrx7OpPB41cvPZncmQ0RH4JklSnHYDDi/ujKSOdfHU2wfJHO1w3hvq+kpj7gUf+FxejBaDl6h9NAT5+am/r+icyFACC9pG4Hqohosrh6HnL8fg5XwaSe0b4GlYJPzddsDNJwChgV6wTZgMZx76YG6zJPjuz4fGAQRBEIR/RzlsOrUYmXx8MChlCsy7FIjwDbsQ09TbV97b3xBbeX6REIsQcfxWCcPGOeORo3Rt3FnYAnMuP0XCTNWwalRDJPH4W23fBj8ljmuXuItFy2/Dc2VbtGpYEHABZs6fixyFCqlbFdCqak0Uqt8MJ9cuBs6PhlP/xahXPAe6TL2EWS0rwycUyFG3O5p8kgONj0zEmsvJkC43kC1XcsSPePFJcvwX58qUDhdsgX41B2PrpinIUbA8gg4NR6mND5Eoc2X8Nb4JUjw5pOrugq+6vrXftMZ6t43IkTMnXNd9g513nk+/xcxI2wSAXdBqDN36J3LnzIExX5aH540j+OVmWXz3eQ7kqDgIRT03Y4tLPKTOlAXxXnmnjYc82TLhiGaDhJnrYfaAOrDzOK3K/4RfaEKkTwo4FMuIiCM90H3lNVQvkgMjlh7D+v49wQdrC4IgCP+Saxux8oQbcuRQ99U/B+G2JxASCPipJerEKsHKtYSFvZgbH5ImO/oU24R9192BR6dQZ9QKY4s6tFsocuWK+RgDn3Ag8CKnPox+NglB+C8RcfyGMN84MiwY69aswLJly3D5kVKTz8iC9Ons9XdJEyfCZh9H+B8fgeRlWmL20TSopMqp54o0GIEtU+dh2cDTqOVki2B1v3HgMxi0SH17PE7DqIvcRMC9h1g0rB8GDx6MVn2not+gtrC3VUIyoaParq4nUWI4qBZ3pO8/b2YWQnHpthvKqhuPp7pPzRrWQT9Wwh4HMCpvKvieGI1UpVtg0q5UqKGuIb46d3jBVkib1rK3E9+EMXL8IupSkUidmyTi446feGHHtl36sblc8A9GqhhFH0Jx/vpD1EAkHu0fgkKft8HySxlQ2tjKz8SPZXv7MOZ3a6Afu0nfOfiyQwVLBUEQBOHfka8Bkt3dot9Xl14pgB8qOaL53kW4uHIeHmfYgXJGvnDOT6qgSnIlhu2qoUJui0DOmL8syqQChmx9hNsrpyJDs52YO6YrcugpqA/hmboyKmQNxPqZExEW8dw5pchQDJ9l5rv0qPBpLr3MMVl+9M0ThCbq3Be2LMNTvVQQ3iNGeoUQA16Xc9z3i0+0WXsealpYkDauBLTDrv5aU5TR9Ic2+t+k7tUuunJ/L23UF3m1fE0X6bnB07t9oS04q95E+mplVZ1zfHy030mtRPYaWkTEHq3ekK2qQBEepN244aJFRO7Sun63US+6e26WVvtPy2Oet93TtOBrW1/IOfa98KeGwj21UHXahS2KaL/9bXkms8+Da9qTYE1rm6a0pj+ROMRFv74L6tx/ja+rDV//SK/396x2Gnod1Hx25dX67NO0garOGU9NOzQZ2vcH9Cra1EaVtL1PvLS26UtrT4wT37t9S/MLs7y3JmrOsd+Vbeq87TWmQNfPXlvTn3rpeV6/ljs+mvZ7W2gzT6mvz/MPrfb3x/R9tBBf7abzAz0/Tvj/kJxjQXg/fBSPjw520zqUzKPtPn1He+CySevcbIAqjNRcl/fXlhy+bakjfJRIzrHwRmyZ0AJ5CxSG+3d+KJs2Eab+VReNc+fFZ1/+gJXdcmHJ3rOqVnLUblkPXUa3h/nojQSUg2ERSJs/J7Rw9T5Ug1MmR8SLVwWT8/yJXHnyIk/eqriano+W1Xd5RqaIMFT8oSG+btYOV0Js4XdmKgrnzYu8aqk38QACT/2EBOo/3WnpcVydXl0vL13lR0TEj8SE35qgmbq+T6oNx4qehfDz5qOo++165D/QRNXLh9W3w9HSyRW3glvCISwYCT4phPBgdampvjHObiH4SXLM3DMJJQtazjv70F04xPfBmEaV4RfMD/SckMszUMS4vlojNyMgZBESxgdmTC6K+upaKnZYhFUd0mPB/qsoWmckpnesBfeUjfBD8unIrfbJU6AebqdV34NxPOHdEPGPFB1BEAQr7NNi8d/n8EmulEiStCLmrJiqCm2QrP44fFU2h6WOIHyIGCJZiAExiRxvu2msvIZtcwdo/sZ7QXhfRBc5Pn/+vNarVy/t8OHDRsn/z1uLHF/doH3/625jxcB5jzZs+hpjRdOOLPlea926tda6Q1/tgVH2brig9eN5XljGaPeNrS8SoP0+wKjTe6bmZZS+Do9jy7VQY2KZK7uWRD+SP8hL+/lYoLHyCs4s1mZuOW+svB5Pde4Qde5JQ0dqV8yJcgwWTRyjnTSnKLDi4bX12qzjxkpUbm7TDtwx3r8nnP+aqq29+3ymHuK3f4b26xl3Y82aq9pPM9Ya76MQ5K2+8wD15rq2eMEWS9kb8lFEjoU4i0SOhRhTo2Un5ExhrLyCs7tX4UmODswoFoRYw7FjxzB9+nRcv34ds2bNQrlyHB4ay/C6i7M3osxU4vcIyw5eBSKCsKZ/Hex2qK2PB1g4pQ96Fy2BM24BRsW3TWH8qM6zbM5QXFzujZ9/U++XjYSeTmlNwF2M6dYZCVr8pF/X5K9SoVOLbxD9A92tuYfhvRYhkr1KeIgFm12inf/V/fE6nLwdaKy9gifXcen+E2PlddzDsF6/wC4+sGvmr/AKNYoNrp87A49/DkVAhrwN0cscMBCFX6bNw+MYP2Xt3eB77wKc/fQv9Blhjy/ixpNgY82afOjdt4nx/kU8XNV3fou/qzxIEfI3trlYyj823I8uxYwZM7Bu5RqccwUCfc5jy0X1uR+dxlUPo9JrCceJFbP048xYsA6+Rul/iy/27jtuvH/7uN46hN3OxorBqb8Wwi38ea713SNrMXfHLWPtLeDy9z+eNHh+x1pccjdWXksods1f+Q/bFiyIOH6L1P6qW4wejlG8Wgu0rlnQWBOE94vL/XsYM2YMXFxc0L9/fzRt2tTY8g65vQADF+43Vp4T4HEXwzt8gSaNG6LR6G0ICAeCvV0xp2c9NFHXVXz073AJiERogBeW9qmDRqqsQJfJuB9kg0j/R/juVnUMalFcP5ZjqhxYt2Au8jipZmiAG2b2b6I+W2PUVYLT0y8Euxf2xSRO0qKY0rAidty6iq/L1ELdpq2w7c5VDO/WTv8umn5ZCxddIxDifgt929ZB00b18MWgPxAU9tzxMcWH41Lh+wAje/A8DVDvm9XwDw6Hy64FuJ29A5qXSqnXzVCqNWZP6gs+dsXz+lF0bNUADaqXw6g/6F1D8V25WmjZqR3aNh2JVaf2onK3ZXDfuQje2T9TDYBgHPu9Dxo3UtdVqyLGL9+FDjk6Y2Hr1Nh2aSO6dZygnyMy/E90m3UWAe53ML5bfTRt3ATlF+6Fa2g8hPt5YEb36vpnq9FtGtx8w3B+5/doOmEmWjZpiga9fsSWZUuw8NQ+VFHn1lKFwNYRuLF7Garw+6heD2sP34Wdo4Ylg7vAJzBMPye5dXw6emzmu0No07Idun/ZFHU//xQXzm3AhPl/Ye7YYXDTa76I943DqNWwkbqmWugzdav6nCE4NrMVajdQ19NxIC67+CAk8A90m3dFr3/sj+EYsTcAA4tUQbMOX2Hyki3YOKOH5f9VozQWH3iEiEBv/NKrKhqpz/RFpzF4oFSArcdSXLWzhc/9i+jfsYH63zZC43Wn4JM4PU6umoIFu27rx7dwHN26TFGvHuiaJSt6Nu+AL6uVwcRVB9EheycsbJMWWy8+RIMahdB/0Gxo2n10n7TesutHgSdGtBiJem2+RuOWzVAsHcXxGfQ+kQjzB3XB5ZiI43B/bPyuBVbY1EG/fv3QqFAgmtXrDuth7P8Fp+cMxE1kNNbePq4396n7h7FicGL9XLgaqWn3dy1Ev9U38HVNywDEt8GU3t/iZpS2btGaTVHIGEz/euxQveRjLN93yVgXXsCIIAsx4HVpFe+ViDD94RyRkRFacHDwC0vYW77kSHUuHjckLOxZl2+MUNf2tq9F+P/o8fU32vfjxmkXL17UB0Fmy5ZNX0wqVqyor5cqVcoo+Xc8T6uI1ELUbyfy2lSt5ZQd//h9bpg4VNukZ3mEa1XV9Rx307Q/vob2/UF9s3ZsRgsNHfdq5xd9rn2z3VJ2YdlgDZ9M1MLcp2pVx52wFEZh98yvtbGbLYNMtV1DNKdph7VbP0CbaBx3coMK2r7H97RWFZpaCvaN1IasOPTCoM9pzapov/3tqb/3W9tNm3PZSNrwvqQVRR2N409X9yymLTzIEbWaFraxq9Z8vbO2shS0MZse6mUv4qX1zvWFptcOOKLV+aK9ehOijShbVNtxmXkMd7WupapwqzahPLT5p0I1zeOK+j911Lysnqzj5vyL1nU5r+uE1rXDeL0sImyj1mr6BW3aF9B+Pq0XaXuGfqLUrId2aFZ1rceKe5bCI1O1bKPVF3m6iNZgrqWLdFKH6tqK215au5QF9PUamYpq51xOa7WrttTXSYvPimtbja/TmpvHpmndN/HdQa1hq+/1MvfDozUs0LQl7fJqqy7qRVF4rHXMkVe7//TZo4s0j9tbtOo/cJSy4sZm9ZnbqTdrta5zL+tFf68dpg0+GKn1Ub+Rv++r7+L2Tq1ivYma9e3l5J8jtWYLjUFhp3/R0HaF5qr+5+PuaNpXaj8zBW51xyzasF3RJcMc07p2nqxe3bUuWbJpzl7qPG671bU0VD+AxVrXZUYqxtOTWq3y9S3v34DYlFaxZXpfbYmzsWJwdnV/9Vlt1dJAmzi0pfYLf0dPp2sdJ49UZZxYqbJ2T/0OL0yqrGVV94gSLUcrW47UvF1Xat8P76juGw20Ixc2aBW7/P6CHbmdMGxU+ZFvmpVV9bJqX/18XS+a1aaGkTrkoXVV3/k97wPasFbN1PHLanuCn2hNihXU70cVvxqp3zciw0K0Gp/mU2VZtOHr7urHCL02XyuUVd3HsmbRRu+2/KaaVumm8d8d4XNTq6SOy2PUGrRUC1cXFuR2S8ufJ4def/6+x3r90EBfrXyRbFrWLJm1+cdp2YHa4GK1tSpVP9U6jlun+d8/p2VRx+B5Z2+9rj050F5rM2KIlluV1Rm6SvfFM5sm0s7xWAenas1HLtOPS/iwrM61Cuufu81Cy+f+oss4/TsKuH9Gy95ri7aiVw1tyT6rHKTIcG1kq6r6dRetUEcLvjLT+B/U0bZsm66NGt1BbWuvjevdUFt+QdNcLs/VOq9cpZVU9T/vMln/nMG+nlrpQlnV5yyltWvXTFtk/L8bNxuouUU+0QZ+Wd1SEEMkrUL4IFjWqzF23FFt/Yu74ODQB5dv3MANY/F4y73Kfwxvi/6/ncbpgxPQ66+Y98kcXjIUs95dz5bwL0icPDtatGyN1atXY+nSpbhz546+mBw4cEBf3759u1Hy74nHx65HhOCu+k2ev3gcK3df0H+ffFiOSaUaJVEvuQ3y2bYGe+D5YID7QU1Q3pi579PSnwIO3rh6KRmq17SUFS5cGHALQmS8Anj4KPr+7Ss37iJ9uvSWlQrlUfqhD4Ki5DXZxI+PxImNOb0rD0Tuk/NRqWZNNGrbnWNlsefWFbT7LDVqqrKGM//GkYMvzsfK6PHRC+eQOrXlUe02VavA7Wowsqnr9PD01MteJDkGjM6GNDY2aDhgEZ7HX4EkSZIa7yy4BgEZEicAUufGrZO10bh6Vf06Nl0H0ia8YNR6kXjqglzsW6J4Cct6lSpVgCB3OF+8iHmtsur71xy+Grndb8I9sChyWObgglPSJOr/FIbQp4/1dRuHBHhy/RqCUz/Pl8iSJcozgaMhTWrLI+Ftc2RH2XjqA9xXFxsd/gE45pwYjo7m8GTA78YhZM1uPJY2e3bUc3BVb/gNvwgVggMfSZ6jIiZ3SISy/ExqOfFQ/SQO/oE1XXNaPufAn1Ex8gqC7QrDVv0vn5T5CjmNIF716tUtb16BjU082PILTZsWXRtmQniI1X0vRQqkDvqvY6HvnmLNhqJrlkxwDd6ATPdX4ilnKY10x830Y7CwXRmsc96H+Bd/RpFHI3BX3SP29XRC5R4rkSx1CHYGNMCtOxsQce5vZPu09Av/ubSffKL+RmLToDoo8vVKdX+5gU6uI7HwUgDCN+20VDKwTRAfF0Ly4+adI8izbiSqrDmk34/Wfd8GT0MC8G0Ce4xae0GV3UK2LV1xLMQXdvkWY/tddR+7ewNNM96Bph2GX4HPwH/3wZ+nosdFyz3u5x6l4RPqjp5OubDj/G1V/xrclo/FBXhjeOk6+PP8Hdw9thCbJpmP+L6Db2duxaIRpTG0bX8cv+KsjnMZtfIlgVeAP5y1mrjqfAdFL4/D2htA6K0A2O0fC7uKE9G3T2vjGBGY3awKKo3ep19Dp3s9sdUnEEV//g477qr7xP4W6Nq1NlrO2oH2lbMZ+ygOjUFo/e/1fY7+MQtumfpgUpUc2PNoM0pgKU449IbznSV6bDzQUdlw4vvYtNcBR2/fQZN4G7HgmBtqJU2NXw/cxJ2rO/DktzWW4yqyh57E8VspMWXji999XEfE8Vtk3dxfsGL5QgwfPhwLDz3vc9o4d7hetvysJUlv1cqV+qtqOePHtX9j76q5WLlpk15nxva72Lx4hv5+j5HD9PTUan197MxfLQW4jpVbtmC2Kvt+2lxEuu3D5Hl/YerEWYhI5oC89YugkBIMFA1c0itfRxZOH6MfZ8PZ54lKq+Z+r5f99rfhvH0uYKJaZ9kqvbflKRYs/kPfpON5BJMnrcKFzXtgm5uuycLO5ZZrXnDw+ef+0/zcZ4IB73MY3Gkydi+dihinRAn/CclTpMS4ceP038rMmTOxZAmfbvgiqVLFIF/oNURyrtP4DsijzlOseFUMaFRKP6fT82fMYPHCjdjmp+FauHLGap0zs6R88gduGV2WXt7eQEB85E23EVctPezw9VUiNQcPXRLX5jXG3WeaNRQ7+5XD1N13kNZnK3x8jSzf8+exKSwpNHUoLy/LjKreoWHKgVu78CToOH0ZDu7Ygf7VI9BnXwQynXHFrnsadqiyXYfOY3n3FxOAaQ05M+aAv78lsVY7dRr7E9uhaJs/8OjwVr3Mgg8GN62FXdddkK3NSbhFatgwtiVelTWcPpEtAgLYyrVFzlKNsWf3Xqz4qTPq56uNcNvnXbWBeh11bnd3nA9zRFLXlXDhQzUVnp7sg02DFAlc8dNZy+fYse8Eds7phceBeSyVXsDiHrTQcKTKmhUJ/JX3Ngh6QzHI7ybyxUlrnmNvjxQ4jWA+ZcLAwSk3nnoa95JHj7Ep2EEdIBJPn1r6kYN9fdVvw/r/ZY9PG/bGMfWZlkyojU9rzkLarI/w/THjc+49hgPLxsHbtjgi1MeyObYUHsbhPTyia7i8Gk2JnGcEBsLfTjVcPkR8r2K5svcp/WdizZxJuu0/ifKvZWaA1afVG042N48hXP1L/FZ0Uy1Py73/h3XHEO/BXvXPUY3bIkXBLCM7u4TKHqKJzkSGYfGvO5ErOxtZdshZ6xPMP5cICaJpc2XIon576jV1/R4426Ex+vFcyk+mDffAFKTF8ulD1flH48hTf6w7kAh/r22Lwe07o1vXXnBJkhc2HteQLouloVWkeTtsqloRg9UxfruoqXvLLSxGdkwd0k8d43tcvHMcu48mx7C5jdG7TTvU6TcVQerzmqRxSqluGm64q2SoU0L+/hIjR/b08ENhlK1YGfFVUa6seaApgZpEvW+xtQDO7BuNyYMmWQ4QHoYp649j5+JR6nwjsOF+JP7YFoJvNn2HyZvPYc/5vOiu2vr/oGIX2P6hhL267om/bkUW5dMjbexBkwoJPocCxYu/cPdKEHEQX9aoDjv1W8+cqyAC3DxwN08fZEqpvsmEKdF2aAujJpAtqQNcXWOSIxO3EHH8Fjm0aSHmXk2L8YO7olvFtLjhFYp9M/piR85BGD+yH9qUcMAt5Z/vTm+Fzep+bOO9A+u9suDijJ7otMEd40cPwje1suNe/sYY360c2jfoDS3SBUVbrEff8ePxVfaLqDFop7pRuWDuqN/w+eDxqHynJ7q4fY72ZYFhk3ojeXB0YeIwbO1dATfyd8b48b2wb0I3PFK39/1jmmC7XU1VNhhby6bBZd8QVExeFOWGj1dlQzGhvg3cA1KiW0erQSmpy6Fbj/ropVq6nwSOxsIgO9xfNRhrH+XQjxM6rQF2XnuK/TP7YWuOARg/Sn3ukgnhbFcMo74vi2pfDVS3MyE2UqxYMfTt2xdlypTBoEGDsG3bNmML9IjFWyVnN0ztWtlYeU6+/7F3FnBZLF8f/9FlUGJid3d3d2K3SNqJYGIgdmAhqKAodmEAio2CKIKEGCDd3X3e2X1WBa/eq/e9eq/+9/v5LMycyc3n7OzMOfXLwMn6Ms6d3oLmneriue97jN37DPeXjcWFS5ex0OYuxlRNRaOZ7/Bi0QCcOH8Zqw6cR79aypBR0QL5HIfJEnNcvnwZR9mPvUPREOj1qIXxFo/hZzefyc9Cd+MbPF/UBGX6noCf7WYmO4hn4cnISSuxRC7gLAxWbefrCQosxIC6xbDwcMDJbaa8bOXwTjjh++k1r1o7NX50ed7GQ3A5vJLlccC0jexHdGJlKDUcA7OB+Zg435ovu0Z/HsoOWYR+tcvCpG82Lp68jN2H3KBcEIm3pRasqaCMYhLOugRgpJ4BnH3eMmUmCsajx+DEuct46OKLubsMkZ5TC363jiEkoSKqKYTgCNvH9eZOaK6YjiVHXXBplT4unz2FWfb+0JPyR+8lnvDaMAGX2PHcOps9a867C+19oihHClW6VuPbLl+vKrJUu8B0sBSMDl3G5c1GuP2We84U4OXdm8grMff6azSTS0b5buNx76YTktg+XHkaKaQw5KrB7txqrLU+zo6PHQzmrUflhqNQ4+4U7Dt+GZtYm3tubGNKWjvkuB3Fycv2cLj4ArL5WZBvJij1cS9hNEOPP75Pb7+F+er2aKbzGEHrh8HxwmXsWjADK4+58Fnlsgph98QeNhvYebI/AL3z0bw85pUnfELZG9M3kJlTA3637RCcwN7EYkLhXaYF05jT4eLxRsjxi1CuESbPnIllOxdg3JwVmMnCGqWd4H0RYm873Icg6UrA2s1O7NnPfjN22uHBdVukZX5SK5q27oKAGxdLeDPNg/2CQTjgKwU19l5aUCBRPPPDo1BXrQgFcSwHdz0xjTw6/NPLGIdimSY4/OgOdrO2NJ9Y4vBbRVRkL8AmG7bz7R+75I5t/WXQUWcuTtrZYuOi0TCuNgjFWlVQyF5gONSrdYKD1wNsZfkTbPRxNbE8qqAGLLfv5us4d/s5Fjd7D7XuG7Hbzh7XrVeUVpK4/ZCXR/r7YEn4K0ixQnkawPENI9Cq51xMqfcas3awFwdZeVRHOSzYsI9vb89xNxydoIaKQ8ei1YsdcI9oD1WhjtJoY8O58zjIyrTMvgYzL9a82yt+nUNJpfhrKKgo4/2bQHa8JfGSL7c5hYXs/ZTzQiZSCmF6hcg38Nem3DqRizDFLemULk3mJ+UVUUJ8DD2wGMrdSvQqiSjs5mbCKk/yXQ26FZtLm5qAbF6yrMXp1J3leclNH8x8xvL3ILo8lXpZP6a46CiKefeQryMpu7QTkP4XibZWBF2PIkr0d+XztG3XjtqxbaTxJqL0KCarR0+DoykqJp6czUFzr+ZRNZbvzts4ioyKIX+HVtTgcAadWDaF0HAFxcTEsHb4Jv6AjdFwyfy0INDoK0TsHZRuvJGkpb+wpObbuHlIxfx+P9ws2e8Att/XVoB2PpbkE/lv8K1OQOzs7ITQ30N0AvL/xZsMDbn5r78B2THUd57g2Og34LrVPNrHe1L6Pv77ptwk834jM4kODQRZPSdKCd9H3W3SyGYoaNyxN5QZ+5p/vj97G0F3DpvRiDk7KDPhGOkfFea0M4LsjanOIleKiIigS7sW0Qg9S0nC412srCmTe1JZVkd6dj45W04nGJwib7dDfL1RmQ9If9FRPnv0mcVkctWPr2eZNuhyJFHw4QlUdvNNXmY2sg2deJNOI3sMobuvIijZw4G0eyyggmKiPjMtKJ/V4b7XmDY+jODzD2D134snemTeiWZcfs3LDAd3oWvBUdSbpT19E0d7dbuyfnSijIJsmsVkz4V59jfNR9OSO1w9njRuphkFXJ9HS10kaUfnjaLjr9hvciv2rp7LtcqRTCa929ORuAwKO7eE0Hsz397O8Y1pr086n2P9pLZkclmyNiEzMZYyckp40XqwmfR3XeTLXJ8Asn5bRBasP+uvRdELJ31aUqLto35EMQEs/znO1CDR1W16ZPGU/f7OK0+m970pwlVybO2FafZTB42kJ0lFlBwXKxF8I7/7nGNROf4OOOWYoyAzkfp1a0etWrWio+6SxTccCwaOIU/Jeh1eOR5/N4O2s4fI4hvplJIQRV3ZBRnI2QYtCKCZPaaQHlNYY7OLyWIYu9i/4CEP6M0rx51snlJyfCxFxydTQgJXgesfPORxyjGni2cHXS/lIY+HV47r0vOweF7pTUxJ5z3mcTfI/ZAkXhbPFKTkLE7xL6SkuBgKeuzE0vtQbI6kipL8qXLsbUnYnkw7R7P9vi7Z7x4s/VWKqBz/FxGV418HNxtTyaKoX5y0sNe0yfsLD5ZfEh9auXgfe2p+P/995biIUthvAzcelJ2WRFlMzysqzKIU9juRl5lCMXGJ/H4XZCTwvyExMQn8705REZen5BFh9cRy6WyLSyp1rFKTJL9JyR/z51ECi8clJAht57LnhkTJ4xZ0xwn1JKZ+8hKQwJQ6XpYsyHLTJG3FxNKHai3H9CNnbuCqKF9IY21mSK7B4qJCihXqTU6XyPLTJfuUnJ5NaUxRzWQadipr58MC9OLCgo/1ZOYWUH5OOqUKbl+zUiTHKjM5jvK5VXYCeVkprJ1UfuFdSoKkz3HxaR8XKzrstKR3Qv1ZKQmUxeotSUpinKRMgsRKel5GIn88c0q2nSppu7Agk1KYbsGRk5FCmYJCkMD0iFwmdjDVJzdecpdmr3ViZ6iIUhM/6TLfgrggT6QURUXFkFXRgOuDp/D29sbMzpLFNxLCsdXuDpAaBo1JR7C+hTw8rgH9upeFbN4zPGI5crLzANk6aFvDD4ErbFFBSQqKVQYKtky5WZJMk+TVVkLzKsWgYRbItTmI3AoVUaHgPTZssUNOUekPKRmFQHYc+8996eQLf0ZZLdyYXxkPXqehUqVKcD+yErfjJNMq3DxCeJn/STPcicrBoc3bkaRZCQ1ac6t43PhPxV+ikLWZlj8ZF2OBraeX4/ylK0yahqNrrsB1KOHZRaBvj7KQy3+G+ywlN6cY+SlAUtK32lkVEREpSe/ZFtAVFtf9ypSrXh9mrX6Xz7gtsHHHHH5+7e+HNFTZbwM3fUKpnDqU5ZhERhmqytKQV1FFJS0Nfr9ly2jyvyGVKmnyHl+lpbk8JY8Iq6cil842LfVSx6q8egVervYxvzw0WVxLU1NoWwGq5ZUlSVLS0BLq0Sj/aTWtplZFiUxNkCmUk7RVqSI+VDtvlwk8rpxhXZET0libZSTXoJS0DCoK9aqVlcjkykr2Sa2sEsppVISKrBTKs3bkhPqkZGQ/1qOiIAs5xbIozy1YZCirSo6VipoWuLWiH5BXVmXtlOenQahqSvqsVaEcH3fcsQavFRugjlC/sqomlFm9JVHV0JKU0ZRMvJAvo8EfT8WSbZeXtC0jqwJVfk40Nx1FFSrSWXBePQKLV6zBfMMJiGgwG72Ri+OTD2G2Xk92hqRRXqOkLiMiKsf/MA0KX2PtrqO4/IpQX00eR17dxpOta3HgfBb8zm/E+1jOyqcC2g8ZheWLu/MnoFXvkWjFLewuloXR5g2owF3oMhUxZ8UUduNWg9uBwTi0di02WN+F8bbFUJKpjj6dJK45y1Zogbn1ijD9zlEEXLRHUrm6mDZcshjiE7IYtOcBygaewVpWT4TmGAyqLIUea86hafptXuZVNAQj6qnAcHJXOJivxVqLo7jLFOhqKimwsSttu7Np7+FoU4Z1V8MAZzoWQnv8FkysHs7q2QkVk6vo10AdB1+5wYPt975zWXh5YROCIyPQdf49yPgchzj1/9dj+vTpQkhERETk10JZuw/WLhovxP57TFyyHuuNRgqxHwBTlgduuILjR6xhbX0aK6ZzFkMUMe3kaXSoWmJFtMhHpLjhYyEs8hesWncI5qv1IcO9Sn+BhYPaY6DVUwz8CzvfiZHvcMnBFnorhBWsIiL/EstXWsFkyTRoqHMuKX4c02abw3r/KijlvUX/LtNw1uspVP/G4OHu8X1Qb4MbhnzJuIKIyC/EkhV7sMNygRD7uRjOs8QhqxVCTETk+zl+6gZat2iApk0Ek4u/GeLI8T/IzmtPMOAbrhONKrUwa/lmISYi8t+Hs4H8jyArg0T/EpYKRERE/kXuwcjsNB6fNsN6bv7bl3hogfulDUd8xjW0qF6dt309XP+wIPtxHL72Qgj9NQnBN1C7hqRvaxxEI/si346oHP+DSMvI8HZZ/wpujpMMZ1BeROQX4R/7wFRMIMRgxXFXPLm2A+OMdkjkj3dAZ+UJPHlyGpNGLZTIvG0xZtEuJruMKf1nIK+gCLlRdyCjBtzcootl55/gyaV1mLryJJ/9yuYpcLv3EE7bdGG4g/NhnAT9qtWweN9V3DywDBNW2PP5REREPkAoZvdk5wkWWNNDEJWiGBs3XPmq1bKMMB9U0XkNj5BwhIeHw6RnFAbveiak/ghu4flziem9v+LRseVYd78K3oVK+tYiwhYGex8IqSIif46oHIuIiPw82BOnEOqwmNIXnYYuQafCJ7iWkIJJXZZi44KJ6NRpAvR6pmOTRx7mtNHDgrnGTDYSa2aWxTx3aci/B+Sin8HKTQrbdDqh06h1qBfJlN+YdChWGoc+PbshR1YOoQF+fHPci+j8qcMxaPpYyLzy4GUiIiKlcXdcgXX3WCDpCYzmrYOVlRVWG+rg0kNP3L/1FFcvOPEeKzmSPE9i8+YtOHv7BaSkchBz4SKS0iV2c7tMMseNRW358DHTmVi42Qoblk/BobsxQMQ59OwxGOs3WcFsXBusmL8C21g7+pNngPN3lfTkOKYvWgmrLcsxYf5eprcX49I2A5iut4LVJhMMXbALjodccHjdRtz2Dofv2c0Yv5albdDD4l3XWQ0x0KvVFqY7duP+69e4yNq0mNWS9xTJMUbfEmvnd2f6fgFslo/C0g1WWGk2H4dvc607w2DTbT7fa/ftmHO9GJsGDsCcdVtw/uptWC2ZgB27WFsrpmLRATcUZMRj2aje2LTTCgb6Brj1Kp29uD/E2hWbsO/CE74ekV8bUTkWERH5S6pVqyaE/p/wn1YaQE5O8uipWFkN6cm5eMXCsrKS1dnlalRGbIoC/4MpryBZhq1YrxYCY6UgVR4oio7HzVs3+EWC3HbG0x0q0uUQ7jwCU6ZOh0z7lvi4lp01J8UNe6koQ1x2IiLyZSrJXII5t4o79C5kazTFzHnzsOHQeYzq1gE9+rXHmOnDkBN6B/pDpmPxk6owNTXBuL6tUKZ6J1DkMpgvMsTQnqNw4NZdhHFWkxLP4EZ+T+w2nYfVq7fAqPd4JJAMFKp1xJqV82BmMgZ+WkOwjLUzsq0Ujt9OxfTO07Fw6WrMM9mKhQ2CcCRRCueupKP/zEmYt3ILru1ZhImGA6C/bhX6ts6B+S5PnDafh3mrbVAx8BxYFcgOfY4FenPRo0E2ohLLoNRKCg0NVGH/chPc4Ky+GNtXz8OmeVNg0G8acj7z3pjInk9FLq4YMMUEOl0qYv7OZIw2NsQ8yxPYZdwHIZ6HEDHaHisXz4P18qHYvXE/FKt2g7nlSkyuGYnpkwxwzN33z/yEiPzHEZVjERGRv6RPnz5C6P8JEVLxBNncj1FhHl4nAt0bqEFvUE0kp3FjU0WIfP4erRsWYUJvIIF3eVyMhIcvMKp5AYqYFi3dth0m1WwI66P2sLe3h+fTAHQvfIhDUaY4esIeQ4pzEU9/7bVNRETkE2s5s51tzDAg+wraN26Mtn1Gg/PonRf5FAXs1qzA7jnp9144fjcIqakZvEvpovxsZGmNhA27D6/du4QxWnmoWUYPhX4+OL9zBhqzehp36IdGjRKRnSWFcuU+qataWhWFEKOgGNyM4NbVlPgys/bfw2sfKZx6tBWHxnVDw/p1sdQp85Oy+T4ClzyuoAlXP9vs3Z8i4j0kpuX4l+wqUFZKY0+OEhTlIy0jE7KhZ1FOTfDTWqkipqhnsTJ/VIW4tspyFWo0Q3rcOoxr1wIN6tSAg3ce8nwe4sy06pL9G27CnmcxfJmc9DQkhb2El08oGnRp8U3e60T+m4jKsYiIyM+jsBgN6tWD3sB+6N65HapO3IxqUITx2SfYPHcUunfvjEc1l2BmLRlMd4rHdcvJTNYF+2GIRY1kITuuN/JSKmDHhSVo16U7S+uO1fa3kFWhPUza3kfvbt1h+rIO6kY64abk90pEROQ7GLrmBAIDA3FoYSMY3ZYGcZ91eKrgEJPn2Q9DYqI7tm4+jcRXJ9BqxV0hHajIK7z5yGvfGfprL/H1fNhqlPlseLYExWXKoi/77x9PH/Nv7celaOPMk0D4v3SB9/CySM8D4jOYylmrNqZ1HYWAEvXPbAUoNWjBFWJUxODWstjnJUQZ3mctoNrVFtKNZyI1IUoijI6BQ3JFFBYVIy4+lhflxsZCqrQtVJTV6gyvl4HwfX4EU9voQaNrG8y9WfSx7btn9iLN9xC2OgdBttNiJnNBZ6GsyK+JaMrtO/grU24iIr8a32rKjRuh/f/YOuZMue3dsQSq5cXJDSIiHP8NU253YbAiFtNa+OJWZUusq+uJWZuOQ1VJAYXpuTDYsR8BK3vhjPRYHNk7BxL3EyXIy8DpS5tw3SUVFdSUUZCdj1ELLdC7YTlc3ToHp94rQLM4FyrdBmFNl1zM2BqNcwcXIPO5BeY918Ex/fq4sWsmnrY8hsWVbsN422loqZZDYngGTI5YI9J2IatDFhqFmShqOwk7ZtXDyEH6mLxiJ9oWPMKcMwFoyh5d2TIaMDOfhU2tB2GTtw80Ob8hmbGwPr4dQW+KICWdjXzZ+li6dglqKhXh5vaZcHinCWW5PIyavQqDW6lgyRhd5NTQYrp9FqQGHUUVq87ofNADvSomwnbdQrws0IJsUhxqT10Foy6VsW/uaLwq2xL5EfFoM28x5vT6DTz0fAe/uyk3UTn+DkTlWOR3Q1SORUT+HUQ7xyK/MqKdYxEREREREREREZH/EUTlWERE5C+ZOHGiEBIREREREfm9EadVfAcr1x7EU+83qKAufhoW+T1wPO6JxKRzP8V99N+bVvECBhPPwNrxe12tv8O09vNw/OlNIf6tpGD3yDGYdPIOtFSAO0dNcS6qGXQ6V0SQiz0Sm0zH2un/kOWObyT66lI8UpuDcd1qCZIPvMeGBcewes96If4Vop+jweCtePbsDMpKrOX9Kbe3GyO2/wG0fTwDlzocgGkrbgKnhKzzetigYgrLQbUFyQdS4eebiGYt/ug7PzPRBStcW2DfpEqC5L9B0GVLrHzaABcsRgkSIDkqCEmKDVFPQxB8pBinjUeg8nIn9KgpiP6fiNMqRH5lxDnHIh/h5hwb6o3657yFiYj8yyw13Y8De5b+pXLs5+eHZs2aCbHv5w/KccoLuIVqoE+r6pJ4CXydj+H+mwygZg/MH14Mg1FW6NyrJdJY2uTZ86HBdDV/VzvcCUqHavOhmNZToqiF3j+Oq76pQJU2mK9T8aNynOZ/E+dDykN3eGdk+Dnh2N33KFuvG2YOaoXU2Gd4kt4Gg+pL4bX7NQTl5GB1v3EYefAuFnQMxfzjuTi505CvH6wHVltPYNryuShfXIhT9keQmJGHdkNnoVNtBbjZHEGzSYZMqU7BTYc7GDipGR7fe43n/pkYZ9gftw6dZKo3ULnVIIztVg+FmUk4dOwUitnzpK+OHhpXUUJetDtszz/nzWT1njAfTcsnooliY1zPjEdN6UjY2VxEOkur0XUyKsedQIfBG3DsiguqxT3j264otD1oyhikBTjD3u0N1GSLMW3ODWSTK4rePcLRG96QLaMBw5mTIS0ViZsuAch6/Rpx8kqYMaY9Rmi1ROHCY7DRnonzvbJ45fjeRVu8jCxAO+WH6Kx9CiFqN/FOsTX6Nf9gjisGN6+FYNDQ1rhpZQuUL4+3qanoPmIKLi/TgPm5oXgeaofWNf6gdeKlyzHce83Od43umD+iJTvMEdhrf4lP05luhCrlM3Dz1AMMmjSSScJx0y0NzatmIjg+AT4+0pg1sz5OH3NGNkutP3g+BjL9PDvsOWyvuENaXhkzZ86CioI0Xj++CpdnEj/IU/TmI/nmSpg8a1tKOY4IuIvQMr3QrQZw9/xx+EWnQllTGzP6aqFrxa5osO4czKfVxP1wTUz/f2rJonIs8ivzuyvHnKIn8o2sXHuQCguLhJiIyK/PMrO9lJiUKsS+jp2dnRD6e0zVXUcpqRlCjPHuEC2xvitEPvH2ylYaNucAC+WTrfEs8gp9SB3YY8olhijixCTqcuAFBd/YTXV1tvL51/TVoBOPIynKw5HQbhHlsdvzksUycvL1opHlOlJRXAD3Jkve0URZb91YuCGl5xFdNG5Liw8/olR/I9K/XMjXdWHjDNrvm0YzWP5UJjpnXJtWnX3Fp5WmkIL2jCaz8+9Z+B3NHKBD0TmZpMvK+bB+sr0g/R6j2f/L1GrABkpnoVt79MjyGZdGtN1Un+68z6H9HUDHIpkg9Tbr10hKT33N/lcj/iiFONEkk72UG+NJjeZf4yRks3Q82b7hgzRjZE/yjfUl/dHzWSyTljSt/6nt7qOoKOM99e6zlNhu0929eqzeweyI5lIr1CPfHKKku4upw3wXJnOn3g1708MEouDloO4uuXRyKuh4IlHOHNAM1j+ndaNoxVF3opRQ/lia3AjmGvqMp6Q/YyP7n0R6lavQ5jthlOJ5jOXXIyqwJ307bkf/yFun7TTEaB8LFdDRebPJ830ybW4DsnvBpXpQp2ErKDX/Nen3Hs8JGPdIf4k9BV2dRN2Mz7Mzwa7h0QPodhoL5MVR6+bNKTojlZqyfrqzA1nov4Mw6gzlvr9IY3Q38zXQk1205rQ/FdyaRqNNL0pkAg8dllMzVxbw3Ur6+x/xMl/H1bTnSSGZ1wLd4075P8Rik91C6OdjMFc4FiIifxP7k9fJz/+dEPv9EOcci4iI/BTkFRSBjNfoVaMGpOoaYodBL9Rg4W3uQgaG271HGDTDiIXkoLv/CNrWUEGLCSboX4mpjVMmo0lGBo4tWgiLPctQVFQMc9tNmNr5IkJuTMSaLTshz55oI023YmhzVZTRTIBMxSYIjM5Gq8qAxy1HrLj1CmXlgVEr12Kn/mnIKJT+1C9NxfyobXExEBcRAjXVPxivArIi0GPBRRj340YO62D84LLY5aEIJUlqKdoNGYqy7L9a7WpY0XYK0gsKsMTCGr3wEHM8x2FGVZZYvg92T76Mo+80MQmRsHsbg6Lqg3HSch4Sk5+gW7eefF2Vq6pj9og1rG/FsLlwBx8Hbb+AtOtCjNw2B2y30XOMAfsrBTgvR9Xdh9CcnQa1DkuRvHcAQpOAur1HoasmoGVyChSUzs0sQW4O544FqJkFnHpYATNmdgZUayDz3Gyu+j9FSloa41tWh2r7dtAfKoXiHK6mL3OXne/BM+ewkCxm7rVBe0VPeNRZhuktudQO6Cb9AA8iWYc/Q6E4DN3HjOGdPtTRkMO6tcdRLKeJ576+qPx8J8qsOI3OZQCZRkZoc2k8/JTqIPSIJe6y41/QZg7WjW+Cd5mNJJV9xhg59qd5czyz2A5/lr+RzhrM78iOaZ32kgwiIiK/PeK0iu9ANOUm8rvxr5lyC7bGUrcG2K4vUfw+YL2YKTzTLmA2rxxxlJxzfAMGW8uiyunukN/xCoPUcpFFSmjWogHuz5fCy4mElV0kpbg5x1Na6mHr7eOYucQR5+2Xw+ugHm7Vs8FmzttAgjOktG4i/Y0algauhvUIGVzcNBPxQ3fhSUs17MwjZJ/XhWXSVOyf96mPDhaGkO2zAuYda+F2GqFqOeDWAQPcbnwAWb1koRdDaFHpHQx6msD63jQYWNWA9TxuZ4oQFeSHhFxgYs8ZOO++F02broGvzy4UkxRk5eVRuVZjaCjlw98nAN4n5uKCnDEuzX4II58dsNbhHGIXIjzQH/GZOeg8cAMCwi2xffoRWF+wwNJmrTH11mtJ2z2W44BBJg40Oox5rZgCH/0cUlXXIt+5PuQvNYSPQVvkFhCUFOXRtHkmjOY8h/X+uchMdsQwx37Qc66AHGvCBAsp7JhHCDTSg/kdGzRgPfj6nGMvGMx0hfUxIxhUa4EVfhGopRYAg2F7cfBURxhd7A/r6dybQGlsluqAJp+HfitBEOuMkQvu4PKZrXx01eiu6Lj7NJxmLoW122kmuQ+DpWEw7XYYtmUfYWNvLlcBQgIDEf7mOXotfIQs+1pQ2S6NlxsHI6+gGErKiqjTqAmkM+PxKiQG1yey87HjNRZLbcbkB8NLTat4dNIEblW3YC075SmR7xCelAWrHi3R92Uh/GvIot97+i3mHI+dbAZj/TFCTETk++k90Qp+t1aLptxERET+d/n/KMZfRLMzRnT+4+KtDu2aw+3CWRYqhsfx7fANTZUklGC02Sa8dn+Dli1bomLcLTjdD0CTsTbYvXMX54UWL68dxa2XsZCWV0QVzWrQUboOO9e3aNVtJCyXGSK7AHhyxBaGuwYjLbcO3C9fYupVCh489mG1E/LYX27kWHvEamgG2MLxaTLfrs+Vnbj8thKGdqiKI2sG4OLTaCaNhsudFExrXYCqPRogJC0LYe6PcPg+N0P607iD/82TCNNsyfdZZ1B1hJVpgc0N7iOhYgte9vK2E6ITo7BgmTUatWyFaStW4uqWW8grMxaenk/4Ou6eOYHU6i3Rtn0nDE7xQmo2kJvLtG3IQENTCsGpQtsPIiE1wALzW69BBMvj6+bI8hSieIAJer54iAqtWqNDmzqwOXQN6UxJLklmIXspCAPSWTn5DCBEFpjSOwcOxz1ZYhx6jrUVcn47RcWFSEpKFGKlac+d7/Oc0lsMT4edeJHbDHU9tsH5HZf6Co/zW6NNBSlQQTwS2PH0Onwah58poyifdU7glLUd5Bq3QM8hg1E17BiS2+ii/TU7KDZthbZtW+DA1hNIC34CO5cgtGjRAmbntuLh20zOWeMXWceuD7y6CLcYOT6/odVCvInj/L4BOTk5fJ5fnXUrZ6OoqEjcxO1vb/fOLECjhp8vEv59EEeOvwNx5Fjkd+NbR47/v3yPtYq7tmY484wppE3H49DcWrDZ+xh68yexlBewuaoEveEN8fDYSpz0TGKyxth4aD40Wcjv9BrsvxcP1B2AQ0s7Yf/KY5izyZSlvMKaTV5Yv3Iaku/vh5mjH9Ta6GCzHjeEnAVb46V4VkxowxShmv2NoORqCIeYXti1fjyUmEq213A1AllOaHTEtk0z+GkSKCrAhtXLEZWcg0GGlhjRkpt+4YsVhgehyOqpGp8N3VXdceRWBegNrAmkhMDQVDIa2kZnPvT6NkZBKlOGTTfyC/LajzLCrAEtkOF+EMtO+LJcqpizxRLN5OMgpTwUEbleqJb0HIbrbViaFHoYmmNiSy2ctjTEyzLjsXGuOsxKtK23dgkSH9lilcMzVKlSGymZ8rDYvBC5vhdgevgWq0MFuvu3oZ3MW9gcDYXerAHIzXTHiad10U/GGZZXomE4SBWh9XQxsqY8Tu9chntv8jFwYBNk1xyBZlFX8VylH2b0/DCMGgybgy+hZ9QPNkbLMWL7AWipRMBmqzOmz9GBmakpBhjMg9vhI7Dcs1MoI+HeETOc9mLnu8k4HJrXG0gMguGq3Xzasg17UKeCAqJeXcWGPTfQeMwYKMUpoGe9aHirTMD4pixT8C0YbrvAAvIYtmYvhlRhyn2gK5bvvcjLJlpYoId6Gdw9vglnHkcwWWVs2ruWHYvL2HDEmcUlqLYYjhnNUuCvPhk6jQGrjcsREJkOzdpdsHH5VKYvb8IeT1XMnVwHZ15Vwwa+8b/PvzlyLCIi8ueIyvF3ICrHIr8booe8/z7vj03C65bbMbAV0/p+cS7YH8SY6dycchFRORYR+e8iann/JkX52Hs7RojEYEG7dmjHb7PxVpD+KApur0HMpy+Tf0ESTIcKfRuzE5mC9GeSnfIMqy99OFalcb19Vwj9Ce/vYuTMDULkG/A6iIdhwJ3d8+HA/pck6PhiHAzivr1+zhOYWl4Rwp+RHIzVd7iAJ7YfcOFFIiLfQq2Zx9Gh7h9NoP2KDBwzRQiJiIiI/HcRleN/kby8qwh4y1k+BbbNN8Lsa17w8vKCi6MOzKYu5eU/hgTMnX0SRd/yzSDRHXpG2zHZ+gHft2trtTBp2gbe5uzPIwV7Ji/A3L5aQrwkj3Hhwksh/CcU5iA24Y/zV7/G1g2nIKXKil2xQmahIBQoyEj+w1xNCZ2wecUIIVya168uIoWfrtgBVVOdceM9LxYR+QZkoVZWQQj/2qiU4SeliIiIiPynEadVfAd/mFYRfQ2zNofiqNVcSVwgOzEcZtOmQbFNN6S+f45Q5T64vkcPu4x1EFGxA1ITE6G32BQ3zYfD4mw+bvtdxMWxjdDzaDjGdtIWapGQ/PwCjG0eop5KGmLLD4SN2RCMb9sG5btPgGr+W/gUNkGzyrkoevsADfSOY3ZbeWyeOw0Z2h0REZuB5essULfAHbPN76FBDWlExSVj1PBOWDFsKjqvuwjLWbWwce1mlKlcA57hKrCzMoPfqVU49UYa1cu1RH+F9Xja7AyWDP80vy4iLQ3a5csj0fMURlsFoEetOBSqj8LmRW1hUK8XzF8EolIZHxiMO4m1Gxpi+c5AVNNqhEE98mF7OgY1KxXBL00N+zctQ5TTZlh6ZqMJ/FCu6xosG14V1pvMEIkq/Cp7lSFbMa95Cjou8cXzK3Phe34jrO/koXKZDDwtaIzxNd5Cd9Fp2F49iqeL5mOdzyuWxrXtgH3HVmHPPH3EVG2AF1f3IVJjKl7f3gXbpRPxXLYBkBqJkQt2Y2ATT4wa64hGNaohLtQLczcth3HDPtCcb4PpRXp4tZ4w4/VZWJ59CPXiYmy0PoCNgYTBvtZIazAaPRtXEI7MXRisiIW1ZRfMajgI6n1Hoyj5MSoOWgL/ZUNwMq49/OJvo2moDaTWKyDn5ABsu56C1RPbCeV/Pt86reLp06do3/7vm7L6NK0CuHPyOrqM7wT350Xo3eELCzqyE/AosQK6/tE/CCMWd+7GoHevD+YNSlCQjYeRcuhWi7PF9TlJeOQSjK4DvrwP96+cQc2e41Hjb0y9jnn7GGFKndGxmiAQEfkGxGkVIiL/YTjlWOTb4JyAFBUVExUXUnCAHz13tiRUmEk+Pj70PoXJBR4cMqR1jyXh12dMCV12UqKPOY3cHygRBt9kLySmLHCR9A8ESGSZwTRr4EAaOLAnLbU+S2/D44kK4qgfO0Wv43P5LNc36tP5rAIayGQPQ4uIcv2pGqrzaRRzhlB1I726Mp2mnAiXyPxPEnpZ0dvjBrTjcRAVSKSMeNKvUZviWLW7eoF23U2QiO+tpKGn/CjYHLTkAudRoJg2D+lMZ58lS9JLUhhL02upUn6hZL+36Y+mMyGxNJX1LYb3YvCC9McupdwYKxq03Z/Pc2CBPp17F8uHebI9SWegvhAhMhg6jfwj7lOvPsspRZBxPHdaR5OORfDhpTozyTUyiQ9LcCd9Q86Yfizp12lI0R/bXkJx16bQ4pucCwaisNsH2TE3puIkWxq1/hYvo2gvQnk9yi52oVFzJU4uApxWUJdrRFs7gB6lEbkOAh16X0Sd2X55x/FZyF63GVm+zJNESnGH9E1Osf9hNLNZJ8rnRHFOBIVVlPPalOZIfDkQJd2nkUMNhMi/y7c6AeHIzs7mr/UP2weCgoI+yrjwB0rmRfkxghOQSNJv2o5SciR5vsSLm+tpqYsQ+Q5i39mQvuMXrlUB5/1m5ME5i/gC8/u3Jee3QuQ7eczu8dVuQkRE5Bv5N52AiIiI/DnitIrvhB0zQEoG2nXro3XTeujdqz4aNWqEauWkhBxA8MtIdOwkCdevXx+Qk0Kqhx8uz2mMmjVromZvA7ToHcJSS9gSUqmNIzdv4ubNO7CYMQKLqmvBMzsL3LryBlqKfDmjQ9fx+H4Rb/heUZGdusJCVKhQSVILZ5eohRpi/OLhMLW6pJ0hK9BRMwx1puyC9IZhqMtk/Yw/rRTnzFVFlG+IRb0qSPJPs4f02whkqgAVK3LOEaSgXV0JKSmSqR+lSI+Gd3I9SElJ9rtOzfKIS1H4wzwd9iIBbW3JaLjBjvV4MLkt39ZU60Ag5C3OOx+WtM226y9uIyi9G45ta43mgsyNHaYC93WoVlUyLGfpuA72w1vyaUZXOONKX8f3nAPad+aOFlC9OjcMKQW69wiX1vSTtNlpDOpWf4kCVk2FCpLRX4VKFaHOHVpPID+PHSNWvDA3G7kNZ0JLmNXRqlVrSeBPkJOVQwE3LVmrAvSnlEF2DmdyS0BdDUpZWULk10FRUZG/1j9sH6hdu/ZHGRf+QMm8PTqVXkymoHAHczbe4MOvrqxALeF83/J8hPaD1mD7ACncjyk5eScdixsPQXi2J+bM3cviCZjTsCHmdO7MlzvxMBDt6+rh8ER1HL+4G0YrjkqKlaBT794wMjyCQoSg3/SNgvQT++f24esadzhYkAAnTYfxsn7bPk3debB9HC/rueqPc8cn9m7Kpy09z1lFkDCzl2TfVvFzzoEjc0ZjztKlvMzY6bM5OyIiIiIi/zqicvw3kZOXZ7qWPGpolYE8C8uWOJJ1mlXDMy9JODmZKZZpBSjfti7mO2UiNDSUbWHwcTuNvGxCTI4c08KCMW3kREkBpsBxdQ+aMxNZ0srgjE2FphJfLiwiEjv6FeCralVWESo1UIDZfUn+0NBwPDm7jSmwSlh44w0vm6LmhYPeQG5YCKRZnyvGBMHBX8gfFoErawYhRonzWCVhjOEYeDzwEGIc0RjabyJeS1VCK41gycsCIyQ0FRVU8/BRBWT7ffhc6RV/0jIVsdcjAu+ZUqyyrgmelGmIqWMWC30NRURkFMY0lkKNVuMRzuK+DyzQt445KvUej+hozqYsICNbHQ7Pw/EuyBNhIxXwroTeznkO4+HafpSN5mOm4flTiXeu9PR09rcYUl06wPhIgNBmGN6+9EC5L0zn5ErJM7k0C8gqKkMm6BgSEiRpcXFxksB3UMxeEj6SkoocZWUh8uvAvQhx1/qH7QNycnIfZVz4AyXzVq/62YIy9k4VHM8Obvg9GB6UYtcPOx++D6Cm3hDeziux1IXQo3J53LRag5EzFsDd/RVM/ZxQXbmYvRNyZ4eQl5OPyWfu4o3bLkzrvhkvw22g75iMaaMXYtPcrrjvfBE6OuNwKVhyvsqxF74Qx4XIzKuNW/areFlJei06gtDgVxjiVheXI5Px1Hoh/ButZdfJOxyQt8SGq/4IuLgZx+XnMNl72NW9jkU2d9GweDOy2OncOaAVxlt5sLTXaOW1Ch6sjwcmjoXeZbZv/s7Y1Ie9JLMXrtx4b8i1MUCI/yNcHi6H4G+fCi8iIiIi8hMQleP/D1WG/mG+MUfr0ctwp70UNlhaoueixWjeVAlqjUygeXoUTDdYYvlsPWw468aU0wZIu7cVD0NUYLqwFwZ1nojNrIzlgtmIbDsJvctUhOPj4zBbYwpLJtebpIsXTBnUalEfxOla+cWoWEedHwEGSUOnCVPM+1iBDvTHOgtLLJo8FbtueCDpySmMXWbB1/EiqzZ61lVB097a2HngBnQdPeGxfTKfZtB/IM75fBrx4lBsboSZbaOhr7uK5bHAhMFLMctyMxqoVsY2++3ob7CZyechptYUTKitBgMbA1hYrMNaq0sYObYskjM+OdV9emIzZqy0xJYt25AzfR9qV2wDgyHlMHEF22fWvqHJJoRHhWDD3Jl8/OBWF+xzHQeNmsbwuXoF3ECs8x4TGK2xxPYt+1F2lT20ylRHVpgLTrrGYLJZr49tj+iqDM2+e1HOXoc/5mt2n0CHIawvFfTQ0HsNFplbYuX8BVh+5DLvOKIkldmxrTu3Hw5vsUdSh0mgImm4vriEPWsXwNJ0MXY+49xEAP43juPxa87W7l+Tgy54dGwFgpIymVbojcvUBLkZ77HzEud44n+TGupMQ67eArPa5mA2O9+zl29DrXqakM4Nwmvuo0CqDx6HETp26owu7KWmwmcmFGVk5FBTVQHydepAf4wmlBQk54VDvVp9dO7UCW3btobPpauI5d7a1FQxun4dFOR/abRWFW2a1mSVKmHYzGVweqeEC4Z70LRlW5Ymi3pTh+CkezY8bc3QrH0PJpNCzZF9cP5WJDKUukMpORVLXH3w8PR2du3uwvPYKBy/JgXjLbNgbaiDhYZm0EB59uLLXpTywtC5eT1IlymDEdpVUSx5fxMRERER+a/AT64Q+Sa4OceFhUVC7OskR/hTYLwkHOG0hfS33JRERP4mSWTetyPFZRQK8V+bwya6dOVvzm/9p/meOcf/H6bqris15zib3Eh/rZMkUSDg/CLCGFtKvt+z1JzjzOAnNHnyTLJ2fkTZhY9J32Ank8aRfq36FMVPKfcl/TELKS9uHw22yyTKiaVjW1bQrIWrucRPFITRAPbIS8j843XEzTl2CuRniVOY7WQyf5ZO67VAR70k8/3phQVhcQCdmQ6yvCtMmA48SOjvSJGXmtJKlwxiqjW9Lnkoi4todN2G9JTrY+477hMLsd7R3mGgM/w0/BQy1K5KbxK5sMj/GuKcYxGR/y7iyPEPQE2eMKpbQzRs2BCLvOvBevlAIUXk76GOJWd2Y9uNWCH+K/MY8ZVGYvgfPSf/T1FYUIQXUQVA6D10G2SEtLR0NFLKRr+m5RGf2xb3vH1QWCyZsqNSuyMcHI5Cf0AXKEmmkH+RrDwF3PB8jHzZCpixfDOO7FovpEiguDi4oBcUFaSQmV1iDrjAsC02SH/rjhqzT8K4UVmsvuWAWe1aIT09CkNamcFdXwvjVt3Eil5KTJaMMY2NcGZdF0QlayJKpgzcbCehwVYnfgqPpU5jHHgHKL0LAjcj6OElK76NzGwgzYkPioiIiIj8RxFNuX0Hooc8kd+Nn+8+WhExwRHQqq2F+MRiVK5QFrnJkQhPZFoj5KBdpxbkCjIREhGLqrVqQUX2c204BzEx2ahcuTxi3oWiQu26kJXORUxkKipWUkfI+1BoVqsJVaVPc6I/8PLmFthk6mPvWBWERaWhZtUPJviA2PD3KJCSRU5ODspXqY+KgiO/tLhwxKXlQl69OmpqKvKyrMQI3m20vGoV1NQqg5z0eGTKaKGCChAZ+g7Z+cWQV9JATW0NFKTF4H1cBhRU1FAeqShQqw3ZtGjIqGujnEIRYt6GQKN2Pcj/idIv8nsimnITEfnvImp5IiIiPxFZVGYKsIyUCq8YcyiqV+OtutSvX4sfGZZVLIP69ep+QTHmUGKKMbe4j9VTl1OMOZkiKlerBGlZedStV/+LijEQBVfnTGwaqwYpyJdSjDkqVa/FW1Xh+vFBMeYoX7E6L/ugGHOoaErycYoxh1I5iWLMUa1mXUkaU4w55MpX5uM1WHuqVeuhgrIM1CpzijGXKoPK9UTFWEREROS/hqgc/y1yYdquKZ5Fh8L+8CVBVpqCrFdYdjZKiP2RWL8rMBi7CIsWLcKMEZNg8/AbvLz9bQrguW40AuKF6F8Q5HEBC2fp832bNF4PN3xDhRQRkV+Vqli6ZwPKCTEREREREZGvISrH/w+k5Wpi4LBukkh+CkKCgxHMttTsAoQEnsZNzwCkZH1aQc+REhOLnKIiHNm9F9bndmHXrl2wu7IXoY42Qg4gOvw9X098BmefAYiLCENcTAwvi07NQ3SoJD1DqDo/JYKPh0YnSgQgxISF8rKw6ASmqEdhi/klRETF8SbK0uPD+LTwBIlRuJyMZCQmcvXHIjf4DNbah2L30cN8306dMcd5y53g9WoqRlhoCF82JZurqRhxISHI51fb5yMuMgbFxRlIToxleSKRV5yHcJaXyx+VzH02ZyUKcvk4t2XmFTNBPiLDWDlxco+IiIiIiIjIfwBROf5/ICf3EjrtTTnDpeiqoI50uSpQT3yCQZPnQ7uGNqprVYCSvCyfNz85DG1bNsPhl1GQk5ZG+2rFaLviNp8GaGLTAcmCnffHpqHqbn+oS4Vh0pAJTEIwnzEarSxuQiX1FaqqKeJKgSzkbgxGL9PzyIt/BwX16shRUod51QrYeCMGGd47UcU2G+rq6ri9cyZ2eClDjdWkyuKpz86gfMVOUFctx9tovumfhgCneahQYSfKq5eB0/oJaNqn5ALCKrBx2AXO/0Xc2bmoeayA1RuBqcONmCQD63v3RChvpzUEa3RNUJhzHRoVFkBWvRxu756K+X61+X4sn9IPN98Bl4yUcD5FHepZt9Bl5k7uDQOFGU5o07QJPEJ+PccYIv8SiUEwcxPCjKinl9CqS39k5H6PXbRQLB40kX8x2zdtGO68F8QlSQvA2L6jhBfADyRicev2iCltxrsU0f6X0aRJE37b5fQjvwp9DcL5pSPxIEyIliTsAXY/EcJ/wlu7udjtlyPE/po7LtfY238ImjYbhbiS6x1zU9G36xi8zRTiJbi+ez6OeAuRz3EzQxB733c9uAlXJWbORURERH4KonL8/0IGFeuVY/+kUFG7Dd7kpECtwxQ8uXQQxbIqeFGsBcVMXyxZsBx3fcLg4f0SJgPaQFZKCv3W3MCe3sVwdXXAuBHDsHrPefYjkoyms07Af+UgqNXuje16VbHOC8i+441jS2ehUtNG4PySTa7JFO/JO/D8ojviXfWxxC0FTauo4VjkbaweMg1QUcCgoMsoUlOD7vZrWNFTCWXq12IKsRwO6U7AYd9gqGlUAAUewuAWF1Cz3CksumoOTbUySJQdBK0PruAEZGRkgJxwDJlwEAnL60NNrSemdcvErmdAQVhpu8jyClKYsnslaqiVg5xSNZTzOo1yrB8nb7hjkPI9HAjXh0lbNag1N8Qk5Se4ECKFmk318SIgALIxnti7fi0eCM42RES+RoDfZWSVcJB489RZjJ+lDgv3L2hgX6Umdt50hLQU9/UkDQVf0qupEK/cXjNVsySErNTUr37teGC7DJsfV0IAu6a5Tf2xJZbbCV6BfhLFRZ64rLkA3WsIghLcuXUJOV8y9fwZRbmZLN+3ftLxwpnTvmBv/gjwf1/S9yeD4On+GkVfqGrIwr3Q/aLDyQwsMD7NPWLRf+p43Fu3WJCLiIiI/HhE5fj/iUYVFfaDUAEXwp2RcNUOS2YMw1yrByhTNhvDK+QBaq0xb0YvPHV/gAP798EjPJH9Ekfh3FlXdOnfH/37T8HZK06o4GODi0mF4CYfHN5uDgsLC+jZBaKtphTv/ILzZgcicOM4/G8M5yVMXRHFrMwOS30+/8RVF7DniB7KNjDG+rHlcZjJxo0cBb80pmC/kQyLFZYBbLcY8/m7rPDAAZdekGHKqLKKxGNbmzY1EBEezoc/8OiaA3wic8HprFKcJsEoq1EOGbmfvKF9hPVRWfD+1t/IApOrvccW1tbQaWuQnJbLfpif8G1zW6SyFmqUZX1Lf4lD+/bhzkMPVO46Ft1Lr5US+R0JtsbSw/eEyCcSXz+G4QQdWKw3x9SJ/aC77xZy49/CZMpwbNhkgTHTl8D/bRDW9zbFXr1ReJOcBcR7QG9PLOYOWQ7LvguQypTmm3uMsOicZM5/xCkjLLR2w3XbDfx1t2xcexx5wF3jITDoMoRXcguzEiHLrkWXYxv5PMvHd8IhbiiZKXsyeIVJxqtgsWIalu65ydfJISsPnNtkhNlmFli1YDyO3efay8C5h8nYoN9RkokxfeEuLJjRjvNDDrsVIzGf5V+waAHOPeFeLK/BYKfEA6Wvy0YsdcnH6i69YbTSHKcuu+Kg2XRs2Mjul7mjsebEU976xeoJfbFqvQWmzpoLj5BMZIS4YNLs9Xy/9fX18ZR1I3jbLAwZ05LdXOHYuoxzzMPq0O+P3aed2HHbDeej2xBX7PSpbdeNWOIChD10wLylS2BhsgiNjOyRraCMjNd3YainCwtzE/Sfsgmp2UU4aTIB4+ebY8MaUwwwssWZY9dx2G4bbM5xw8CykGGPhtPrF2I+a9ds8khkQgmyslk4c+IM394HLm2ehf1PgayU0xg4fT7M11pgxuSpeOB1F+7smXXY5iqyytRFr6oxcEkmeF84BO/3X3BnLyIiIvJPwls7FvkmPjkByaEVbZvQyxR/Gtt3MVFBDnl4+BLvHqTQl9TQiijXjqZZBXCSUpwztyC/1FQyn9ifPP0iJWUy42jbvNn0nNW7vX9LuhEg8SQQEeBJEVnFNI6dJtcwJsh5S9VZOJXzVRB3mf2kL6SoQAfqvsmHz5+fEkU+Ae+pIP41vU+WOC+4ZT2fLJ+k02xW7hWr9r7NMjI7E8ynpYb5UlB4Ij0/2oBWuvEiooSHNGvWEnoXLykf99aVRoycSwmURbbTOtHj4CwmzSBL3fHkEpNGSxpqk0dEDqW+4vozjHXCkfQPSzxcxIUEUqzgL2Hj2P50/V04zS5fnSKzJbJXL55TUnIoLZ9tTjm/h3+PX46f6QQkLYOd+MIs8nnyhNyOjCR0W01PWDi8RPNW83To+CtJ+Pm2QYT92XR/qzYtvhwjCPcTpl6gjBdzaf4NiejePmOas+8hC2XT+i716frrDEoLvEoDh61hsiJa3rcrXQ/wpd0rj/L5fa6Y0DjeAUkw6XcezMss+jWlu/FxtHP5IT7+0smMMM6B3XMBVBvVKSe/mJevGj+G7ufG01R2P8XFXqExRvt5OWXFs+u/L4XneZLOCPZM+AKpoVdp+DYvSSTsHmk2nEhFxU6kv+MJL/Jx3kBGd4hWsLrvhDJBjCercyrFlnA85OO0miadiJBEAs8Qmm6l0PNLaJPLC8qTSBmJpF+1Gr1JZOVCnGiozjpKFlI43GwWksUDLlSibZcNNNeFqAdr+1kcL6JThi1ofQjRciY77S05SVnX5tPyp/F0fhDIwi2dPftSqR9LD0p7SSP6rWSPhvesz+0pwd+WJpse58vkpcYyWU16xTtsKc1Fi5m08SkL5FnT8PXcOSS6uXc2rXxURMasXn+hL97nltLs88KD4zdBdAIiIvLfRRw5/ptIy8ggPzsPGlXKcran0CHpMGpWr47qtWbgWKQ38guGIWD/QFi5BAolJOisMUXT8uWx5pQDbAd3kpRpNBhNzWzQGopY4vIC9nM6oTqTT139ENWUgQr92kGG++RbUIxGTduiiPskWiSHMVPLoUqjybBRMeHz12k+A/mNa0K2fFXM6N+Sl+30rgGTjmUxZlEj9B+4AI1nb0WzJ1P4tGZdt0CRs8Vafiz/aZlHsyuOHDHCyjb1+DxtZ9zCsUtW0IQydK1vYPHoVkzeGCqT96J/pXLY/uoQDDvXh86+WzAcpIGsLGlIC5VpySShXX22f6ye+OEbMLiONva8vIxODSSyoy8zoa5WA1ts1kBRNGf121NcxC5iGWW06NgRvXsMxJIpvdGRhbVLmFgOCZNCw4aScOvWrYH8t4iIZtfxyMr8NVN9pCX6lIlAfr5ksSrTn3DS6R6ubpnE0hvAJjwL1mcfo1yjYehX5T67VwrwUK4zOjVuBrm4/SxPfbysqM59rf+MIpCsFlSTTVmeunhavhxqKsmxG10KlbU7Q0ZGck3XrqmOhBThi4mXDy4cnCPpV8M20NZ+jZSUqizvZyObRCgqKkbB+7vQ1KoqkVXXxii1VFb9hxvvE0yThCL3ZK7UHgnBk9C5dk1oV6uKq0GEdF8PnJqqLWlzwFJ0ahiDGmMsoG49FXWZrMfMjaDsHDyKioQcZ4+91lDsmFsZLViadtUqeBpFkEvczbfzOcV5echuPAMfZlW1atESxZyfli6VMKG1Kt9mQ6NLiPJOhDR77FVS4559smjerD6Ki4vx5nGGpPPs6L73eAKNmpX5euQVONN6n0zhfZHiQlSqLMmvoqYGaRSXmpqhqFUBkWyfRERERH4GonL8t1DEJg9ftKnSGgft10lEg/chPDycbd4YwX7/5Muo49mrcMwb0FiS/gcq4DCfn9ueYWAlQcw4fTeQl9+9sITFpLDP9Sl612LBsvXh7OcFdSUWrjwY54+bc9lRf4GzUI8r2nECeRXc83rFy24ckszVG7iT1flkD1NygQm7Hgv5T4Kbkthh9Aas78VnE6iD03w62x5t5Rfz8Siq4onPa14+t9eHecmD8YLFb+3bh4M3jkFFdRwO6taRJFXvKrQTjj1T2vMi5eqtPsq2TuvOy0REPlC7RjFeCe+TUZxruYzKqFrJB1ue0Mfr5vaBBYjJqokAbq2r90Fkdlr1MS08PABFbgfgkwqMGtMCizaaoNfaJVB7fRHOxVNZ+htMzc/ipy+VQkoect4XcS7XlOV5B13pfIQqMyWYKbYREY+YcstrfQhJLkIT9QKJDtihNWabOZZoOxzNK1ZF/4a5OFZiDd7zEyvRQP8YyjTshcQ4QcELj8DZVDUUs/rj4uJ4UXZCAj7XlTVrD0RwWDhePduPEY0WoHKrqljm9ulYPD63k+WSh+EFPz5uVPsNdr4qy160gbw8yaTs+j30+TR/j03oMOEC1Ljnh8CHtnMSEiGjqAClQDvES0SIjo1lLwxATfdY3Hj3qU0Hg0bIrjlekukjhCrNVbjHFaMItTp1RtJ7ySq6Im4K2GezkP8aKlUiNz6evSBoCzERERGRH4uoHIuIiPx86hhgu35PIfKJSfOXwbKJFNatWo1qm49hVMW36DTLF6kHhmL12nUwGD4Wx9wDUaZMDSQeWITFq20wamg/oTRHeUzuAJy78hSVG+viwpFLmF6zPKDdHo1yXbFu3Rqsvl8R6U8v4J2wdo+bcyyrXA5ZWh3QsviOJM9ddfQJvYg38QWoU68MjBavwzqD4ZDtNQcN5dlLXq16KFAYisFlH2LGsnUwW2aC+VYOSC0AZi2zQML1BaweVmbdYqYol4PrXl0oavbDuLTNMFq6DnN2XISd/VZIS3WBlp8DTNYth71bNJSYQivXuYWkY+lR2L5gGr/f29dehJWLIWp0tUSZI31hsorVMX4q9rp6IY0p9WPmr+Lbe5xUHcPql8e6LU3xKJspx0lvsG7BbD5t1xpnnNzZAYXVLXHDei1iizt/bNvudhTkmDZ61f8m9q8xxLrF87DnRSEU0rKx+s0DXN08g69jWs/BuB2aJulfCfJzK6F6+SewPu2FKlXLoKD2LIzX9MY0tq9rjGajZs0qLFc6HI46SAqUQJUd/6wcdSEmQaaA0HJ4XVgdPAPOhk2EfxTG9lKA1xkreAUnSzKJiIiI/CBE99Hfgeg+WuR34+e7jy7hfu4LhPi6g7S7oI56Mfz3zsbthkuxsP/Xvr6IfI3ioqeYujUTJ017C5JfmAxvTJ95CvbntwuC3wPRfbSIyH8XUcv7KRQhNSFJ8in2b5KSGMd/Av2wJWeUNCT698hOTfzMfuvPJyMliXdM8olCpCZ+fWQoO/fDXNPSFORlIi2PkJGY8NV9Ksz9upmvrNTkr5q3Ks5N/6rZrtzMdPyZad3kxHjEJ6cgNen7Vtjn5JZ2HvO/Qm3lNOj0aYVWrdrAWmu9qBj/TaRl2mFM+iE8Km145pfktqMrxu79vRRjERGR/zaicvxTiITJIB3kfYNt0a+xQNcIEfn5yBe2gqLvncNXGirMg8qkvV9V+n4WW4zH4XM/BUWFXztQ7lix/ZMprZIEPdqLmc5S7IIu5KaJfoH3MJ3AOS75MsWFBV8pFw+z3gOQ/BVfCMVvnKG3xVmIfc59TDc9DWXlcJjo6Auyb+EZTNecEML/Y9QbjBcvXvCb1YRqglDk+5HC6M1n0bW6EP2F6au/AkO5WRkiIiIiPwlROf7/kPIC1nauQqQEuXFYP2cO5rBt6xmJHVEUZmLjrGm8zDtGIsp/asPHzQ5eY7EcnLM0RQY3fBlyG+utL/N5ntvOxbOoVEBGEVW0taEtbBVVJbaEn59ay9ex5oTQDiPk8npettJaUNoKM7Bt8QJetsGWawvI89qMTctnQlGWM7vsx6dxm6/E3R2Cb+7h42tPPuPj719cgKMfH8TdYzvwJCIBx822YN68ubj+NgZ3T+3k889fvAypwqD2jUNmkjavCK7HMt9hjdCO1a2vrTxPwuXDgmKY+BjLhfyOvrnYZ3YQVqtH4JjzUzhuWYPCz7wKPFBjbW5aglBugDg7AuuEsjuvBODRuZPYfsUBCyydebvRH8hIegSnt5l4vG8BXiYCcSHOOOLtzbdrYe+GoLtnceyJB+asPQPHgwcQ8Nl0S+XWI9A53h6xKMb9Q2vx+E2SJIGd7+1L9uOarRUcb5WwWBJ0me/T0k0HBAE7X26S62C5uWR0zG6zDfZs08Pe88/5uIiIiIiIiMhPhDfoJvJNfLJzLBDlRDPnWgmRT9yzMqRdgZLwOZut5BkZSqPZob4WRZTycDuh9gZKD77PNLt+lJJD9GzvFJqy8TK9nQM6EV1EUQ7jCTWmUkZBMk1m5YKT8mnqqInEipfijcs+aj39AB8+t3wobb8aSFHeZwkd1hFnldXVciIts31KIScmkLlHJp/P7dRuuhOSTZubgYKiOVkimY0dRu4JXGogHXR0pzh3e+pvtJ0TkMvqybTmxBNKvABa7sqLyMZoOJ1+HUVDWN+iOUHgEZpqZs+nZT87QQceJJLn4SU0aM0VXrazD+iCTzRt7QU6KZho3bpmIb1JZMd0Qm+SWF3+wDvS7zqc/S+maT0Hkg9n05mSadbseZSZd5v0V13kBH/g5e1NpOtGZML69CSe6ORs0OE3kjQ7KwvyjX1D+r3GSgTsSJ4/dow2rFxCm7ZeoQImOag7mE6wjsT4rGXnxZi3Jb20M+h0RBrNYHUmcOadKZysTE3JYvdhOnbsDgkmnOn+nlm0UTBfW5qbpL/pNvvP2u6pQ0UFcYQ63ek12+/4J7uo5ZS9lF8UTjNX2fC572wbS6uecGfuIenPO8jLfjQ/085xSmoGC0WSftN27Lp/Raeu+0kSPyPB7xItdREiX8D7ziGaM8uUTNm5mNZ3BJ198V5I+RGk06U1BpT7jXa4b1+1psVzF/J9mzRqGt0LKWlhWETkE6KdYxGR/y7iyPF3wi/GK8rGigmjINVMD8f2zUP//v2x4e6nqQCV27TCosZd4OXvj1aDZ6N9VUCzTU/00QJUu3aBfh9FRD3Uw7zrrlBVBNpM0oXDquOoZeEI2+vZuLLLC7p9K+B5agruNV6OCupyQPIzTOY96km2gATg2uq5GKI7GH5+fmjWvz32Hr+O0OPjMGfjNAQwmXanTti2bh/KdB2NtR374QHrT43u09CrVhae+gFly6kAcS8QWFwXnTkbb2gEwwmdcefWDfSdzJmR47zcjcT6nV7IL8fU+xLIyMpCo3IbVOBmdzRqg3znszjN6g9Rbgejbho4evYhRg1szPrmj8GLDbD5dCA66ppjsvZk+Pv7Yey8zainIanry0ihV3MNLFq6E/4B0diwcy9UOHOpfwFvv5apt41H74B+/X7wYX3qNnYumlfkk1laETbM1kdapQ6YsWg9zJYNB2cRjIPzkq1ebA79q/tRnh3yDv2nITW5CJ/OrDbmWljAeGwPtC9/CQddgnipetO68PB4y4f/DOm3hzB90T7UZ/tdodlg5DrMR16xNjbrd4e/8wn0XnYO8fFC5t8cWbna6NpKYporNzWKXRP+/JaelYm7Nw/j3Rt/ZJTy51yEyMB3yC/Oh5XDC+w7IvGyaH/rAO6dlnxloaJ8vAqU1JOUyc5acQHeBQQg4s0bXhabkoG3QjvZwueDtChJ2hvu6wxHcd7HPMHRqUiLD8Dm9dYIfBvHmxaLfh8kSUuQzAlPjopEeHgwgt7EIPeFJc6FNMAOq118306cW4MdG44inctYkM2X47bMPG6/8lm/grkURhYiIhOQkx6P2NgwlicUBQXpCBLyh6dKplAVZiVL6ggIRL7g1jk9IfxjvTlsn1JiIpBSwq22iAgHN2VM3MTtR2+/E6K1iu/gD9Yqoq9h1uZQHLWaK4mXoDAvF9zvVy0lJTjEhsKmUjPYsR88RVkPGOg/wsLOh3FQ6w32DmaZ429DquI2FKXbQ6aHNWQ6lkHuDEUMOpuFWt2W4PAIGUwbPQmWF0+h5NS7I4vGAYvOYkrFXEjLKkBORgo3l7aDv5EXFmnngWTkUVxUCAV5ORTms/6w39gBrD8LYlJwqbIatmQSqmTexgijq7hyca9QK3DafAIi+p7Gsi4sEu4IqSEJiNzhhr1SV7ClH2BrPAKqS23g1HUwjkQ+gyw7HNyc3fzCIhxtroRI62iE9K6CGXGEnuVyISOnwG4cgrysFAry8lBUmA+lMuXhm0I4a9QHsxzdUFvSNCMYBt0Ww/rhFRYm5LP8sc+dUKPLIaTlm2HZ+nRYbxglyVoCPzcL7JEyQ8U+UhgcRuhSnSRtsXOgxPb5ceIb2I1dCes7Z1nuYuTl5sNmfi/Yv+6PR/fNcWz2EJRffR1jkqUwL5JgPQw4bz4dyaN3w725OnZkETSVfTCs9mhUW+eCXeNqQkFRjjfr6n9nM0wDdeA0tx7fl084w8BCDtZm1WHQywzW+5tjxt2RsJvTDMgIQuVyjfD+zSFU26qKSKuRiHQxxjYpW1gPd4fBfH9Y7zUU6vlx/HxrFWkwaDYKu/0s0FM3HZ7ba6GG+lS8zXuBYvftGHlFFfYj7mB95klYDZXjnWSkvbyGViNXwvL5I4xVK4Oter3xqtVW2BnzVr0/cmfdAFzocwY7qrpCqc5VUP42NJGvgl7nA2BW5jqqDlyJmznpqLVVCdatXmJ1tXdQb70S2dne6KmshCVeSaj2Yj72VHSAff9cLJvSG53YS+vlVm3YvZuGZCdTaC9RRo7XOChpNsT7hFw4T1TEiRbncWfTIBzoqILGdjEY0OKT0XLOjjG3D9fZNXuvjSM29L6DXpO88eTiJBh0nouD7jdY+mMYzH2BpaNDUb+PCtJyzLBtuAI0dxAMKgajRdeBuPL4LXZWYC+M73IwNHEtyjn0A62ShmZ3W0T6HgVur8AUv6E4s7QaJtUfjMzFLrg+7/PrUeS/xM+yVjFdzxxud72EmIjIj0Od/Y64u9mgbFnJtM9fGk45Fvk2/jCtIjeBAoOEeQIl8HLYRFciJeFVk0bQtbBQGsMOdQ73/Z6ekL7eNsoJ51zDguKziFzNutKsnbeIijNIF7Vo+N7bRO9u8Onu/Od8+uK0irD7R6iZzhY+7O9oQuuP3aZ4v2usnCFxsxHe39hCJjvOUrjTFjr5RjIJ4NCiCXTibT7t7wZ6FcV95s6gDZMG0g1+fkQULdx0nNK8z1LXics4ATnOGUGW519QoJsVddA/SwUUTaPb1qGzb2NosnJz4r82+5/l2+ZIdV1Gsy9FkP/JlTTN/Cwv89w/nfa6vqLzu9bRnSReRL2hRV4JfzatgqXNX0HvuB3JDGL7VJ1S8m6TjrFkCsLncNMqprsQLWPH7HEckdvhDeQseBw2HjKI7ka/oemdJfWWJD8nhkJT88lCA2T/jijecxjpX5WknVs3jQ6+SCQdVmcSO3zvA/wp6ZOP3o/c3TGdtvoKkVKUnlZRXJhKmuqa9IL1K9TVhNoYHKfClztpNnfu2bFf2rERDd7P+Ql/SOOnbuYq+OH8W9MqssmNBsy5QpTtT13RlNyLuekkEl7cXE8dOe/O0TfI2GQfPfT6bPpFfio9ffiQ7tw6RoNGDifLs0+I4p6xa6QXZRVI6rFbMYkOPYuh9uzchaUxQcZdGjxYj0+jd9aEKW5kNxq031eYHPPGjpW3JM8zK2no7EMfp8ywM0X6bXvz05R06tWn2+H8PB/Kcl9DsI2m8yNB1p7cRZFJi5vUI/d33D5+RoonjR85W4gQmY7rQxdfB9OM+l2piO+uO+nP2UdxD2eQ0SWJi+S9BuPJxJq7LgQCj9KYBYKr6qI8GqKkRs8intLQFqPIWyItRWboc3p4fjdtcbgvSET+a/ysaRXrNn75mSki8k9z/pIbRUQKPt9/ccRpFf8fFDTRqMEfV9S3HaGL4LO7sGvXLrSbvwNDqqtipo09P8LKfZofPrwLFLXbIz/wKhysd+F9u604sqgvIFUGpq7LsWRwE6BKC9jbOKCz8AI2eoIOykqCH6nefRbOG2jy7bjGtMGcGX1QoekQRD3ogH1MdimoGhYtHgvtfkZIcbbm86kPMcGUunLQ3b8Fjj6cK6wyWLZ7P4JOc/09gzmzRqFcq7E4Pb89nz97hCVMxrREo94zYNowEla7TmPW0k1oXE4RE62WQ4pT4ZuMRW+NSD7/8TdtsHdYNTSZtBFGLVJ4mXveaMzq1xBjpk6Cj73kuJi9eYW2mkCf4UNxhcU5Gbc9D1PAcN1J/P5tXDIUV/cx+eHbeJYcBlX5PtBplYEbT1/h9qkjYIoFn4+jYu3umFSnCEPsDqOaAtB73DQEOkrqHGphg56V60F/YU/sPelZYpoEIKdYCTXKy6H/sVNoVw6QrbYSwxtI0hr3Go12WhpYc3kn7E/fQ+XGTaD+h6kdiXjkkw/d5gSfK0fhH1FyxV49DO/OjYlrYPjM8ZCSKY8E74u4y/p1PbYjnh2aCplmizBQ/TXr5xWMc3RD37x7yCjsiom9FXDh3htJNb8pNTTZDaHUBDfjz8Fz924sGtMOlhf90FJmDbpyx7nyIOj1rICHrlexbdteBHLTLNICcMY5AO26dkWvvjNw49IVhBzZiEeJ3DSHSOzcasmfc+9CbbRSA7/4kvc6V1QEGdkSTqM1WJhdCCf2m/L5B69/juM3eqP9uDVY1iUbB5lsxIT5CM4E0p9J7KlkKhTi7EELPr+KaTCudK2E7FRAXl7iHnnAgIqITi5hso+KccLGCiFxWcgu+tS2prIMiqSVuJlDpSAqhLKSxH3dvEO26AQ/WJqbofdsa1B6Ei7sucS3vXnLTnRdsxRVKraDo5MZ7jHZnAF1YfuAs9uWjDPbtuHg+XvwCq8GvcmiF0oRERGR70ZQkkW+gT+MHP/CFBfm0QTj9ZQkGagS+ZvE3bcj4wOPhNivx785ctzf+BJRViK5Pw2QZEq+RqiyicJvjyTjS8Ink49k0YGZphSXG08zJ0ym50GxEnHSWxZfRMEUT2v6dSP/RP7zDAU8fUjxqdHUjBs5TmeC1Ns0bLghn8aPHE+8Q09Pr6UFRyVtJ4d4k8/baEp450thQtO79UbS2SDuq48qH3dcMJIO3ZF8Eorxu0uvE7LJdhjo2AtexC/QnbJkL4UncyPJhfTusR31nbGbMiiFNs4exy/E5BbAThg6mXxSwkkHVYhbEht9fweh60GKvT+ZljhzeYgCvZ8TN+DN7fdAtg9BSa9ocOuZlCQMsLvfc6f05Ch6+lL47pJwkprMv0F3T1jRvXiJSOS/jThyLPK7IY4ci/zySMnIw3H/aqhLBqpE/iZa3adjvxE3OVvk25CGoooK8nOl0LCaIqCsAeXnW9CgQQM06LgTz/3NIK81B7fNOuNBTMlReGUYHbWAlkIFHHVcix3Du0vKdDLCkkM7URsVsPLMKUzv3YyX73+QigryxajeqAmkuPVs+XJQVmLtcUjLYVazPLQbvw59g+fx+TsO3IWydStDs4wU+rVi9TLZmzbzMLZBDQyaqYUGg3dh+O5LiDmiw6f1n3YTlTWVUKbFdMh/eIpWGYoT2zvDuCPXh8YYZpkJp2MLUAaqWLl+BYZ15upl6TsPoYWqNrb7rkEbVpfJS3nM7yCD+ILmUBBWhzaSeYV2LK1Bgw7o9zIHDdQb4vjBvujUkJM1RlDlmiirVgWRF5fz/WnQ5TiuWgxCzylz0aOCpA4RERERkb+HuCDvOxDdR4v8bvzX3EeLiPyv8LMW5JlvssXalbOFmIjIj+PC5Tvo0K4pqlXVEiS/LqKW929SXIjrLyVzFC/vM4GJyaftxgvBU8hPIuPlFeQWAqH3j5fqx+E7/z//s3EP7XEzPA93j+6Bb2wcHHYeFlK+lQxcc3BATroXnN/wRrG+yM2DpY+fx9d8jAh4vfy95/OKiIiIiIiI/D1E5fhfJC/3Mq66S5RgL/fnMNiyBVv4zRDnlxnjeRaf9BOIxNKplpCRBRKfO6Cg9hChH5ZQvL4I6x3/vhmg1MB7uJWjgGe6CxGWVhFTFn+PG2XA78wuuCt2gZJSYyxoMBoR2ULCZ7xwd4feh+NnNgWdtKXwjvOU90UewNb+sRAWEREREREREfmEqBz/f+DsHM/bJ0Q+UZSXjX0TG6Bzly6YPUMHA/V3gIoKcG/9IHTo3AXdJy5BYkIYuqiMxWHjJrC9I3Em8Yla6NNZATdfApmxwRjZrxM6tm6KHbeTkJcWh2bTrHmLC/FPT2P05mvoV10bhiPGsjzNMHf3BYxk7bZvVhe33uSiOC8LDgt78n3pYbgP6blFePVwK6ZaH0Vf1peh8/fB1W4vDr/0gPrgPVBRE9wf80hh2g4reF+059vLjPBD1+5d0aVjS1hceMXnyIoPhU7/jujYphksXSRlc5Iioa/TE1069MRmr2hUkAfkNAD5spEw6D2O5SjCxn4doD9DH53atcKCM7HgDE/42i9D645d0K3/UEQKngzO3IzGZJ1arAIV3D5WBTb33iLw1mHMOvgnCnv5ZvC/uQe6m2/x0Rs7dNGF7X/PgWOQmleEVZM24PDOmVh28B7SQ1+gY1e2Tx1aYtvl13x+kd+PjKRYpEn8dvyRrHiU8jfypxQhIeI93r9nW0Qi7xjkx0JIjQ5F/pf6l5eB9K/tUwmyuH0v6TP9L0jPygUKcxAeEcf50/lEUT5CQ6N52+GfkxYXhcyvOB8pzkr8YpmfSXx0NLI/O4YpcTHgfMV8TmF+GuIzv3JmhWNeVJCBlNwff/ZFRET+HUTl+Afw7OxKBOk8h7u7O2Z3rgiXN1JIDreHUc4qeD52x91VnVChxxU8owvQPxCA2b0bCiU/4INTDxWxtH0KdCvXha3LE3jcPYCL5ouhUK4cul02xMtY4P7BiRg5pjNTWiMxy8oBHvcO4eVZB5xl7T45vwz9p1/Ai8vL4dJwP9+X6+OyMXr7bTSqGICguJZwZbJuqScQ12UlZshrI/nGAmSnfXJgIKEKqufF4yXiYDJkKs7efAR3Dx+oPtgND6RjVbeZ2OfsAY/7h2FvOI17M8AUTW1M3HIL7o9vocEbV6ZOfKCEKS1Gr4W78fjWCeydUBk5xQ+ge10b3h7ueHh2Bzq3N0EqPPEqvzKaCvm1u3RGsGcAGvfTx1Gj0g4gPqdKldrIeuKBAtzBE9UZ/P5vm1QJ6+7JYOOp1dBffAzbjBpgxUg9ON1m++TpA7lbu1iLIr8jcorKkC99+QmkYXm7jggrufbvTziwZDS23stA2bJl4Wc9GfMPugopP4b8pDCoGbpA+jOzbxznN83BRck76p9yx2oxznzz7KhHMNt6DUjyRo3qRigoqf8lB6NWrT5I/oISLK+kArkv/prEYlmvYUhj+va/yTojQ3iUfO9nWJvNxS32HP0caRl5KMl94YAzLlrOgwN7h5bKS8eAafvw0z7uiYiI/FRE5fg7keKMplIhvO7exoXr93Ds1F04OzvDJ+bT0EjIi0gMG1OGN2PasT1T4qSkUeB8DkFHBmLWrFnQ2+yADpW5z/olhlMKM/CQ1cPV5ewci/3nraEoo4Ydl1aiV+t2GL5wL5RVFVhdSjC31sXZNwl4hqGYWIfA/Vapl2NpKEY5pjxzVldlONurDcoj3P0kHLY1hS5rd77NHUiHvURypho6tm3N/+BqMyWyuLAQ+fkR/OjwlwZ4sqRloBoThQN+sZg3fSy/D1efe8DtQTmss+qGnk1aYMzc3chXkuX135hms1CnjhwLy2H05BnI+MqoXBVVZUipqkK/WUfIOV/B83O7+LpnLTCHYvZZJL+JgaJmCWW9Xj1kREcLkT8nJycHMpoa7ALvDZV3jpg1bjbWex5AYcm+REXgoG8UDKbo8O3e9HmM+4+ENJEfS6wL7Fz9hcgnnpzbC+d3XKgAJ00W4k1SCA7u2IEd3KFw+zUAAICTSURBVHXBtsh0wOvyCdjYWMLQ+AhyWM4D5vP4tD1unN1uCdZruPyGuHTpAOyfRuHZyfW4x5krLsrBtoXGfH7T3acR6XkWJ1+9h9mGo8hgybcPLZWknfLj6wm4dw4nTuxgsn0IcbNAUDV9bJvaHJqamhi+8RI6VyLwel9uKuYb6/NlXQO5ufEZODhbD/G89hSOgxaHkJn8ABdP72N5NiE8MxgmLC+Xf+tVyfz33NhXfJzbXgjzh8LuHMD+3dN5G+l3Tmzh02YbGCEp9C5WbjiBRUZGeBN3GwcfcL0HXtw4jMvchygqxprFBiz/IjyNFVxjM3aunsPXceh+Ah+/bLkSB62seNmx5/nYvWw/9q8fi10nn6NMIyVwa4+Tntjz6QvWHWEltCAnl4T12+348h+4Z78Xz+PZvf/mKg4+fYp5LP/aI67wdzmFo14emL/uNH+uPic98BZf9yx9Y8SmSjTo+/brednKCyF8/NnVg3DiP+oU4+zaZQiID4PdWguWxwgP0nNwattKPv/8lZv5/By2m+bzsq0un7RfUmRXVWoU9GZzx3g5AmLTIK8KnFv7qW2O1NgHcHjGxd/g4IED2MLqma1viMTQezBbZ48LW9cioUxl7Gl6DTdfxODdozOwuPQNbykiIiK/DrxBN5Fv4g92jqOcaOZcKyHyiTu7DOhQiCSc+WgfocMOSrgxlkzucFZNP5GbdY70D0jsrJpN6POZpzhG2numqzakeM4NXaIr9RoqePiipzR/wSyaseAEUUEitWKn8U0KE6c9oCEDpkmyhBwlTL5KNxeB9vhIRB8IfLCF5l6XhE+aTCC7wESayOrIZXGvXYNp0aESXrUibhJaLmF1B1FNNKcULtMHMiNZ/2pRNNe/lPuEWsNYoIgqQpv8JUZayXPrKDJ9R7RLA3QzKpr0e41l0kLa0Lc93XvP5YggphxT7qvdZLDbjROU4CFNmb1TCDNSztOYBXZCpDSbJneht0KYw+3QUppzjjX8dAMtOPaEl3lYz6Q5/H7fJ/3Fx4jy3rB9akcZEqdn/5P8fDvHAu8O0RLru0LkE+c3zKADT7lQLq3s2JyeJQTw1/ezZKKEq8ZUe6c3PVsGmrnLneUpIqelQ2nZuUAWzqTldUEv0nPJYflw2nTOjygrgZqysvNvRtKF/iDzIKK481No7X2JIWCPK4fpTkgyzWJ53rOueZ9cSwNMzvFpJwzake39YAo4BBq21o33kHdUfyAduM15MPycXLq6fBAd9+Lu73AyGD2ZXqUl0hSuXu6+JD/SH2ZARRnHqdXkY/x9dmLldDouPCPsD+6g14mJpMftJy/xpbGTVlM8pdHqoR2Jt9wceIymmBzlU/NeniXbx8nkOKcZ2bKHRlHkCtI/yRtRpptWxrTJg2hFC9D1YHbQYn05nZBsooguGvcm8xuhLFcaLe/TgoLYs2xzjyo0+bAX5cW8YPdyeXYUH9CIOWeJkjkPniOpON2XRozfwPpC5H9+E5N1ofiSzwCB/TMG0il2P8c8NyWoLaV0dk8t7QI6E5FKM1j7X7anHkmzR08hf3b55WW/IBvnNxRycT1N38h51sylK4b96JDbW3LTAe3ib+FCWt+nHbnHvqGRbUcS72zTy4Lm2TzgQhT+4ARdYJfCzZVjaP5x7qGXQ2vZcXickEmjWR8ep+bSdPb/ZQF7hoey5xULX/yjg1OKCjpE+me4B5gHDWozgnxZ/xKOtyc4ZNH5Ra3p6AeXhJ4baeYfnlnfzv+eneN0unR0P+3f/2kL/tLF9FUK6J6dLcV+wQklR+zbDwbH/wYhbhTPbt/gZ670VPBu+9ckkb31ZeJv8Y+k0OmrkuuxNEnkfMaJCvKCyNlHcBNbgutnz1PEV3wOZL+9T7kS8+3/eUQ7xyISqgzFUau5QuQTLYbOwrmJ0/DAywtlurL0asUo33kPAlcOx9WHXri4ZxUmmeyHlJQagr1vIyr5Kx/nFFSg264QT+574dC+68jLjkUsP8DRDtlBPug6YQhQWAgN7WogbkT0s/mHE7Sz0XWOO26vmIjHnl6wWz4Riw5eF1I/UZxbBK22zeDuFYpChUpIjHgNL9Z3L6+n/PSDO6fXAuUa4PLhTlh90pVPmzdmIFySlGDQUQ6P73rBZv9ldKmRj5hcaby4po/tOw7A65od9E8Go0xaFmQG9kN+hmR060vk1VqA8h57YHPLC26XT6H7yPlIzOsKZYTgw7q6XHd3XNOuhaykSARwQ4glKcqFH99ntjnvg7W3Bvbp1AEqN0JcwEsmd4L1yfd4ed8FBcXlkBjug7fxmrhwqBXMHO/w5YxHD8LtT4OPIv8wctzXjOwwGI0YAal2a7HDoBdGsLDDSyHDF5CWkUa7CSZoowZoDhuCvgWZ/JeSxl06c5NDMWy7B9pUyGLnLxDdF8+G1fVs3PSugFE6TC1W1oT3RT3slasK+fKASg6g2H0i7ugb4SY738qNBqBXLUC+WlVwBi2PzjdHj971+GuhwaBBcHF5DjkloG2v3vxXoFx2n8jLcd9lPiPtHYZvvYlRzVVYRBt9mDbvFCgHwWTxJ6gQ7foPAPeNp1GH5jhpMB+eT5+iy7hFqJ/iChsMQxGLP32ai0pZbnDxToDvtfco4j7pNGoHmfuXcIyl++TVhW4nNeRJafDzfKXlSq9SlU0IxolkQ3SuzQ5axeY4u5a9+mbnYPSBO2iiHM/qD0K7wS2xw6kI0v7RmNKrLeQrVYJ+vWrIKyhGShZrkP/EooSCm+vQ0XA0ONPJTbqPYn+/MrGYwY0yly/cDMPj21BWjj2l+k5FakpRKY+UpQh/hKxqXdCEnRt5pZaYPaAezjo9QN9hY1miAoavHAfDc4ko10iS/QMysrLQ0taGOhdp2wfh+3fiLDsuCartMJrl3XThPdpWy2f7+RJd5hni8LUUlKnOHhEhj/F64CY04Ybha3TH5llMZf4LtFt1QXPWv3I6yzEyPhoysd5CCqN9OyQEvRciIn9NKo7f8IOxsbFk6wQYbzoupH0LsugxXRcVv2gNMhBrFvxx/c+3kYnFQwwQy35oarfph3ZVBfFfoo7b7LfxQUCJrw4XV8Hp1Zd+5xJw0cYRsvINMKAFf+WW4syRYwj9ohoQhYWjliLnqzeRyA9DUJJFvoFv95BXzI808Xgfo3HLTgiRfw7zpdvp93g/+3POrZtGh7y4UA6Ztm9Knt/8Vi/yLfzXR469k1+R/gQTPo3oOulveUCPl4G2erBoQQ5TaSuRb+mhG5o2QJ+4sWSOvIt6hNtETmNBNpJh2Y8s6NuYHEKFkeN0Il32//Jn19d9+6Vkfk8Sjji3lEztHksiAkvHdSS7e/5UkZXN4BzjMU6uGUdbnkhGTEuNHKcfJX37aD5PSbo37UDenhepm85KQfKBUNJv2/sPo0bndKvS/JvhdHYIyOoNe9rELCw1crz9eghV0zb8OKJ1dc1EsnmbzR+rIM5bYAm2jepON/lPLjGkX68JJeXfo56zHIniH7P8E4muTaXNd/35vBQfyGTtvjpyfCaMKNsTZOgkkZ1ZO5UO+yXTVHYcvjhyHH6adIz3ChEJljP70glfIfJmL2GCF3mYlh459kgMIf1R8/gsJdmpU4e2sePBXon5Lw0lMRo+jDxePqCOAzfRhye4xazRfzlyrD97Ky/Lyz5Po3a9pUsT8WnkmFxoqKGtEP5+/vdGjsNplI7gpVJg7Ijp7Mpjd3tiKNWvVY2qVKlCNg8lX3YK83OoQ6MqTNaSdHUn0OHgLFreshE9526hJC/qyPJy+XV2etLBRcPZtQlqOuYg5bNf32l9GvJps+35z5O0c+w0GjWqB/WbvJfys9KoTQOubGWye0EU5mrGl4XGDDq+x4h2cB+lGMX3N/J1NOg1hYr5H3RX0l+7lvoyWeMuQ6iIyR5t6kVzD7jw+T88s269zqP39+z4slUqV6ZAfneCSL/vJMpJP0v6h4L43Kl+NyR5qnSjtq36kDu7NxOC3AVZZXILIbpzkD2/WN+qdFtH3K1rPb8vn95zq+SL8/kNS8nQcDg1aL6U97b5byOOHIv8KRlBt9Ci2zAMGzYMU89kY9fK8ULKP0BRDlZPn4By3Xvi1zez/deMWGSKsFOrkJl4D4WLTqHNN7/Vi/ynqToS80a0FiKfUFUtC+OTt5Gb/hqbPF6iKP+PZhayorlxRYasAp5u7YETl915+dV1o2H3KgsTu6fC1vo+kBYBhdE2WJwfjqz3QJw8kHBjE474Subgtm7bCvn54Ec2s3OLYXZtO+y3SexwPzusD4tznigftZ2Pc1QbvgLy7lux/248ixXjhsUMRNUzxKQeDXFly2jsuMut6gvEJU9F6LaSQRUWe5OVi+eO53DYKRHEDwFLuLp7FT5Mh62ppYrcmgPR9/wmXBTsc5vqzsDT5ErsHr/Dm1iE/xmYHbzBpw2eMBE52cXIYuXfRAEpBf3w6Owp5CABVy64Ia9CLVgPOwnbu2FAiBuGr3dEoYISHq9vC4cbz/k6zq0eg5Pvi5B66QEf/0Qx7gXEQLICMAnF/XbCtFdT+LFde3FxC5N9/SejgO1eesFgISahuKgI3Lh2UeEXhr60B6NSzG1w05/zsl5h8sarMJg2DI42u1hiNnbPtcP5RRWRX3c5rE7fQGFeMNa4ebH/JT6ReVphm5Pk00OPAf2Qxxo7s2c6Tpy9w8ucN4yErU8yIq46IbdGN0xOXIlTIUWAnyPMjl7k83wrOYXFyGSnPilJWNl3/wEqN68rCYt8NzHXVyO9ZldUQhxWjZoIF78IREUFIXD1DPjlxmGIvBKs74Ug6u0txB45DRklZeT5vOK/5mxs2g5rgqJY/ihs7K+ACRaboT9YF37nZ+HAiE4YvPUJSwvFCO8puJNXgKKI4xg4/yRcHaZgdfdRuM2V9TiE85YmqN7PFIsa1cWb0GOoGHcQ3Ct3cUEwpHdJIzAkCoFHpkK6gQFy2GVz/1YeLoRG4dRMaei7AF2WWCHi0W1+fwoyM9kzqw1a1gnFAcdwvm/Blw2w9ZTk+cShqMIu2SR2Qyc/heGaCwhkeaICjuPZCzfISsVim4kdXy7EeTUOH7RHL8O10Gf7GvJgLXz3GCKmyw6WHoYjCuthcfM1KoRvh0rXbQjy3Qbuu5XIP4eoHP8Ayjbsj5cPneDk5IQTlsaoUl5OSPkHkFHCBvvTWDisjSD4vZEr1xAWOzeijOZAbJ3Q7DN7FyK/LIoVUaNiOSHyiT5z1+JSo2A4XHgOV3t7VFWuCJ0pQ4TURtDpVQu1FrigW3UuLoV2y06jf9m3sLa2RlrDpZjaSAUDzc5gsHoQVh+4xX6AJ0FRWwktd1/HcPY2WaH/Eii8OM/nL9t/KWbWU8PaW9Z4eOsBqgxZgvVDVfi058SU97EdoDHiHvrX4RsH5DWw7vBRaL+5xPLYIKKWLo5tnA45dlV2WHQCNaPOMvlDrLY9BA2FMthY9BbR1+zxvnIvuF4yRIFsF+i0lezz8Jn6CL1izbc18+AJdNJSgmlKJBKuS2RDTCzQXl0BMzeZY+vzHKDpeIyum8mnnQzrhD0jamDIifto8v48ZLT74cAoFRy3vojRq/ajP3uBHLwvDTUib8H6VhRcXa+hc1mg02ondJJ6yddR2Go5JtWSwcgrp9FQk+tRWeisWAZF9MKV+cq49bII9o6LQXKaSH9zH49PWyOo3Agctl2OMrLpuHiNvXyUoPMEPbQvz15aaq/HmMYSWcv+E9GpkibW3ziEi9efIsh1B7acKbkIsyy2Wm1E0EVr2J16gv2LBkG153xsH1ud9fEEKq+/iTHttdFt1grsahSBoyceMOXGATXKaEJnxkhJFR3moXmBL79Pr9TGYmULoM18O4zQCudlsTUXY0ZLdSy8fAm1mE5ieC8ZObdtYf2YcPnyFTRTLYDHuaNIzfr0ElZOqxN0WnCuxqtDZ2xPXiYj1xyL+2pg4L4HKBtxB2nIx4kjdzGmZwvEvn6Cy17sLUXkr0l+x5+XvavHospQP5zdPRsIf4ftD+NwYL0JzM13Ilo+HlduJONVzTnsxZG9BitrQnfVxI/mANn7FqY6X4PDiKEsvzlTNtWhKniGR14uFl71xB2HTSzNAm6pinC8XgRp9kJdtQo3sqKGuexFdrmhMfov2orcok/nnXt/44yzPGZ1Sb+xxbQ+Q1CeNS9dtR56vj0MkpJBj/5dUI79nJdr1Qcy+Sy3QhP0Vo3CpQgg6lRPrH+wEZoy9TGohwrMV66C0o51yMkrbfJPTo79ijGFv4C9rPF+SVVrYtqAISiWrQRDwwb8PimuXY0c7m1TgKvh7FFrNGrSnIVkUXvqEBx/nI9C1pc69evzeUT+YYQRZJFv4NunVYiI/Br8a9MqfiAOKybQmsPX6fr102QwVJ+iUn7dFZf5aVHUf9o6Sv+edUv/UVJuW5Gd14+/1n4Gucl+NGTxGcoR4n+H/+lpFYW5ZDikOe27E0WU7s3U3j6Uwy3s/kDyWybrSwnCrXtq6Sh+UekCprLw0ypKMLZ9J3KPDSCdOiNZrICqsTy+n6152zm2F13iZlikcvVWomTuZzzpBg3QWcQCGbSoUV16xS7Nm2YgQw+i4rDDNGm7ZCE3JfmxMhqUlutK+uskc4ZCnu8m/SsSXSDcZRfVm76VZrJ2I7kV6yEXafQsCz6NvDfRxC3cAj3JtAoqOkstLENY9CyNMtgjycOY1GcgPX/7mPr3ExbdBx6mkQu5KTuRpN+0HXGzktb1Ap14LjwInpkTzIPJzQDCNLT/BuK0ChEREZH/KJM3O8JcbzAGDx6PQ07WqKL6D365+cnIlasCF/u1KMvPI/m1Ue0zF9Pb8mNlvzwKak1xbcc4fBiwFPlOZBRw8NpBOC5bhvCyrXBvZQoW3QpFfHw8jAZ1wtWcurhufBs7n7xE/IOjmLT9EqQLsnlzgNLsdj5uOh3WL+L5/PefxkFZQRa+wZeRmiODRyeN0GKBNZ+2Y3wT7HuVj+Rzd0HcILGcPFogFrExadhhsAAuL94ip0gKOa/eISQsGXlFgDbLJ1VtJuJ2dsKl5/G4eXI8Bm66BN5a6hfQ7j8VY6KO4PmEI9DizK0ql8fFo5dZ+yEY23olrvoF8vbCk16noTCvGB1U84EGYzFQ1hV7n7F9ODsPp9xeIFdaGa63bFi5OBg01sfl12+RVyyDVH8vhMVkY82u45japiVLf4u+bdfCe5o6oj5bly7yzyHFachCWOQvWLXuEMxX60OGW5YtIvIbsHylFUyWTIOG+o9VWqbNNsfeHUugWv6LS81FRP7nWLJiD3ZYLhBiPw7zTbZYu3K2EPs3KURcXCoqVuTn8fAkxERATrUKyisQIiOjUczUEeXymqigqsJ91kZMVASUNKvDeZMBKmw4hFaRkVCprA2F4hyERXNz/4EympWhoSKPlNgwZEmpoWrFcny9OfnFkJUvh6qV1ZAWFwM59cpQZop1Xmo0YtMKoKxaATI5SZDT1IZMWgQScpWgwR5PRQqaKM+99eSmIiwuDdLyStCuzK3wyUFiCkFTTZkpuWlILSoPTWW+C8hIjEK2vBYqcnMuGKnxkUjLKUZ51tec+GiosfKZ8SnQqKiCpEx5aLJ8xfnZiIjh7I3LQU5OGuoVK6EwNYqlF6JshSosHIcyFauhKCkMyYXloF1FDZlJMUjJzIdc+Sr8S39WSgKKlCt8VXH/2Vy4fAcd2jVFtaq//oooUcsTERH5KchxZtByorHFdC2y/7jO7ptw3rcZPl/waiYiIvJfR7aUYsxRgSmPqkoykJKWhXb16qhRo4ZEMS7Mws1Vw7BywzasXjYVwTWmoQ+koF6NKcbcwhM5JT4vt3GKMYdapRqoxhRjbimpFquXS+MUY47yFSWKMYcCU8b5dsorQ72SNsrKAsoaLH9VTZRhijmvGHMoqvL5JIoxhxKvGHPIKnxSjDnKalb9qBhzqGpVY2WrQ1VeCpWrVYWijBw0WT1S0iq8YswhLa/M11+jBlN0q1RieZiir1GVl6mzzmpVqQZlJiurxfIwxZhT1sppVObTP3wNU1H77yjGvxviyPF3YLHNDrVrVIWc/B8smIqI/JLojNqLlJTjvJWIHwk3cmy9fxWUioJRT6UBvHLo0yKa72D3+D6ot8ENQ8Q1KCK/OP97I8civzu/08ixqBx/B7m5+YhPSBZiIiK/PgoK8qio9Uej9P80H5XjwmC0K9MAivVbQqGSHHrPPQqzsU2B9EiMmqyHjJxMtBy3Hdv1OwCZsTDQm43ghHRUH7gBtku6Y9fw1qh/8AXaRF/B4CVW0JRKweS15zCzT21E+rpBf7kFspLjMH33fczqAhhot4RM604IjHuDIeYuWDagotAjEZF/F1E5Fvnd+J2UY9FahYiIyA+Hs1aRnVtIlPWatNljJy6zmKi4kNZNGE3ulEN7+1en56GcGfsiclo7kWyCC8m2G+i6L+fNoZhe7JlKln75tI2VdY2OohHlOvH1ciweZ0i+FEHzO06WCGI/rBZPJL1q2hQYV0jFMbdp2HAjSbqIyH+A/z1rFSK/O6K1ChEREZG/g5QUyqMzlOSlWFgG9eqpI/R1Co66hqNcWc6MvTQqt6oN39cyOP8QUFfn5gxKQb1LS1z3l4NMI6Yd+/jgSvpbTJw4kd8eB93BC59qWLBABV269cLoXeeQL3wPk2LtKcvLQKpSRVSG+JFM5Pfk9OnTWLNmzScHJSIiIv8vROVYRETk50HEVFRfFHC2jRhxKTmorqGIJixcWCBZpZf2PhqV1fNQj4XzBG9oOa9D0KgyK5sKyFSrhJGDdODo6MhvT3xfY3qV56gzMRaPHt7FxdkDea93IiL/K0yYMAFz587FhQsXcODAAURHRwspIiIifwdRORYREfl5FBZDQ7sCNpxwxn1bEzxTH4CummpweLIHq3Y74P79Ezjirg6zDgrY++IYrKysmOwsy5+HvZ0J0t16I1ehNYx6F2Hxqfss7T6mj5uIZ/ka0O+XBFe3+9iy3xOZCW8Qmyu0KSLyP4CWlhb09fUxdepU7Nu3D3Z2ElfERKU9tImIiPw14oI8ERGRH45o51hEpDSt2/ZARppkhHfz5s3Q0dHBu3fvMGjQIF7G8fbtW/7/iBEjEBgYyIe1tbVx584dPlyvHvd9RcLZs2fRqlUruLi4YODAgYIUmDPPDPv2bhJiIiI/DtHOsYiIiIiIiMjfplff0bzyy22cYsxRt27dj7IPijHHlStXPso+KMYcJfNyijFHx44dMXv2bH4eMjcHWVOrJi8XERH5dkTlWERERERE5BeHm0KxY8cOXL16FRYWFhg/fjzU1dX5RakiIiLfhzitQkRE5IcjTqsQESnNP2nn2NbWFunp6Zg1axZUVVUFqYTZxhYYMqCzEBMR+XEcPuYMm/2LRScgIiIiIt/Cv60cn1k9BRkjHTC7jSBgLBhQC+7plfDB6WudAcZwWDdViH2dnNT3sJw0Fq4pcshTbAS7szvRvEJpheSfxm7ZeFQ3PoPetQTBP8orGAzaAuubdkL828h7dwcbw3tjQ29BwAj1OYojybNKyf4M1z1rENffBFMbcWb8/rf4WU5AdA02oHev9kJMROTHceCIM87YmYpOQERERES+Bc4JSEpqhhD7+ZxeNZlsngkRgfljh1KoEP5mkp5ygwmUnFXIRwuyg2lan8EUxsd+FLdptsVtIfwjCCT9gdOF8Lfz5KwZrXITIn+XgihaNVtfiPxvIToBEfnd+J2cgMisY0jUZBEREZEfw6Wr9zFoQGcoKspLBMHWWHo+E/3blF4s5Gq9FIcfF6Ig7iWMTbehY9+RuLNDD/ahsih4vgdW7soY1KEmHLfORUQa4G6zEJeSGqBX0yLMrNsHUdqVUF6jEm5YGOFslDxywk/h8F15tErfAp2p9mjTTBV6K05gwMh+cL/siE5jJ6HUmG9qKGZNGI4chYo4vW87oso2h0b2WYyYexnlVZSR+coBqW23YFqv2nx2aTk1DBwxFJqKioCPHcZuuYMyxa+w3uwkRo/ri82Du6Cgsy5qqUXDoEkvdNWthbEDN0FKUxXFia5YcjQGStnvsH/rWqDxGBS7msLUNQ4y752w9rA3xgzuCO9N01B22GI0Uw7HUuOlKJSTx9vLFtjnp4YeFVMxfbIxZMqVxY715lBq2BdahWHQWXYAqtJZsFi9AdV6j4JSygkMnX4KZcqWgapMFAx1l0GxrDJ2mKyGauu2cFkwF37V2yPi5DxcTWuCluqZ8Ioi1NBU5vcTGa+xzHgJa1tB0rZXAbLOz8ejog4Y1OUtdAZthYyGKrKSL2CTTycMrf8Qg9vpIllFE0+sZuFtrTEo62ePpTsuQS4nBvrGM+Gr3BEDm9VDprcj/BqMhsrr+8hUrIhySh/G8n9vXG97YkDfjkLsx3H/oTd6dm8txEREfhyvgt7zo8blyv0GX4IEJVlERETkh8GNHGdk5hDlJZHjoUO00rAbAZ3oEAt7RgqZGAcW6NJuZx8hxohzppHjTIUIkW7/UeSRHEeXDjvx8dM7Z9LIZSdYKJx0m3WiXE6Y50pjxq/iQh/hRo4t72UTFWbQOPbY800imlEBZHHwIB0UtvcpRC8dx9GMUwmSQq/PsD4uoLzo7TT6kGRs+Oo2PVp2PoIPl6Iwk2azep+G8T0gL2s9Wu1RROZM5hbCSaJIv3Ebyiq+QxMWcf0lCrxgRnP3OxM7KhIyg6kxqlNshmRU+szaWXQiPI10WR0+sUwQ/4gGddElvjoBl33GZOrKdoYj0J71dx3lxT6gR2xXKeMFtWVl93izcNpm0tn5ks92fY8+LbvCueX+QCDN6DVREkw6T9NMz0jCJflC259Gjl1owlJJmbceO8iQPzUPaJLuDl6W6LeLOh7OIMP6oFsxvIgCt/WkhWck59nr3DKaeZod/P8xxJFjkd8N0X20iIiIyHdSWFgIyKtjgoEBNi6djCXWFjBg4fZVhQwMo93bkX9mFYYOHoTRG24D0ZG4fNYWw4YN47c4+QKgQAuhV7j4SKj0aQkFoayMjIwkkJCFspWqSMIl0CijxGVCrdaNOS/WKNdzKCYZGsJQ2GqqAmlZ6tDQ0JQUqFkTgzoVo7CIoCnIqlWrirCQED78gaTwV4hIyYc3C8vLS3pTpkEtvEyQ/oI5IEK5cuX5UKPRa9El6CDGsv0aPGsNMtOyEYhUjBzQnd/XE8/jkR9dgDCWV46rqEIXHLEZi/ksrUerOjjvnYKMVxewub+G5PgsPwfDjTUhnS8Ng34sPvE8BhgARbKsLBVCXUODaxY5mVJo2JBzy/0JeQVhRF9dDYqSUGlY20dtx5Vqu3KShZDIjmV5yT6VpIyKZH65tIY6asgVIFt7CipV4kVo1LCRJMCQZ2WTEhOFmIiIiMi/j6gci4iI/IdQxbKjTrh24zIa31gCzyodoD9hFpycnD5uHVKu4nr5PSx8GUOTU5g6+YnCfPanahVkhgZLBN9JpQZtERz8ThIJCMDNADXIS0vcWnO06tsPWa6HhBhHHJZNn48CTRXojmiIrKxMXpry7BV61C9GOgsnZ7FOZWTgSqAvn/YJeUzYe5nfp9l1ImAbUwVTWIkrru4f93VWBzk0qlsT2VlZfInKjQbw8vsvjuCW4zXU7Nofq9zoY/6DK6fj2bnjsHzExTdCJqsLPsxk+YCalhK8vDiV+/uo1LB/qbYLNBoIKX9NarE8Kic4IMBfEn/z9pMN38yoKNSpW1eIiYiIiPz7iMqxiIjIz6eOAbbr9xQin4i4ZY1ug0ZgxLBxSNfbi2YaTbF4ak10GshkI0bAzP4qMqr3xGDF8yw+EiuDO0De6zg8k4QKeNpj7fQq6MLKDB8xEOcfflLEPpCfIwQ+o277CZibborBQ0dg6IEovH+3HLFpJWYla3bGyWPzMLV9f74/PQaswIzDx1CbKbrGdjdwwHQqkw/ACUzHovrSWPbOAfaGgzBpmQV6NG6BvLwioSIg680DdBgg2a9rmW0wrZk69r19ginjh/GyaXMtEZ9XDubmXeESnQDkJOP4qkl82oie2zBy9hC0HL4XNS72wbDhI9Cnwxg4h8ah/iAdrOjO1TsRZWo0gcuBQ0jJqi60CnSfsApNHumyYzMCXSavQUzKH/1sv3N3xPxjL4QY4wttS2mtwPk1OgjI+Gs/3TVkUmHpmwbbZlIYMUQH56UKoaUlGWUPfZOCST2KcX2DHu74x/MyERERkX8T0ZSbiIjID0e0c/z/IQSTVnnh1MbxQvzX5LajNSr0MkCLSrm4NHsgZJacwXCN15hi6gGHI8uFXP87/CxTbuabbLF25WwhJiLy4xDdR4uIiIiI/CRqY27dYHhFCdFflL7ta2OP2SzMmmWMGD03DG9UER4PQzFv6/+eYiwiIvLfRlSORURERP7jdJ5hhnYlFi7+ktTph6NHj/KbcQfJ4smOY6ahg2SdoIiIiMh/BlE5FhEREREREflLUqIvYPWVJDia6cFZWLf6kXfOmLRgtxD5I0fvlLbyUposbBrQB507d2bbJJSY7f5tvHOBo58Q/gI3N+vhXqgQ+QlcslyAy5996fGwXoLjX+zDQ6w+8EgIf0acH7Y/5gLu2Hvakxf9gawwTO8/BElfWUfxVzgsn4Vbf2/98m+NqByLiIj8RKJg0Kw9UnOj8cQ3UpCVJvypHZa5CpEvcPOYKcwsz+HcuXNYP3kIdjn7CCk/gkQcmD0ZJdbR/Sk2O5bCfPtRvm9mE/vj1IsYIUVE5NenqDAd8RmFmGhhg4GfGxjJz0RUbLIQ+Zwb8Hz+9XvhqtlQdNh7DY8fP4bzuUXYPmSMkPJtXHB0RFqeEPkDvjiVPww9S/sb+qFkJMYi/ZORG56clDikfSaT0A0bjLsK4dJ4eZxDcjYX6gK5F8fw4EtTq6gAz27dQFGxEP9O0uKikclZ+REphagci4iI/HTk5GVQUCjROFPee+DEiRP8FhkXgz3LZuLS6f2I5kygfSQf7o7XkVmYCcd7KbBYMRZjx47FmpPHIRMhGfYozsvEGceTfD2vYnOBwiw4nTyJB5cv87Ln76JxRWgngf/BAUI9JGmXngijWgVpuCrkufk0BGG+97D7yCk4OvmgkCV7up6TpPmn8dnferjj3r2buHDFCyn3zPBWXQdrl87i+7bJwQ6Pne+BbyorgS/HbdGp3C9kOuvXTUhWQ8fiwaMAJEX4wdv7HstzB5nZEbgg5L8fwrUM5Ma94eMOpxyRnsuOXU4k7tz7kS8GIr8liY8wfrSpEBHIeY8pXbogM0+iYZnPHAOX97FYZjABJiYmGKtrhnB2IctLp+NVkTqs9YbifCCQl56A7dNHYiHL03T4WLxPzUdRfg42LJnJl5s0WRdvUzKwd+VJHF7eFVc838Pv8l4MMTSBidFIWJzkRkNzkJIijZCwCL7tclXb4eT1C3w44+0D6OnOgMkifYyYZ43cgmIkBN7H8vl6WDJXDwOXOSEr3gs719hj5YoliIx5gqnTl/Bt687WgzfTx8MPrUa/Ic35+vyvWEnaNpmKDbb3gMxYWC0agcVLTTBFfzVehKbitft2zLnOZ8fpVZNh6x0F/bqdob98Oa55PMTmZUZ8/SYTOuGURzxyYgJhMnM0TJYtxsAZGxCZko/cV2eRpcradneE3sK5MDHQRe9NJ0FlgCf2W/H0XcmXCBcYbLrF/r/F9FbtsNzABMajO+HgRWesHbkBm41GITgzD3r91NFj3RmkxfjAxKG0WUgltunps3bmTcTCnULnw90xboYx66sBDMwcJLLo59DVnc1kczB1vjXy2PHMi3+MonJA0PWDGMTaNjEejfV27nx2f2cbLF+2BHMn9MHGcwFMkgIj7WqYY2yG+dOGYbGNF5/vt4R3BSIiIiLyA+E85KWkZrBQJOk3bUfZdJu66l8iSvCk/t3GUTGXyfsozd50mrI8R9FSF05AlBwVSp7X7alXr2HkmpPPy46tGkdjVp2hV69eUVKuREaUT+fmdqedfnlEsW5M5xxB+fnRxH4Sad3tMMrwOEQ1a3amJyxnuMNMmnTyGUU9tKMuY9bwbW+e2ods70XQ/R39aK07XyFtXjiRrr0OpSmow+fxt51DlRc6EmVHUSNWr29MFh3uCzLYfZel5tKuQQ3o1ssveYcqoFMrhtMurnF6TF2HLqfMgmCaXLUjFfE77k76c/bR+3uLqOWU42xPiNZPHUxno1ggM5YGD+hLwclZ1Je16RpLVBRkRT3nnubz+bjsoX5Dx9AzH3+KS//oa0/kF+Df8JAX/f4dvXK3Y/fHUP7+CU+SeHTkuLd1LFnFs0DWXUKthZTks5fso1m8KJXmtQLt5TwtJq6gbnb5ZNMZdDqS6I2tNi3hLn/GO6cthKrLKD/tEu1/zrlozKa9uqAN97nU66S/9RH7H0Bju4/nBDwm42fQE+6yzU+luUMHsvu8G81YsZ/evecaLiTTPp3pmn8anzfipDHtCssi696DyIeVKYr3odrsnghhyReWtabtoZyDx9lk6faSvzckpNGcWtXJJ6qA3Yb+NKHrKEEuwfvSZtI9IbjofH6I0Ho7ZfoakvE1ichx5SSy9U+kiaydNFYF+dvTxHkHKVOSzOOwaiptchHu+wfm1PvoU3IcDjrxLpkasnJvBGeUeyY1p71vJOHSOJP+Rlf2/w1N6zBYIoo6Q2h1mMJv65HpLYmI4m7S6EkrhUgJMt7y7USlSvZ658xRdCs3i1ZXAj0P584D0f+1dx7gUVVbG/5CINTQe+9FsYBYLxbk2rGgF1SwoRBUFEHEigh2REUECyBYUQQEUbD8qKioCCIgCAKh995bEpLzn3dmtgxDGqhIMuvlmSczZ845k4R8+1t77bX3/u75m7zn5+z3XjxB3me/7wgcW/J2B++en/Z6A2rJ+zRxsdf6zCsDx6HXTe28H/as97o1aB9o+zbPesO7/Iae/rMt3u2VK3lz1+/3n/7oXXXxLYHzHbZDnmEYxl8iRlWLx0olSypl8kh9nub7daN2GvLwtVq4pZHeYIh02TsqeevnanBuK33zzSe6oEC+wJW3PP6+3r7/EpUpsVkXNj5Otw/4Qlr1q1oNLKbbG8RJ5c7Xe48W0Es/xQQyKreeXlVFjqurhiecoDP811XOOEPvf7tdH/e4RQnPPeZ/J9KDT9ym9ue9pvh6TTW2W49AtvfBfu/rsrpSoSbV/FfSPY9O0ij/+1PBipo+/Umd9PpmlSwunX7Ouf67+7VyRZoKFSoUOPcgNv6oD+eVVxc+XGeqeZFp+mxpfuUrwtZ1ByiYZ5OatWkrfsqKxQvq09c/lAqX04QvJqrmomEqev9QXVBOylMnQSUHXqepK6WTLuys//tkpBrUrambihbUT7bRnJEJJcqWV81qFVVSpVSpUiWVLhLUFDRu21t3d/1I84Y9o6vv+Z9KVr5QN1eMUb06d2r/SU0Ue+DUAPn8P9/f55+gc0PLldeq6YeqhZKUr+jleuGUQqpX+3ptqNYi+KZjYaJGff+h6tWrF3iM+GmiFi7wj+crpgGffu7r/Fu9+siNeqt1RX2ZlqYfV89Ti4bFAuc2e3S8Zn63U217/EcnF4xRoytfF/tWot+UHTNUYKP/8109QPGDbtNx/vkX3NpbSkrSz0tXqGBB/5vduVWppQ6uBVm3bEHg9xDg5JPUts4+JXmFg6//JEZMH01jAOf4tup06jqdGPr+l2z1f6SF0/XIReWCP9Otb6rgouXKF09WfYeSqnZQ8dBmlCf47U9WFCgQ2p+yYgUlnOuHZynBbHqAsqUV698zPfKpqf8zBv+DatarpNUrk/TlOr9NKUALKJVqXF9zl8fq+zlSkSL+N+dT6KwmmrqggPKU8X+2BYs1csq4P/9f3vp2oubML6sbb56mPDExenrykoPKDOLy+r+REiWU8xdsyxgLjg3D+Fco4huc8tTW5zvXqdB33+qVTs3Ubch3OqFAT7Vnf4jqN2llv9P13bh31LZtB/2QlOIHmpP15IBPVDg+XqXK/UfT5yYq38RXNWkzw8Gr9P2krzVp0iRVvLCL2jTwFJijQu2Cb7Qx7BntKBSrfL6XTJ02OXD+yDkVNG1uRzW67BGNeam5pvrHrrq0lWb65rdzenA3uTzx+zXzp0mB87/cdI5W96iibX4wGrxvQbVqXU3LwrdB9tL0aNcEzVqbpjTvwGcXyOcbS0x6Ta+nPHmCx297ebi6X1xWE0a9rSYX3qs9KUkaM+aXwGdP/Pp7dfZ/X418T/9j8lu68bY79P0PU/TKxh06K7TztWGkR4FChRWXv6D+27KC4n0NFYw78HcYX7aCWgxP0I39Cuvh9v/R5GfP1VsbPC1YPFzlUgspb8ROiyl+sHhc7URNDc0T2759u/8nHK/d71+iTjPWacGij1UvVL70J3VrqM3Ft2nBggWBx7IVq3TT8et1V7PTtGMv0WceFfSDt4tb3+a/zqNa87dp8kr/e/DPTVy8XG/fWE4PvPSHZqZ6+u3rHprmX4H80lIVCGBjYgrozg+nKdE/P6HOEj09u4hO8o/vowypcDHl2XLwpMAylWtq/Xo/ioQ5v2v4b/nk7U/RmjXB4t5tu3YH7h8sf4JY/efGXlrs33/ymFt1wkuzVTX1Dw2bHfweFyQu1fin/qfd5Vsrf3wRpa0Yoh3BCixt2nTQTkXZIjUtrJB68xalhgLbSPbrB+0L/P6kZWu368QKcWrqt6H7koIb9Gz5baHqVUrVqTWk3aHdNvdMnanGNZOUtsX/qepU13XN2vz5/7J0+UrdXnGmTn7wRKV4np7/b53Abp/RhAXHhmEcfXy3WbzBb8y3LtE7Y2fovGbN1OnBjnpx7Gyt2X+5tm4N1uRVbtBILdp01PDhA7Xjtfe1rfiJ2vDLcH341R+B97Xse62Nb6gGJx2vl1rFK2+9pmrm32vv0lnaHjK1oLEdsLcAS5J1VufntXPR7sBnn1lqg1b4weXi7z/R1jrNAvc4vdx+Lfe/jT1aHMhOdWvTRNuTSwXeq5f8q/5YtlXen46RR2fc9ZS+GPaaZlCcqRT9+PYjmpf/PNU78TT9t9omfR3w5SX6aWtNNangKXnBD9rq33juyE81eEYepYZqsOHLUR+r+BnNdFmrq7R/Yj+tPq61zlo0UlWaNtMFF/xXs36YrV1bFmveplp6d9ggXXzB+apVOn3jNIyDKN1UH455JvQijLzF9eKAM5Xn4qt0SmGp2pVP652e/dSv32PanFRI0z7+XJt211WDWD9IO+4yxfpBX802P2j/c83U+7l+evSV0TqnsR9SnN5VX786yL/ucf26rpimfPye3zmsraU/DNWk2SXVpa0fiPXgvv2U0PlhLdpXTr37dtE1Z1+vPv6xfj266W2dp1aFY/XirHF68+nOgXM7XtpCX/nauuDUWA18pJ+eGzBY7c+toMl/rFHFU7powtsDtGrGh7rhwWcC5/+ytrQurVNQD/S7UPPW+sFu3Anq1vHk0Gf31P0vjFaTC25W+W/aq8/z/vcy4A99P6ad8lZsq22vdFVf/+f+bvYGpe3bq8INTw3+jtZMV7d7gt/P8AHT9dbV5XTd89M04/k2gWN3t7hM704NzYHIW0q/TnlHvR97WP0e6arXZ9JV94P6T97UnBWhiDkL9hVopW/feVIr9yQrbc5PGpO3rnZtWqB+40m3H6Bc1ep65MkX1O/+m7Skzo1qVLiwXpgzQU8/8bj/fT2itxY31gMnx+rhbybpg/7+99Ovlx79qoqePyOvYs64SMmpdfRAxxPUyv+9Bv5fOt2vhbFV9Pj/Fuk5//+294g1KrxphkJTLaKDUHmFYRjGP8aBmuON3ou33entTJruvfh2oAjXW/hRb69Vq1Ze69Z3efN3eN7mRdO81tff5M3cxPnpscJ7rHVr/3wenb3FoQLAlB0bvFtuuC5wvO/7P3jevg1et+vbeOu4zdaZXo9HQzWeq8d7T4U++4fX7w7dp7dHia//4aHX/j3G/hI455Mn/dddP/AojXyjV/vAezfcPNDb7b+eOOgJ78tFgdNCzPfuC11/fffRXlLoqLdpwZ/3nbWSKz1vbeJY71r/de9Ro7x+L3/sLfrlPe/14Ed6XuIXofPbeu8vCtaFbp/7ZejY9d6nyzcGjhk5l3+j5jg6+dm7+YnPQs9zLn07XO/939LQi2OU3FRzbNtHG4bxj2PbRxvGwdj20UePMQ9erULtxxy6/FyO4Rs9NTSfHrnt7NDrYxPbPtowDMMwDCMHcPWzOTkwhvOP+cA4t2HBsWEYhmEYhmGEsODYMIxjmK2a9uORb3TheWn6vwljNXbsgceUpUe4z+qf7Ncfkz7V3nR3uzp6/Pj9lOBqHH+yWdN+ZqH+dEhN1qzV6W+DtXLuz0rcvE/TPp2gfcEJ74ewenV6W3PBfs38bLy2BifFH8KW1ZF7DB/gj8lTtDmDXc3Y0OXTcR/ry+kzNW1aaPJlNpm3elfomfF3s2nFm+r43np9PaSvpkX+ScwbrXOv7Rl6Ecka9R4+O/Q8Hfbv1fhPB+nuhI7q1KmTbu34iBbsDL2XXdbOVJ2G12h7ylwNHck6Frv1xTOdlZIqjerWQi9NWBg8z+fb3s304oRM9ps+TH4c3Ufvp3s7fu5stF/TXlHL7m+EXmRFsn557Aqxj8iT7a7WuIj/h3fuuzbdbapT9k3V0K/XhF4dzJrvh+qFn1j14xd1eXmi/wmGBceGYRzDLNPQgSNCzw8fLzVVjw2covNatlTL0OPMGsG1P4+U7Yum6Lov4xVaVvRfY8CLr2tb6HmQUjrtjONDzw9m6/oReu3r9BdBnj5usCYuLqDTLr9MBQ5eejnEz3q89weh55HkVaNLW6hEaHnWg5mrh27vG3p+KA0KzVL/EZNDrw5m3dLhemVhLV3UJFlDh4wPHc0aL+0T9f8oMfTKSJfUJG3csDX0IkRastavWed3JoMvd2zeoN1+R2nPppVauXKl1m850OEYuzlO517fXg1DZaUpO9YFzklJPrBu276tawPH1m70P8dL1fpVX+udL3/X1l1J8vYnBd7jsTc5uCPf4s976mvveg0YPEivvPKKnrzrNLXp9KaStE/bNm70z13rP/Nj6J0bAtet3nBgh7n9u7cEjm3ZtkuL5m5S3nzHqfWljbRne6KeeHiA1m7eq+S5oV3j0iFlJ/f3v9fNwZ8xJWm7/EsC7N66UTuTU7V59Xq/g7hK2/Yma/e24Pk89vPtp/ymYW8vUxuWMd6/S6tD723bG/q5v5jr/9y7tHn9xsA9/d+ONm8NLqe2N/R72p9yoCeQsj34+1yzMbg0RFqqf61//Rr/2NpN25SyZ42efvxTbdi0Q1u+GKvAKpFemtb639/KlWu0x/997PabuB3rV2kfPYMQeeMa6qrTyvjPkrV5wwZt9O/H5yT7/29fjh+u7ZvWKjW2iZou6auv5yf7wfROrd36VxMJORcLjg3DOPosf1ePvzcl9CKMzT/rkkaN1Mh/3D1iVfDYjnm6InQsMeSJPw28LfD6imcm+a82qmu7DsE3vu2tW/t/H3g6qPNlWp434wi2f6cLAvf432sHgqkPHrwkcOzK54Lbp4Z/dvtXfw4c+u2TD9S7d3Dng43fDwq816jphdq2O5hKfvPh1oFj1w0Jrqn6Sd+7FUya7dNTF5+n2etn66mb+f7P05epaerZ9tLA+Rfd0DVwPnS97pzAsW6jQpsArJmg5nyO/3j0m+ChQ5mlB+59OfAsdeFrOjN0/vCfFuvsSjdr8M2V9O5PP+mu2+4OnHMQBffqgabNtIn4ZsMkXRi6ttv43XqyXS8NHtJdtzxxcJD66/hX9MGKPXq8+dma5/v+t289ogcGDw5cd/vQ3/XWo09r8PjB+u9tg9T+ghu0KDKhe0qC9v40Umu1W/2vbaplG4MBg3b8oSYNbteX95+ogT8dWLJq74T7Ave+sPNroSPSd483Dxxr2bW//+tdpzNir9Tgexqr//hMspTRztZfdNftz4VeOHbpodoVtDM0dPDInbdrwYrpKlxmlEqXK6dbS8Xr6/VS8XwrVb94Eb0cX1IfL5K2Lf9NccXaaE9cnP7X6GZ9v3KvknZuUsGST6lsxUp69qySGrk61g9YY1WuaAHFF8mvD24vquGr4xS3bqxa3zvY/7Qdem/wt+rx3wOd1orHX64f32mn/Jqmlpd21da4vEr1A+N8RctpVXKcBp9VSo98HEyZXt38Tq3xP//zV2gDiipWk9TyntHKExurwv4d4lhXPGKNZljiFZVW/6K4omW1PyZOXUvHa+AXi7Ry2tPqGdLYpy900Qd/bFKHyuX1665UFd78mWpd2ENx/ufFffeoOg6ZpeWfjdbGc2/0RbdX18XH67ftJRW3/ledf/n18mLzqkyRQorNs1QP39AleFO/s/nwsx9rzfRPVKjkrf73Fqd8TR/SYv/Pf++auYorXkHb0+LUqWxx9ftqvXZtHKHS/n1X+j/3nWVK6OMN+QObG+XNl9fvaEj5SvsdlttjNXTdbsUtHKM7Xv+KvVgU67d9bODhSNr9mR5+n2Xm5uuW05pr9Lo4rXmmqu74cI6q7JykWP97jfH/tbzqHPV8d5xiYvIob2z0hogWHBuGcfTZv0c79hw6pt73odfU7ceZmjlzploWm6kte6UfPluuAf6xyS9forr9ftGCT/pq0N7/+efM0LPFP9T9b87XyTve0PgN0rTPeunNx7/Ujl1z9dH4WNUI3TeST3vdpJVnvRj4nC7Lr/KD11X6ftB9+qJCj8CxR/P2V78v52nw1cfrpv8Lfj8dGu7U2p1r9OHE5bqKTUo0V3e9kqjPp8zUz18O0uwVOzXtlTu1uMF9/vlTde+qLhrw3TLt/26g9gTiZk87N25UnrhYTV8h/TjzW100+UGpTd/A/d95pJUfOO/X0BvOVYO7RvnHpuuk8Rfrh70pql2phV6ewfcxTU22j1Zovf8IUrRtmx+BbluivPVG6HP/njOnfqkiuzbp181vKuHt1brxrLM0cOiA0PlhpCZp7Y/fKo/fl7iw3Pl6/Jfgz9xs/+fq/HovJXTo6we7LZSSNEX3dOigfoOHK7nyZbq+qqcdGzfIy+vfYu1oJW6ooZkzftXGvuer4f19lNAiQV8N7ag3Jr6o5d+OV98ed+vhp8aEVp2OVbX8q/T5nMK658MfVL1MaGeyog00/Y/XlTByh+46q17g0MY/PlOhN2rop2n+7+mCDWp53zBtWfW5RtQdGPg+L80zSS/8UV5TvY+V0H+G7mlxYuA642DefvohXXZjD40c+6w6+P+P/b9aG3wjT0ndP66n7pnmB5KJwzVw7klq5AfFq7x7VXD5WH3mn7LYPzVvXDCTWPQs/3+vmLT2tZM1aM03quef++6UYfyJK398ipbsHKj8G77Vy34AvdDvI5YqV1wnVCunvFu+0Vtr2uvBM8qp3KmddfquLzVu2Ta/ozVdcaENcAL4z91gRLXTmurEcmW0ffLzumvMUp1Zq5x6//iTnm55nbxv/Q5Tr8d0uv/513R70z+b/HIe1aoQpwJF4lXjtLNVvoQffFY9S10/GKHx48cHHqMHfKuK8QX14/DT1O3TXapRuZxG+D/33be+q1JFDy4qIMhkjZ1mtaopX+HCOjUuWVv9zyt3w1sa2vFkTZ+9Umef3oSN9FT0hPO0btcalWtylWZ8NVLlKxTTSTVKq2ihQ6PzqYOu1IfrP1cV/16bv3hcczYW0epxDXX/tzvU0P9djV3xme694A4V9WXR1u/An+7/3Akvd1TimnixD2fZ0oUU48f3MUsW6OrBl6jzSfVUrvldern9RYpJkwqXKqe4vOmHeGVOOkd3nFpOpz83Wgtn71VZv6EsUqKMGDiKPe1UVV27QnnzF1aZooGGLiqx4NgwjKNCXrak27dBA3r10nVdXtMLHdupl/88uDlGkItanas3rrtFAwcOUHLVc1WyoNT0uktUzXeDImc3VUL8Pk1+9X6dcs4l/tkxOu7ai9R33BJd2vk+ffLzFr3Y90rdfPxG/ZH4hxJPvzpwzyWTRqqP/zl81pN9+gVqhd/55GslLftKgwcP1rz4kzXhq9X6+sUXtH/LT4FjM5Lj9cP3c9X82ZH64H//0yD/2PpiTVQhfrO2pfhRASybrsINTld538XzF66hcxqU1LhJc3RKk9P8N+N0SsfL1fnrNBU4ZFUjT2UrVw4YnM67Rav7Pqyn/ftPmLvHDwJS1X7491o9daT/fQzV6pK19daEZA17p4/6tO+iF1/or2KN/id2w82Q4uU14tGT9OATz+rJvsN0YrPTlTctFARlQmB01g9unho7UANu6Kj+L/VT/uOv1J/+mLxVrz89SDVPPFUXX3q5zjy5euiNIGn7FurMZhewTZlOrVVH+5LCVwktq+YtWujc//i/L2+OJq0LDqdXqlBCixZnVM98gC3T7tHdHToFSlnKn3eBlo/+P5WsfInO2P6FBj/6gBJeHKeUwKh+8L5G+tz88DOa8O6Tat3yQQ0ZMkT3/LdC6B2pRqN2euuGpzVy0Avq1/cm7Vv8tSrHXKdew5PU67Y6So4YhCGpuKpAa1UI3aJo0XjpZ19cGxarZnw99Rq0WEOfC+0t7diwUxM//yGgRR7L85VQtSJV1ewi//849UAJgPZu1RtDh2mn33/Onz/4B5i6YYMG9mofuO7a7sPUo9+tSpn8gkqUCgaewa2Xw//mDuD5nb9+11+nFv7fII//3X2e1ucvqZSf/CDSD3gDlC+vE2rEKNVjr72D4a8qlQ5piQv06sA2GuF/Dzc1raSPftvkB7Zvq0gB/3vIU1CDp41W0qThurd9a938zESxK35GbMp/vcqE2oaSJUr6DWSaUrdU0HNP+L9z//5Xdh+lRwfe4Otpt/89BpfAzOf/LtxOn9w6xv/Yfbt2q+4Jx/lBfOCwihULtU+ZkM+NqBUpouOKpyj8V69ChZSWlMFkgCjCgmPDMI4K+1N84/Qjxbv9hn/ES3eo26A3AybQvGboBJ8TL7hVIz55Sx3btdUlDYtpTkRpJOQv7sdpyaHszsaN0sIUFax4ib558il9eGeCnkzYpB4Pvad7u93in5Cmms1a6wH/c/isHg90DQRYlas31hXtuiohIUEJjwzX+/eermLnt9JV7boHjz04VB891Uq1mrTSR9+NVkf/2DsdL9VPO+JViL1qwTeqXdsPrhUo7N88ZX8wreutXef/vPkZbVUSx/zIc8chE9SO09Bvx+lh//57/q+nnpubT7X8o9e0uzvwfTzUb5ze+F9hnXPj/Xpn6Etqd/U5alajqDZkMAEuSCFd+/jLev3RB9Xm9IKqGXezYg+N0NNlv/9fdOpVnTR8xCC1b3uFLqwbpyWuHDKuhO7u/ZbuuTtB455PUKceg7XR99Bdcw5MdAqHHbKTdvkneKlaNOddXXfJZVpW5lJ17vGYzi8ftJ79/u8lLl86Y94R5C1ynPbtC/3Q27dr5vJ8flDSQb9VvlkJT/TRuz2uySAsMg4hb7xq16kSenGA/KXL6rFKb6n35KZqeUkNzfp2qt7bOsLXTUttXBev2EC/40DIgJxrnNVI7778hygdnjf3d6l+Me36/EH1nzPZv66Nts7dr+RQoJWc7H+tf7K6XV5fdzwY1OP9Xe5VDT+Wu/6x/rr06Z+1K4kP2a9pXwzVG9MKIbE/ib/wSp171ZPq6V/3wWvP6tqLzlfcTcM1eOj0QH30plX8HR7ca0zLJDrdsWuPqnQZrMnfB4PYjd98qxrn19fWpIqa88s0v+VIUuLy1coTqkwIBJ+7N2hviRMD3/s745/V02OXq9Z/pEXLlgf+zufO2aj2D/XSi2/00cqHOwRqkoNtVV4l7d0WyGtv/GGaBi8touMbl9KYtxcHPvvnX2f5P3aq8l/cWxe26B+4/+hBT+n6i89UalKo3OhPvECwHvi2NksFK9VQrTkvaMl6/3N2b9TnL4zkncMiye9YJrk2NTFRcRUrBp9HMRYcG4Zx9KmVoOc6nBt6cYCnbm2lT1ZL+QpTVVdEsYcmcXRDr3F674lb/Wf79cSdQ/TO6xeoSJ06On3VGPVsd64qNzhHc1dJVzbxzTFsS+Zw7rvlFA14Lli7OqFTNXUbPUc3XN9cAx8Izraf1PNsdRg4Ue/d30bvhmZ+5ytcUjHJ1VWrdqjwucK1Kv7Hu/rSj4G3rvpadRNG6KG7rtErLzEJbbM6XTVEM9oUVpH/3KW7n/1Ee7fM1Gu+gQU6CY4JnfzPDtbH1qlaU0Xy59GXQ9qq//D/Cxwb1La2+vy2V20vvFxTfCMsUbyof7TMn4adLpsTVbX6hVrnO3HNKqWl48toz74YLV0SlqKPIDU1LTBDPa8fp97bqqW+Wu8H+kXIqFVhhFubN/sfHsaDL43QwCc6qLQfvBQ5oW7A4PcdPDswEBQlc9eYWNU8vq1GfD5BrZuUDL0bZNHS3TrpJCYJZU6tc57RkGsKatUO6bUbL9VdQ7vK84PqHTsIE6brrWE/aenyVfLSYrVipR+oGBlT/CQ91efO0ItwCumxxy5TnSuvVDX/1YlXddD9DauoSpWLddolF+qj55/Wpt21/9w+Op/faap94QPqnXynalaroifGzNU5J3oqcM3Herv16f5156nYxe306VOdtd+7RMtG3qSe761Tr35d1Lg2962iN2ZtUVFGA87srNmP79I5tar5x6ur9/dVNGXQdQeVChev2FJDyj+vqv51Veu11JZ6foBfrY0+O2ey6lWvov91f0+1jy+spD8noVVXo1rzVOX857SvUPnQsQOckOQHtue11+sV3lK1qlXU4ssa+vjx61TrtJtUd0hLVatSS6vSKio1tH10IHNcqIwmvXhj4Huv0nCYxt3fWM1vGaX5X3we+DtvsP5d1eC9ypfr5sVLFBd7iVaMulmPvrtR9z3eVLX997rMLaqEGrt0VruXdfnCmwKf/c6cPbqqepKqn9JefZPaq7J/Xo3jb9HuGuW1be/BgWrM/iJq2bGyml50n7zLWvodkxL6ZNcm3da8vqrUu0R5b2jtn5WkAZfV0eQ/3CTAzCl11st6pcM5onuxfNovqnJqEy2YNEinP/x18IQoxHbIMwzjHyfbO+Tt2aSfZ5NdjVH5+o1UvXiyEv0Gvk4Dqoe3KHFlrOpUKaZtK+dp/uodKlCunk6uUSJw6br5vyi2dmOVSd2q2Yt26MTjawaytbPmLlXDhjUjckrSivkztGYbIWEpNTmjTuD9dYkztSywvlhxNTqjvvLv266fZwWXEitT83jVKhuvWZ/20sdle6nX6VQarNKMBX4kHhunJo0bKW9sjNYsmq0Vm/aocJWTdEIlgvzdmvvzHO3Om1d8pxVOrK+1SzarTn1CEGneb79qx94UFSxWXic1CJYqLJgzXVt371f+QhV08onVFLNjtX6ex+S8WFU56VRx2z9m/aztYRnk406qr/Urd6hO3ary/AB5aiIBbZzqNG6sEnmSNWPGDFWqW1/b16xT/ePqBy/y2bRioZJLVNfu+XNUrfEpitu7Xj//vtR/J48qNWyiKkXyKHH2z0ouUlvH1/SD7YNI1ZJfZ6jcCacqedMi7fbPqezH7yt/n6X42idr++KftSlPNTVuUCGY6TqI33XnHRPU77X7tH72DJWp31gF44K9oeQ9a7V8d1nVKbNHiYnbVadOZaVtWqhpi7YorkQlNfYDI29/sn6dOVP7U+NUvWY5rV2/V41OqKVZ039WyeoNVbX0sb0bo+2Ql1vYo5fu66wuz2d3KbZjGC9VF5zfScM+f11V0l2BJnNy0w55FhwbhvGPk5u2j07Zvlzt7uijV9989UA9rnHYTO7TTSubd1ObJtE5hGvBce5h66rfNCvlJDXLaAZwDsFLS9SUxSV1Vp1SoSOHh20fbRiGEaXkK1ZN771vgfFf5ewHXojawNjIXZSonPMDY4jJU+eIA+PchgXHhmEYhhEF7N6xTcnpl+Fnyf7kPaElCQ0j92PBsWEYOY8ti/RUcK8Pdb32bJ199oHHjwvS3wnun2LmpLGBrz882+Kg76P3t4HDR8wnz3XVx6t36ckLm2vxlt/UsyfruB4Oa/T8wFH6/Zth+jC0l0h6PHzDwb+/mZmt+paarFcnrQ+9MHIaj15/sb7KeF5mpswY/8yfmjOM3I4Fx4Zh5Djm/jZaG0IrHK1JqqlRkydrcuAxQn1uv0uzD+zG+g8zW68P/C7wbPfGZbq1z1vB72PSF2r0Xoxen3zkKyds37hWO2PyacXEb5SUepIef7xd6J3s4OnDuxNU+5yL1fCMC/V61eO0K4Os37q9FTXC/f4+G6bGFWM0N7hz7SEk7ftEv80/sHWvkfP45t0+6tq1q/qz5V2IqaNeDBx7dnxoaRafxC9eCRx7atRvoSMHeP3ZhwLvvTf1wCombzzTNXBs5Nzg68nvDdDbI0YEjr35q6WcjZyFBceGYRx9Fg/SfYMPTa1uWzpTd7e+TN3v7apbb7pUtw2cqOTNy9W73aXqdl93XdnuESUumat7zn9IL1/aQL9vityTuJJqFt2o1ZukKR+9rO7du+v2lmfqta+Wadu8iWp009tiVHn2m1310shP1fzERuqe0F13XP0f3fPgU+rin3/bZadr+ua92rNylrre2tr/Xu5W81v6atOu/fr0+QS1ure37vO/vys6v6ERQ0dr8Jj+enrYjyqwNBQVQN7CajFopYYOeF+sfTFz1Atq0bG7undsoRdHzwyc8svHr6j7fff5n91UL3/Btq5+QDJxmG669x51v/Um3TH0R8XGsKGrlC/uF3VMeMF/tlEJVaup8+0P6q42F6vHe78pLWm3Xr3jUnXs0l033Ha7pizxfydpaRqytKGanhgvFaqsl/o10Mer92r2+Dc07pdMNt2Ir6Nv+yfo/mFTlbJ7m3rc1SbwO7z25s5aumWzul3cQYPvPE5f/rZK00c8pysCP9Nl6j/WtmvOKWwvd4b6PfuIpv23vH5cs0OrJvTRS7NLqV+/Z1Tjo1s19NvF2vDjm+r86T7/2Is6efpTemrkrzoh5UktLiqNv6e5lh6f4L/XQ7/3S9AK/54f3XuNUlv1U79et+nahjHa6v/Rz/1sgB77JU7PPdZFtzaJ05Idwc83jBwBq1UYhmH8k9x4Wy9v+47dnpe6z1u6YIGXOKGNpysGegv85xv9w45XOl/tDZsTfD7l6eaeXt3iTX6piXf3qFXBg78M8NThE2/rr129zp8FD7W+7BrvR/8+3GvBgmHeJQmv+keXec8kPON/TfOW/9DPu6bLG/7z9V6XUxt7m3eneTdXPNGbvmaud0rlU7mF5638wGve5onA061THvf00mbv5fPkvfL9psAxb+K9XvsvE71f7pJ379gN/s+R5N1YVd4vW5d6CVffEzjli3uP94b9uCjwHNJSU7wGuspbsm+61+q/t4SOet6dV9zi/bpvpffYNT0Cr9dMfdnTWU963vaFrBzkbdwTOOz1uOJk7701SV6Cf2zhtl+8hA7P+0c3eO2r1fRWbPefbvzGP/8qb9vC570rXpwZuMZb8n+eqj7gPxnrXf7QhOAxnw0/P+ndOGRp6NXBtLu6tRf67QZY+/mzns4c4m1b9qb3eiJHdntPtpTX8yeeD/cu7rvY/zrDa3VxBw4EaH/pzd7MfaEXRra494GXQs/+WXo9OST0zPO6Xvof7wv++3y2jbnDa/3VDu9B/+/r7VnBY96yQZ4SfvbevEjeC4H/b5/VH/h/n0O8VZ9d6j04YWfgb/Tr2Yu8BQsXeROekJfwCSft8pYvXeQN7XRa4P1t+30tXyXv/dm8t83rVKOqN38jz43czOixX3srV60PvcrZWObYMIyjgt/eSDF5Vbp8eVWtUk/NGlVVef95fNhK/4uX51XDhsHnZ5x+hpS0UiuW5tGAVpVVv3591W/bT83yLFLq/rAFfmPzq4x/H+5Vvvw1+uS12/2D1VSv1Ff+Ncfrg/XbQkNkZdWl48makCbNbHqNTimVprhCrEPs46WpRIngesnQLD6vFhQqoU7nlA5+7p1jtGXWGnmFparly4idMWrXauJflsnsJv/H/aNeOZVeslijvnoreB//MWHmRC1cUlnnNBgVeD0kcYNUsLBSt29R3YbdVDD0LdWtW09p6ay0mScmT/DnKV1KCVdX1a7vf9En9zYK3v/iO3VC9YVS4gKVcPv6+uStUkVrV2VSeBzG+g3r/V9+JRUrd5lurxOj+nVu0ebq56ogH5qaoh2p/i/w97ka9cWQP3+miXO+UiZ7jBjHDKn8qQfZn6pUL/XgDbfZ6SItJrCN+J+wkU5q+IHiKluhosqXK6Pz7kvSoMulm2KKaMrO6rrlmfd1nH9GZnvUGEZOwIJjwzCOCsHgOFZFihb1g9JyalwxXkX95/nDdueoXsVTYmg34nXr/CBtjx/wlpimvlM9zZ8/X/MXLNY3r3fVut1VgyeBH3DH+/fhXjzysn3c8q81cM4Z/jXz9ECVYnIbsBa/7Fp9cFMztbrhet/w/UAhdDySFWl5VXn1Vo2aH/rchUv10f3naF3pDqEzHBndwb/91OdUtP3Niq9cVW1b3hO8j/9YtmKVrivyvXpPvULz/Nc9G5STiuZRbJnSWvj7a3K7JG/btk0xMVmHGYVPra/OYzeHfj+Jmv3dGKXVqK+dGw7sjpW6dp3fgTgQLGfG+O9W6v3bmmrps2X16pI9mp84UjVS4vg1sxu38vKkYS3d0Kr7QT/T1Q2C1xvHMp76jfzc/+NapuKtB+vpxoXV/at+GvP2K/57ezX4vvc0/Jayavnkexo/iN0i0zTi2Q/V98HTlbT2M00tWkTfPHSaxv24OKC1if3u0JhVEv2iWjVjtWr2BM3zn/vSUvLRnRdrGH8rFhwbhnH0qdVRzyecF3pxgOtuv1O96sWo/wsvqELbN3Rl6UU6q+MfWvXSVXrxpf7qdm0rvTJxpgoVrqQf3u2txdv2hK6MoEw9nVZoqvr3f0k9x+1TcuK3StwlFSt9pmaN/U6XnOIH1/v2q3jpIoGtjxUxiHZOzAZ1Gvmdvn6unX+P/up0QXON+u3QWt19O4soz+6ZGjbut0CYPOmjdwLn93/+cV3/Vj4tvv1UKf4M3d6iqG54zD/uv5fQtaeWFqytpiWmq7//Mz02docuTJqiBSm1tPz/+urunk+p/4OdNGLePqUl7VP+2tWVkszetekTX+delRjVVj2f66+ed92pR96eoJg8LbTt9x/kdnRe/9OvOvv8Ckqc/LG+mxexpeyeFRrK98zjsZuUeva9uv74eBVp+aHG9BnoH++tRVuKaOa4MUrZf6I0pa+mLKyp9v+N003uZ+rWS8tcD8Q4Zrnguna6pfpW9Rn0oSYs9FS3ZD6Vbt5Fj18crz59Xlaee0arzX+qq/ipbfVm+wb+sb7acWVf3XfViYo7Y6Ie8vtXzZ7+UrU3feW/10cbqtyiqyv7HarfPtXXA/vo/1Ydr1mjn9OM1Tt19gPv6fjAXhD5dfFdd6tUocC3YBg5AtshzzCMf5zs7pC3ZtEceeVOUKX4NC154059VKmTul9yQujdv46XtE2tbx+tt99sr9zt1Z6GtbtIZbuPU4ta61W5QA3N2+fZxiXHELZDnpHbsB3yDMMw/gEq7l+s/5xQXdWr19QT+R76WwNj7Vyo5g3PVte+1+XywBhidOubb2jKmA8046uP1XuxBcaGYRjZxYJjwzCOHepfpWXLlgUeb95cLXTwbyK+rr5JnKOzSmeevc49VNVTPW5V48u66LaaoUOGYRhGllhwbBiGYRiGYRghLDg2DMMwDMMwjBAWHBuGYRiGYRhGCAuODcMwDMMwDCOELeVmGGGkpKRox44dKlWqVOiI8XfQ9f6XtGr1Vh3foHLoiGGkD9ueFCtWQNu378tki5Wcz+Yt2zXgxftCr/45bCk340hISkrSnj17Dto5NCty01JuFhwbRojk5GQtXbpUcXFxqlGjRuio8XeQlJyiLX4wYBhZsWvXTm3euEHVa9aR9+dex7mPwoUKqmjRwqFX/xwWHBuHC4ExXli4cGFVqVIldDRrLDg2jFzIzp07tXz5cuXNm1f169cPHTUM42iCKe/du1d169YNaNH4a1hwbBwubF2/aRM7acaodu3awYPZwIJjw8iF0FtetGiRYmJiVK9ePcXGxobeMQzjaLF27VrfmDepWrVqKlq0aOiocaS0vaWnfpo6J/TKMLJm2fztOq1pVaWlpWnLtl3+1+yFicvm79O27aNUrGjOX0vegmMjqklNTQ0ExQUKFFCePHk0b948IQmyVvny5QudZRjGPwmjNvnz5w+UNG3ZskWrV69WmTJlVL58+dAZxpFCe5bd4MaITmJj8wS8kDk3eCHMn/+HYmJiVa9e3cDrcIgaCZwjiYlRwEdzAxYcG1ELQTFlFNQaI2iCYRoHJEHGCrPmGA9Mm69klQ3D+HtAaxs3btS6desCIzWUUaCx/fv3B74WL178T+05HdqIjmH8vezbty+wK6nTHTpzXlisWLE/NYgnotFo8EILjo2oBUOmUaDHzIOGATkQKPMcwhsAhnnj4+NDrwzD+Kvs3r07UELhNOh0SACMFnkdrkEmCKHD3JKdMoxjAUqZSBY5/fE1Iy/keM2aNQNazM1YcGwYIRgmopFgWLdkyZKB10wMoqHAkAsVKhQ60zCMf4pdu3YFRnSAJRUJoMlikbGqVatWrs9YGca/DZ63Zs2awMQ8ypsYXcULCRdZyYkMcm7HgmMjR4FRIlSGeo4ke+QCYO5RtmzZQ3q/27dv14oVK1S6dGlVqFAhcIxrLFNlGEHQA6ZZsGDBwONI4Ho6oXQ4I+uKMeYFCxYEjLhOnTqBIV1nUxYYG0YQOpFkdSkBPBJ/4lpGT+l4osFILW/evDlQ+897eCUa5BEtXmiOb+QY1q9fHwiOqXdiVYnD7dfR88V0MWXuQ40VQ7rhYMSIn3MdFhgbRhACYzqPaBDz3LBhQ+id7IFmV65cGbgHGwxQb8zSbdzX4WqPgUAZCIotMDaMICR4KAnEm5YsWXLYXkhgnZiYqK1btwaeo0F8MRw0zv3xSkB/0eSF5vpGjgDzRKT0YGkUKHvgtTPPrKCXjCHztWLFioGhIhoUes40EA432YfPONwGxzByO2ilUqVKgRntaI8RFmee2YHOKCbMRDtKleiMcj2d3XAtM2yL5rOrb8OIFvAwNIP2wr0wvIOZGWSKV61aFTi/cuXKgdIlnlNGwcipw02OdeUU0YYFx8YxD4KlQUDUZI+BhgGTTc88OS8StoRmwgG7/dAY0Ct2gieT5QJkesY0FFWrVrVMlWGEQGdkqzBMMr6YK1pCK2grEvQaqU30hmYpZUJfRYoUCXRG0RmaDQ+QXcmG1fkbxgGc5+Fl6BEfIzjmeHrBMeWDkeB1HEe/bA3tvBAdUuvv9IzWuSc1xtHohRYcG8c0GDHBMRkmMlash+p6zLyHsMMhM7Vw4cLAkG84NCYYMYaM4BkOJntFJpqAmACZaziHHYE4zzCMYGCMXtAE9Y10UDFkdENNIs/DwWgZpmW4N9ywCYAJmt3QLOZOVooMMtfw3uLFiwPXMKeAyXfRNIxrGJlBdhjPY1SFwJbnBLccd/4WDprFC6nvD8edSycVbeOZeCr34jjlhlxDcEzN/5HOK8jpWMtjHNMgfJcJxpwpicCcqZNCuOE9WoyW9ziG8YbXEzMMjPAxW3rHfOVeNAruONfSWERrY2AY6UGw6kZv0BZBKzqhJAn9hM9c51xqGclM8cBoXYBMRxbDJcBG13RG0SC6ZolEzqPTiw65ZzRmqwwjI0gMOS9EQ0yUc8uRRq7iwrnoCF8LHxkFvBAtcj4dWPyPJBFaBq6hxAI9ug1BohFbrcI45uBPkqEdxElvFpFjzBhpZobpjBnjdq+5hswWx1zWikl57ji9aIZzeU5PmkbHMIxgppegmCwumqRTScYqK8OkY+pGYVxns3r16oHX6I3A161GwTbtgAYJktG3G80xjGgHjbg6YEY60RYayWrnSLSLF3Iu90CHaJd78Nw90B0jN67DyogPZYd0VqN99NRaIOOYg/ophMqD2sZy5coFMk40DAg9IzBUl4HifOB6es0YM6bMUBT34CuZZjJbzpAtMDaMIJgrxolmMFk0w8L/6IUANzMwbvTHNWSo0BkZKjqn3A9TRqO8RuPonXPcsm4WGBtGEFZzITNMgIz/sbwouiJjnJkXojuCW3SG9+FxTEgn6cRryhTRHDAKix/ilWgPv432wBisFTKOKTBOGgIyu4C4GRZCsBhrVmCurjGgRwxcjwEDATDvU1OFYWP03JtjhmEEQYNke+lsMnrjaoHr1q0bOiNj0B6BLlqm08lrdOZKLNCayz5zjCFcZ+aGYQRBPwSweBqBMBpCKwTI2fErVqIg2KWj6vwUvblMNNrmfbzReSHnWec0SGwvn9Bzw/jXcUZKIEyDQMNAgxButJnB+9Q60kN2Q0PUX9E7RvSUTnCc3jgNDI0B5m8YxgHI6lIOQVDMcCxQKkH5kRuVyQyCYzcrntIJruU5GSrKNLgP+iZDzVAvq1dk576GEU2gDzwNPySJwwRYdMNSpNnxQvSG91EqQYeU53gjmWPnhQTgdE4JptGmEcSCY+NfgwDVDb+69U8RNBMDaARoABA3QWxkYIzxEvTSaET2dDnG+wTZGDvvcy5DuNyL7DEBMQYdzRMODIMgmGwuGiF4pSOKWaINjqMhDBM9oaVwDXI+Q71c6yb4ONAZ16I7AmWMnefo2QXIGDNadxksw4hWwr2QVSbQG6/xKUoo8EL0Q1CLZsK1RscTb8PLMvJCgmyCXyBAdvdCe2idB+caB7Dg2PjXQPSuZ4wh0wC4GbaYpzPqyKEegmjqozBZnmPimLPLPPGV+9IIkDkmM8X1NAg8aAQsKDaM4GowBLhkkcgSY6DoCR1imBgrD/QYvooLgTE1jGiMEiXug+7Cg2Re8x7Gj7bRIuehaXTodGkY0Q7JIKCzyigpmV6OoSc6l3ghnc3ImnxqknnPeSFwjSu74Dn6Q6cEwmgOeM0DTVtQnD4WHBv/GogVcSNS6qgQMiZMo4BZky1GzOG9ZOAazJkGgPcwWgycY4id486YuTcNDffjOOaM6dNrNoxoB2NEFwS6BK9oAw1hwHRA2QCA7FVkZxIdMdqDzjgX7VHLiA45l+Nu0g/GzWgNx9E85/GZfFaktg0jGsH36KSiI5JB6INjzJdBO3QueZ2eF5II4nzeo2QCDbqyKLTJA82hQzTnavt5zX3RqnEotpSb8a9Cloololww7I4RIJPFSs88+ZPFzAmKeR+BMxTFcRoJetpsGMI5mDOz7DkGND4WGBvGwdCJRC/UB6MhdwytZKQX3nfrpNKJJbOF4aJDrnFLQrHaBUbNWqxAZgzDtsDYMA6A7zFhjmDYrTmMVhjFcRPqInH+SWc1PS/EV/FCt8oMG1zRIeZ9gmrzwoyx4Nj4V0DAGCnmiYm6RoGebXagUaBX7SYXkOHiftyXRoCGgeM8p4Fg5r1hGAego+hqhqknJtil1AmtZDebxDVoFxuhrpjsFtksRm3QKBrkK4/wTqphGMFED8EvpQ90MNEP5U0Ex64EIisIoF2JE4Ev+uU5XuiyyhznM/BbJr8aWWNlFcZRB+EStJIZRrgM+dAzRswYdVY1UJg6PWXMmPvwnCCZzDMPyjNoMMgacz/OZ2iYzzIMI9i5JKPLcodog2AWrdCRpFwCk84MTB3dunIJV8+P9iiRwoS5H4bMuTw4z4JjwzgAvoU2yO4CGuI5dcR0LLPK7KIvPBDfw+/wQueNPOjk4oUkjtAj55KA4rmROZY5No4qiBlTxYR5TuOAkSJa10BkNtyKqbM5AeJmiAjoNXNPjrGltGtQaGjIYjHUxGcYhnFg0g86Qi+UMNEhxVTJ7qK/rMyTAJqaZM4nQEbHjORwX4JjN6OezyIzRgaLjJWZsmEEwfPc8ojoB/1RfoSGXBlFVl5IBxe/Y+QUGMXhXuiZMiY3AoQ/olm0aR3U7GEtlXHUoGeLUdLLJXBF1M5cyerSEGTWGADmiuAJrGlMANPlHq6xIFMMBMTc3wJjwzgAGkRvZI3pPPIVM3YZ3uwEsFzPg3txDfpzw7WUanBfQKt0ehnqtcDYMIIweopGWH2CAJmAlQAXrzpcL8QHyQwDWuYeeCBbtNM5BUaCCJYtMM4+1loZRwXEyr7tCBfR04Mlm0TWlwyUm4yXHdxkBTJVBMRAzST35jWThAieDcM4GLLE6A5TZdY65oyOqHN0w7DZgXpIjJbsF51eQH90RoHaZcqkDMM4GDSD76EXAlw6jwS3HCNgRofZhawznVN0zVe8lU4q2nZe6JJFxuFhwbHxj4NIyRJTY+zWJQZ6s5Q8YKj0ljMCcYdfR6PC8BO9YtdjppGh18w9MX9rEAzjYNxwLSbKck+A7jBjOpeZ1Rm7a1ynExN2HVpnzIApkwFDjwTN7rhhGEEvpOQBHZIxdp5GkIsX4mGZZYzRHzp0ukKzeCEBt9Mmmg7PIOOHxuFjNcfGPwZ/WgS1lFAQyNIg0Bgw2YAhnswCYgfXud5v+GQfGgNqJpnkw73CGxQCZhs+MowgaAfNERyjC0yYLNXh1OJTr8g9CHpZXYYHHV40iClTNuHWTwU0z7wCzjeMaAcvREOUQOCBeCG6wR+zW3JEkIsX8hXt4YVojntSa0yQTKIp3Av5DDzSOHys5TL+VsJ7qQSpBLGInx4uIsYwySBjtNmBRgNTJ5AmUMbUqaUCV3uMEYdjgbERzWC+4TkPyhvQIMZJNhfzJLtLOdPhjLCgRXSIyVPbT8aY+wLHwnFDxoYRrbh6X8Cj0CV6wZ/QoRs5pUY/O6A97sFXfJb1jd2EPI5xT1fi5LDA+Mix1sv428CQqV9kWSggqCUYxpwRL7XCBLc0DgTI2QGDpYdMQxNeTuFWrMDo3RCxYRjBbBGmif6Ar5gqdcUMt5Ktwlzr168fMNbs4JZC5F5kvdAdw8J8DseZYMTDMIygF+J1LnGDZ+GF1OLjf9TskyDC09BTdsDvCKbRINdRnkHn1mnQadL4e7Dg2PjbQJz0jAlWeTDkQwPAcWqqyBy7CT8cywiMm6VnXPaLhoDraGgwdz6DYy7rhSmH99INI5rBfOlQYs7OlAmMyRZjoozooKfMNAho2AXYXMfkPTSJ7gis+QzgHI5bcGwYQdAWXkUwjJeRJUaPlAa6pQ+z44WMvIaPjBJUEyRzjHJCPgO9cx5wX/PCvwfbBMT428AgXRaX7BSGioHSmyUwJqPF68yGWzFeVrXgekycxoShIXrJLiNNvaObLY8xMzGI54ZhBA0V/Tg9kplCVxgqRo05MwKTGcyap2yC6zFvMsxojPuiZfTHfej0uvcJnrMKuA0jGkB7zgMpOcK/yPo6/aBRJsJm5oWcQy0x/slzgmm8kHuiY7SG/tAienajOlZK8fdgE/KMvw0yR/RcESjDuAS5iJch2ezCdRgzgTCGTgOAKdNDJvvFMTb/sAbAMA6F5pxJO25iDsEt5srrzIw4EjqmjPpgytyTa+nYEgRzf4yeYNgwjEMheCUZRABM0IpmSOJktiJMJHgh64hzL0ZT0TMjpiz9tnDhwsD7devWzXZplHF4WHBs/G3QQ2YI12Wl6CHTKBDYkmXKCtc7pmeM8DF2GgcaF45h0Dynp+x20zMM4wCYKHX/BMMOJu6gLXbDyyqzi+64B5kurIHnTNwjWOY1+nSWQSfVjNkwDgXfIhB2SRySRuiQ0qbwVV0ygsAabeF5aJIOLkkj54WADpnHczjrIhvZx4Jj4y+DgSJYsroYqVtajQYBU6YMIrOsFQ0BQ7jMtOU8ss0uK0X9FMPB1G7RMPA+965Xr16m9zSMaIJmHK1QhoQJk6Wik8pxgmX0lFkgy3nMmmfEBjNmtIYOKEEyEBxj0G44l3P4DDNmwziA80KnFxJD4MqcXBlSRrgRGzyRjijnu/XE0Tf6Y4I7Xsh9+Cy8MLN7GkeGBcfGXwKhEgDTKGDAiJug2K0qgcFmFsQSUDPbFrMlI0wgzHVu2NaJnvcxbrLJ9JYPZ3jKMHIzaM9N9uFBwEpJExpEX2glq9ImOp9ku1xWi44qxksG2gXIgL6d0WelbcOIFtAD+sG78ENWY8IHGT2lU4p/UW6YmV4IiFmFCdAs1xMEo2cCZOeFHMMH8UPeo9TC+Pux4Ng4IvizwUBpEBgqwoSZPEBPmcaA1+GmmhFkjBE512HMbhIQ9ycIDg+QDcM4GMyYYJXRGYJZ11llxzs0yDEemeHKn8gWEwxzPfX9DkaCrMbfMNIHr3KZYrZuRj94Ib5IZ5XOa3bKj9zSb2iQji2vCZAJrPFBEkbmhUcP6/YbRwSCRbxuORrEj6iZKJDdwJhGhWEiGhACY64jUKZumUaAGmYyWoZhpA9mik6cabpyCkor0GRWgTEQHHM9mWCnOzJc6JLXBMoYvmEYh4IXUrrkvBDvIzB2I6LZCYzxQia000FFv+iNwJjXaBEfpObYOHpYcGwcNggZwTLBhx6zW9+UxuG4444LmGpm0JN2tYvh5k0DQ8PgJvDxPg1CdnfTM4xoAh1SLsFwLZkqjBjIImdVC8y1zA9wdfx8pXNKFpoMGPfE4B2UaViAbBgH47yQyakEs26HOgLi7MyLoZSCDq7zQjTMPUk8kSRiTX8SRy5AZqTWODpYcGwcFgSrBLGIF6HSAPCVhgEQeGYNAsLHaMlsEVRj4gTD3JdAm+EjrmcYlx44jQyNhGEYQSilQH+UIBEUk12iXp9gF3PFaLMqgyBbTPkS96EjSjDMV8oyXE0/9wF0SKc1q06vYUQL+BjBKppDQ4y24IV4I9oCkkVOQ+mBVtEvD4JqyiYoy8BP6Yi6PQGc/vBCtG4cHSw4NjKFLC8m6p4jWgRMQEsgTJaJ3i2BbTg0HjzCcZkp7oHYeWDqiJ7jNAQ8x/y5L++TnbbJd0a0w0oSZHeBjiWdSCb9YKB0Nskg04mM1KHLJofDqI07j0AYzWHMGDTaIwhGu5zH9dQv88is02sYuR38C00AGV/0iC7wQvRCSSD1+ZE7RaanQTwQX8VT8TkCYFamcJ5KUI0u+UzO4xyy0zb57uhhrZ2RKRglonfDruE9V4Zv6TEjaMzaQUNBVit8CMj1kjF5hO8mEAGvXb0WNcsLFiwImDSG784xjGgGHaI1dIQxO11gqugEvaCp8DVUOY+6R95zMEJDcM1X7hGuZ5fpIns8f/78gFb5XEzaAmMj2kEHaBAvJLgN1xraI6hFU+ElTXghmWX05oj0QuYJOH3xFc1xHB90dcvc33mkcXSwFs/IErJLBLsYKQEvvV2gkaBHGwlZKXq7NAiuXhjRkyVG6AjfDT05yD4jft6nQaGBsSEkwwiCOaIrtEGGyWWwAC2l14lEe3RomVCHroBRGBcEcy+XjQZMmXsD53Me2SrONQwjqEM6j2RwXc0+4InplTK5XWMJhF2yCD0RWKM/nlNzHI7bwMd5IaNDdIKNo4st5WYcAoZK7RRGSmOAgDFagmSyUDQOHCPgzWitU7LN9Jg5zy3JBgTM1GpxnGudGQMNDdkuTNkaAyPaccuykVlCDwTBZK4YxsVseQ/IHKdXeoRWyRITVJP1wnQJgNEYpRiYL/d1HVMH7/MeZp+etg0jWkBjJIbQF16FbxEU42e857wQ/WS0jjElg1zDe5Qvkfgh7MIH0TNQqhiuYbTL/d3IjXH0seDYSBcCW7LC9GoJkOnpYqhu9zsC2axKHgiQCbIBg+cB9KAJkvnTo2YLczcM42AIhjFmzJFAFWPFjNELr9EghoseM4KMFhokQEavBMgExBgvGWXuQRYMHWalZ8OIRuhgojf0SKIHXyRZRCcVsuOFlFxwDZ5HEI2nAscInjnO/dLr5Br/DrG9fELPjSiH3qrr+dIYIFqWcyLIJZilUeD97NQgci8aDUSPQbvlapg0hBmTmWICEMPDfBYPw4h20AsPtILOMGSySuiNQJkMFQEy5ppVYMx9GAXiPO4DaBkDJkAmyEZ/6JDgmeOZ3c8wogU8ywW86JDyCEZYCHLxRd5DQ+gxO17oSiR4TpkF1zkv5LMYrUGblBJyX+Pfx4JjIwDiZetKMkoIFvEiYoJWaoV5YLCYaVaZXgyZiQQ0IgjfGS7Xu0wVDxoLjtHwMGSVVSNjGLkdDJLJOozUMKRKh5SgmKwxukMj6Ao9ZpWtImPM0C364joXeDsNo3ECYuYHYM4EyVlp2zByOwSweCFf0SHBMZrhOXphyUN8C60ejhdyP+eFeCvPuSf34z00SBKJ7LR1Uv99rKzC+BP+FBAtWWKCVR4YLEOuDs7JTLi8z3AtRktdlqsp5r7UXQFZLyYZADVX9JRpIAzDCNY5kh0GlmujxIk6RTe6Qkc2q44kxo12Ca7RL4G2K7HAhHnNZDsCbF6j+YzmDxhGtIGPoSEyxQSrJHMogTgcLyQRRGCM7iiloEML3Jd7cW14DTKaJ5tMwGz8+1hwbBwCvVgaBQJcer4IOz3BknHifWqJXSNBQ8BybJgvaxSHNx7UGrvlqFwNcmaNi2FEM2SR0AvaI4ANN2YHesNo6WyS4QKadJZiw5y5JryOEb261SsIjKlBdtcZhnEw6AsvRH88qAumwxkJ56Cp8Kwv/rlkyZJA8oeOaDhoFv9EqwTHli0+9rA0gXEIDLciWDJJZKsiFzUHhE0WioCXekUHhgxkoCLF7na64z16yTQehmGkD9kq6hzREdlkAttwMG4mCzEqw9fwPEdGOQ8CYeoauSedYJehNgzjUEjyMAJK5zMjLyQwpvQJL0SnDjfnJr2glw6v0yjXRWrb+Pex4DiKQIw86OFmZJ7h0DAwGSh8gw+gforAGHjPBb2A+bqhWgLocDBjPhfDZ6KfrWNsRCPhGsxKhxgrWSUyT+EZXq4nIKaDyXG3igzw1Y30YNzhn8FzjBjNkgFjVMgwog2nvex6IdlffIsyiHAY2SEwBrwwfGI5ukSLaJQObDguGMZf0a5Nwjv2sLKKKIEMET1ZDBHRMqGAABZBEwRnFwJjGgP+bLjWLc8GHKMx4H3O4znvY+4MERNQ89l169YNXWEY0QP6Y4IcGqBjiEFinGjycCbCYeiURqBfTJXSCEZ7wGmQz6K8ia98FkEwnVa0iVGjy8hOr2FEA2Rq0RC6w/vwQjK+ZIedjrIDdfruXoyyuuXZwOmQ+QJM5mO0lNFY5uDwmrIK2gFKD41jEwuOczkYMGKk7hAxRsJ7iDs75kwm2E2qQ+jhgTGNBAEwRk2jQCDMvXlOw8Bn8IgMqA0jGqCzSHDKxFM0EQ5BLtpxK0hkhiulcIExNZBO1wTa6I7OKCbsOqTozn0mz7mObBXfj2FEC2iGsgi8ML2EEBPl0El4jX5GuFIKzg9ftxgIfAm20Sbvo1e0yPNwL4wMqI1jCwuOczEExvSKswp8ETLG6mbTpgd1xSxvg6FSC8lwkINsGJlp3uO4W6aNBoQAmXIKt2wUxm0Y0QSdSsoY0uuchoNeslqiLdxow0uT0DCb9KB5dOY2KEDXZLgIDIBhXzq2NoxrRBPoAw1kFfiiFzqgma2ehP7QmuvsuomyeB47V1JqQRBMGYarLeYYIzbOC/Fkt5KTcWxiwXEuheFUxJjd4VpESwCcUaPAn4nLBgO9ZcRNUEzWGLNm2Sn3eZxP79iyU0Y0Q2BKwJvd0iWyTgSvGekGjWLMQKCLAaN1loxCb5ixm8QHvGcaNKIZvI0kUXYywkAgTSeTJE964G2USxAk89ytCENgTAcX7ZEkcl7KOTwImI2cgwXHuRBMkiA2u4GxAyN1w07pwZ+KC5AROlkrGh0+L3LrS7LJDFNRU2XmbEQjaICRksOpYwRMltKjjHSDeTOKgx7JRqNbAgACY3ToTJgMGOcxdGulTEY0ggbc7o+HA5riuswCZDqpnEMwTEeVrDNeSGmhmxALlCJynpUy5SysK5PLcDXGmZVIZATCReQEtelBI0AvmaCbRoDGACIDY8ydjDKG7c4xjGiCGuMjCYyBiUFoEP2kByURlFSgR8wfLbpSp8jA2DRoRCuUURxOxjgcvJDRnshVJhxoDw2iO/RHhxXthQfGBNDUJVNWhS9zjpFzsOA4F4H4XI0x4j0SMN6sAmQmElBSQe8a3FcaA4JihpI5jzKL8B60YUQDaIe/+yMJjB1ke12NYnowahOeJeY89AcEBZRZcAzzRoeGEU2gAfzwSJJEDnwQDWcWINMhJfh2Huj0ihZJErlVmzjPzQ8wcgZWVpFLIFNEScThllJkBD1dMk4Z9br5s2G4iCw1PWcCZr7SIGDYkTtzGUY0QM0hAWlWk++yC51NAuWMhmPpDDNJD+1h5swFWLZsWeA1Zkz9sQugDSMawAvRxV8JjMMh0OaemZVYuBpkdEcgzDVukjqdWEsS5TwsOM4lMHSTVWBM3RMPermYN8FrVsZJ8JtZgIwxh+8aROMQWXNlGNEAHUM2CcgsY4z2yETR+cQ43WYcmYHx0vnMKEB2NcjhMCQcuX27YeR20BdBalaBMcEzXohfMVrK5LnMvJCMMAFvRr6GF7oaZAfao86YTquR87DgOIeDaF1jkJ4R8j6mjWh5zn835/EVsyVIpjYyowA4q1449yGDzFAy96WXnFEP2zByKyzVhEYyCozRB+cQFGPIToN8JZAlSGYN8IwCYEqV6PxmdH9GeTBnyxgb0QqdRHSQkVehPSbJck5GXkjnNqMVm7ieADmzFZ3Cl1p0S7kZORMLjnMwiNXVGKcHGV0mBNAQuEbAwXOO8cBQGbrFnHkdCQ0Cj8wCZBodMmAZnWMYuRVGbTDB9JZrQxssz+Y2AeG1057DaRBzphwpo0wy98CYMwqQ0TtBOKUVFhgb0URWHsVoDUki54WugwqRXkiAzHKK6UFgTcIoswAZvZMgyugcI2dgwXEOJasaY4Jmag8RPP/FbuiIDBUmTS+bkgnXy2U4igxyRgEy59P4WB2xYRwgsw0+0J3LJLmMsDNN9Ijm0LArs3C6oxwio3WRyT7TkU1Po4YRjaAdRkYzCozRGF5Ih5Hgl86n80J05LyQ83hNAM2KMfhhejpzmWcbIc3dWHCcA+G/DJOkh5seBLGLFy8OCBsDpiGg3CE9XMOBeSN4lqfJaCiI92mIbNatYQRLJQhy08v0YsJLliwJaNFlcak/5Pz0oK6YIJlzCbQ5N6MAmPu6pdwMI5rJygtJEqEXRlvwL1ZZon4/PdAfOsQL8c3atWtnWC+MrtFfRno2cj429pYDocY3o60naQzCA2POY/ZsRhAIEzhzLo0CM2wzggaGHjoBsmFEMwS/6CG9wNhljLMbGAPLrbl7cR06zghqGclYG0a0Q2KHkZT0INilDh+dMtLKRjiUHGUESSR0iBeiW8owMoKgmWwzAbeRO7HgOIfhAl43TBuOywK7wJhGg8YgqwwTATJDTJg6Q0aYc0Yw1MQwsWFEM+wUiWbSg/cIbjFYtEeWN6sME+dS0oQGuQYtZwTnEpxbJ9WIZiiHoPzBdUDDIXClg8p7BMZoi+A4Ky+kbNB1UrNKBHE/AnAjd2LBcQ6DwDUjo2V4CVwATcMR2RggeBoOzNXBOQTSGDOPzIJjoLExjGjFaSc9o0VbPJxhExhHZpfJNnEOWgyHbBT35BH5XiTUOxIcGEa0wt9/RmUPrDeOBvFCgljKLiL1SgeW4DbSC/FOdywrjZFMMnInFhznMDDN9HrKgAkzhMQkvfQyxmR8GY4lKxWZ/eVadz4NSlaENyiGEU0Q3GZUl4+O6Ly6dYYjzRtt0YnFmCM1yGiQ03ZWw7V8hg3pGtFMZoErusMLM5pkTueUOQNoMLKECW1xPomirHwuO+cYORMLjnMYTNZBkOnB8jN169YN1E1FNgb0kHk4842cVBdutBkF3w4ag6zOMYzcCn/7GRkz+iQoZjJP5IoT6IaafmemkaVR4UabXtlUOKZBI9oh+M0IkkN4IaOnkRAUkyBy+kmvA+uI9NFITIe5F/tfzWEQ1GaW2U1PzPSOeSBixMywUaRx02AA16e3LFU4GS0zZRjRAKacWdkDGorUIZ1PAmPXsUVj6DAc6ht5n0dWNcroOSudGkZuhqDWdSbTIz0vJGPs5gNwLeWEkX7m6oi5Piuvy6isw8j5WHCcw8CY2S0ro+xxJPSQXcaYxoCSi8gaSLJgrkaLjFXk++FQY5XZ+4YRDTBUm90JcQTG6MsZuQuMIzNObPIBaDujsg0HwbkZsxHN0IHMbEWJSPBBlzF2gXGkhvA3Sg8JjPHazDqpaNDWOs69WHCcw0C0TC6IrFfMiPDGAEOOLKcgC00Dw315zr0jTdvBPeh5Z2XchpHbQQMEs5mN4jgwXHcemaj0AmNGbqhF5jgd1Mw0xrnpTTAyjGgCrVBTjMdlB4JZNEPnM73A2Hmh80vKFDPyQs7FCy1RlHux4DgHQuYJgWe1qgS4YJjGIFLI3INFz2lcXE85ox33gG0xM9pW0zCiDbLHGGRWYMLoi8AYM480XDJa6BD9kWVmC2mepweBNkvIZfS+YUQTZHYZwclqVQlwOkSDkYExXsgyqATQPEerrHucHrxPiVR69cxG7sF2yMvBkD3GJLPqvfJfHJll4hiNgau/gsy2raUxSM/YDSOaIYPEMCzayIz0NAgExqzHio7D12NND/ROVtl2qDSMg2E0hYA3MuiNJD0dkiVmFz0XYKNFJtRmNCmWER6STenp2cg9WHCcw8lugBwOhs5GBS5jTCOQ2UYF1Euyb31GjYVhRDNkezHnwzVMss4ExnRIswqMCaLRX0YbjxhGtIOeCI6zmswaDtpl1MatV8yoLDvGZjTZFS9kdNWSRLkf+x/O4TAhgPKK7JRYAH0htp92tcgYLtvRZtSgMPnPAmPDyBg6pxgmNchkobID+sOUsxMYM7pjgbFhZA6721EWkZ0SC8ALSRJxDaDFqlWrphsYc+769estMI4i7H85F4BgEXh2AmTqs8g2O4GTMU5vKMo1HGTDLDA2jMxBI2iFDHJ2BuPIBJNlziowJqOFVi0wNoyswQvxt+wEyJxDxzOr0VP0vHr16oBGLTCOHqysIhfBsBK93qxKLKgfxpwZPsqoxphZu5i21VUZRvYhc0wGOasaZDqyGC6jMgTV6UF2GdO2GfGGcXgwD4Da/KxKLNatWxdILOGFGSWByBgTGJsXRhcWHOcyjqQGORKrqzKMI8fVIGcVIGeG1Rgbxl+DZBHBcVaT9DLDvDB6sf/xXAY1yJROZLcGORI3+c4aA8M4MuicoiFmtR9J7sFljC0wNowjhxpkfDC7NciRoF8LjKMX+1/PhbiJCYcTIGPilFLQGGQ0vGQYRvYgQCZzzPDu4QTIVmNsGH8fdFKzW4PsoDSKNf0pd7LAOHqx//lcCrtwYbTZDZBZwYIaY2sMDOPvAx0yGpMd6NBS12jrGBvG3wed1MMJkKlDrlixotUYRzlWc5zLoVFgRjwmnR68h3nbTFzD+GegBtlpLCPDZQiXoNgCY8P4Z6AGmXCHbHJ6UI7o5gqYFxoWHEcBZI8JklnJggkKDPnSi+ZBI0AZhvWSDeOfg6FaSizQGRrkQdCMNvnKXIGsZtYbhvHXYHSG5ducBvE/fJDAmHJCvNAwwILjKIIyCx6YMTN4qWu0+mLDOHqgPTcfgE4qmeK/MpveMIzDBx9Eh3RanRdattgIx4JjwzAMwzAMwwhhXSXDMAzDMAzDCGHBsWEYhmEYhmGEsODYMAzDMAzDMEJYcGwYhmEYhmEYISw4NgzDMAzDMIwQFhwbhmEYhmEYRggLjg3DMAzDMAwjhAXHhmEYhmEYhhHCgmPDMAzDMAzDCGHBsWEYhmEYhmGEsODYMAzDMAzDMEJYcGwYhmEYhmEYISw4NgzDMAzDMIwQFhwbhmEYhmEYRggLjg3DMAzDMAwjhAXHhmEYhmEYhhHCgmPDMAzDMAzDCGHBsWEYhmEYhmGEsODYMAzDMAzDMAJI/w/2x4bt1ENEcQAAAABJRU5ErkJggg==;" vertex="1" parent="1">
          <mxGeometry width="492.47" height="320" as="geometry" />
        </mxCell>
        <mxCell id="yMEa9injsnM9xcDqbvA--2" style="edgeStyle=orthogonalEdgeStyle;curved=1;rounded=0;orthogonalLoop=1;jettySize=auto;html=1;exitX=0.5;exitY=1;exitDx=0;exitDy=0;entryX=0.5;entryY=0;entryDx=0;entryDy=0;fontFamily=Helvetica;fontSize=12;fontColor=default;" edge="1" parent="1" source="yMEa9injsnM9xcDqbvA--5" target="yMEa9injsnM9xcDqbvA--6">
          <mxGeometry relative="1" as="geometry" />
        </mxCell>
        <mxCell id="yMEa9injsnM9xcDqbvA--3" style="edgeStyle=orthogonalEdgeStyle;curved=1;rounded=0;orthogonalLoop=1;jettySize=auto;html=1;exitX=0.5;exitY=1;exitDx=0;exitDy=0;entryX=0.5;entryY=0;entryDx=0;entryDy=0;fontFamily=Helvetica;fontSize=12;fontColor=default;" edge="1" parent="1" source="yMEa9injsnM9xcDqbvA--5" target="yMEa9injsnM9xcDqbvA--7">
          <mxGeometry relative="1" as="geometry" />
        </mxCell>
        <mxCell id="yMEa9injsnM9xcDqbvA--4" style="edgeStyle=orthogonalEdgeStyle;rounded=0;orthogonalLoop=1;jettySize=auto;html=1;exitX=0.5;exitY=1;exitDx=0;exitDy=0;entryX=0.5;entryY=0;entryDx=0;entryDy=0;curved=1;" edge="1" parent="1" source="yMEa9injsnM9xcDqbvA--5" target="yMEa9injsnM9xcDqbvA--8">
          <mxGeometry relative="1" as="geometry" />
        </mxCell>
        <mxCell id="yMEa9injsnM9xcDqbvA--22" style="edgeStyle=orthogonalEdgeStyle;rounded=0;orthogonalLoop=1;jettySize=auto;html=1;exitX=0;exitY=0.5;exitDx=0;exitDy=0;entryX=1;entryY=0.5;entryDx=0;entryDy=0;" edge="1" parent="1" source="yMEa9injsnM9xcDqbvA--5" target="yMEa9injsnM9xcDqbvA--21">
          <mxGeometry relative="1" as="geometry" />
        </mxCell>
        <mxCell id="yMEa9injsnM9xcDqbvA--5" value="Registration" style="rounded=1;arcSize=10;whiteSpace=wrap;html=1;align=center;" vertex="1" parent="1">
          <mxGeometry x="145" y="360" width="150" height="40" as="geometry" />
        </mxCell>
        <mxCell id="yMEa9injsnM9xcDqbvA--6" value="paymentDeadline" style="ellipse;whiteSpace=wrap;html=1;align=center;" vertex="1" parent="1">
          <mxGeometry x="130" y="455" width="120" height="50" as="geometry" />
        </mxCell>
        <mxCell id="yMEa9injsnM9xcDqbvA--7" value="paymentFees" style="ellipse;whiteSpace=wrap;html=1;align=center;" vertex="1" parent="1">
          <mxGeometry x="250" y="455" width="100" height="40" as="geometry" />
        </mxCell>
        <mxCell id="yMEa9injsnM9xcDqbvA--8" value="&lt;u&gt;registrationId&lt;/u&gt;" style="ellipse;whiteSpace=wrap;html=1;align=center;" vertex="1" parent="1">
          <mxGeometry y="450" width="120" height="50" as="geometry" />
        </mxCell>
        <mxCell id="yMEa9injsnM9xcDqbvA--9" value="" style="shape=table;startSize=0;container=1;collapsible=0;childLayout=tableLayout;" vertex="1" parent="1">
          <mxGeometry x="360" y="360" width="427" height="40" as="geometry" />
        </mxCell>
        <mxCell id="yMEa9injsnM9xcDqbvA--10" value="" style="shape=tableRow;horizontal=0;startSize=0;swimlaneHead=0;swimlaneBody=0;strokeColor=inherit;top=0;left=0;bottom=0;right=0;collapsible=0;dropTarget=0;fillColor=none;points=[[0,0.5],[1,0.5]];portConstraint=eastwest;" vertex="1" parent="yMEa9injsnM9xcDqbvA--9">
          <mxGeometry width="427" height="40" as="geometry" />
        </mxCell>
        <mxCell id="yMEa9injsnM9xcDqbvA--11" value="&lt;u&gt;registrationId&lt;/u&gt; (int)" style="shape=partialRectangle;html=1;whiteSpace=wrap;connectable=0;strokeColor=inherit;overflow=hidden;fillColor=none;top=0;left=0;bottom=0;right=0;pointerEvents=1;" vertex="1" parent="yMEa9injsnM9xcDqbvA--10">
          <mxGeometry width="107" height="40" as="geometry">
            <mxRectangle width="107" height="40" as="alternateBounds" />
          </mxGeometry>
        </mxCell>
        <mxCell id="yMEa9injsnM9xcDqbvA--18" value="&lt;u&gt;studentId&lt;/u&gt; (int) FK" style="shape=partialRectangle;html=1;whiteSpace=wrap;connectable=0;strokeColor=inherit;overflow=hidden;fillColor=none;top=0;left=0;bottom=0;right=0;pointerEvents=1;" vertex="1" parent="yMEa9injsnM9xcDqbvA--10">
          <mxGeometry x="107" width="107" height="40" as="geometry">
            <mxRectangle width="107" height="40" as="alternateBounds" />
          </mxGeometry>
        </mxCell>
        <mxCell id="yMEa9injsnM9xcDqbvA--12" value="paymentDeadline (Date)" style="shape=partialRectangle;html=1;whiteSpace=wrap;connectable=0;strokeColor=inherit;overflow=hidden;fillColor=none;top=0;left=0;bottom=0;right=0;pointerEvents=1;" vertex="1" parent="yMEa9injsnM9xcDqbvA--10">
          <mxGeometry x="214" width="106" height="40" as="geometry">
            <mxRectangle width="106" height="40" as="alternateBounds" />
          </mxGeometry>
        </mxCell>
        <mxCell id="yMEa9injsnM9xcDqbvA--13" value="paymentFees (float)" style="shape=partialRectangle;html=1;whiteSpace=wrap;connectable=0;strokeColor=inherit;overflow=hidden;fillColor=none;top=0;left=0;bottom=0;right=0;pointerEvents=1;" vertex="1" parent="yMEa9injsnM9xcDqbvA--10">
          <mxGeometry x="320" width="107" height="40" as="geometry">
            <mxRectangle width="107" height="40" as="alternateBounds" />
          </mxGeometry>
        </mxCell>
        <mxCell id="yMEa9injsnM9xcDqbvA--14" value="" style="shape=table;startSize=0;container=1;collapsible=0;childLayout=tableLayout;" vertex="1" parent="1">
          <mxGeometry x="360" y="440" width="360" height="40" as="geometry" />
        </mxCell>
        <mxCell id="yMEa9injsnM9xcDqbvA--15" value="" style="shape=tableRow;horizontal=0;startSize=0;swimlaneHead=0;swimlaneBody=0;strokeColor=inherit;top=0;left=0;bottom=0;right=0;collapsible=0;dropTarget=0;fillColor=none;points=[[0,0.5],[1,0.5]];portConstraint=eastwest;" vertex="1" parent="yMEa9injsnM9xcDqbvA--14">
          <mxGeometry width="360" height="40" as="geometry" />
        </mxCell>
        <mxCell id="yMEa9injsnM9xcDqbvA--16" value="&lt;u&gt;semCourseId&lt;/u&gt; (long) FK" style="shape=partialRectangle;html=1;whiteSpace=wrap;connectable=0;strokeColor=inherit;overflow=hidden;fillColor=none;top=0;left=0;bottom=0;right=0;pointerEvents=1;" vertex="1" parent="yMEa9injsnM9xcDqbvA--15">
          <mxGeometry width="120" height="40" as="geometry">
            <mxRectangle width="120" height="40" as="alternateBounds" />
          </mxGeometry>
        </mxCell>
        <mxCell id="yMEa9injsnM9xcDqbvA--17" value="&lt;u style=&quot;border-color: var(--border-color);&quot;&gt;registrationId&lt;/u&gt;&amp;nbsp;(int) FK" style="shape=partialRectangle;html=1;whiteSpace=wrap;connectable=0;strokeColor=inherit;overflow=hidden;fillColor=none;top=0;left=0;bottom=0;right=0;pointerEvents=1;" vertex="1" parent="yMEa9injsnM9xcDqbvA--15">
          <mxGeometry x="120" width="120" height="40" as="geometry">
            <mxRectangle width="120" height="40" as="alternateBounds" />
          </mxGeometry>
        </mxCell>
        <mxCell id="yMEa9injsnM9xcDqbvA--19" value="&lt;u style=&quot;border-color: var(--border-color);&quot;&gt;studentId&lt;/u&gt;&amp;nbsp;(int) FK" style="shape=partialRectangle;html=1;whiteSpace=wrap;connectable=0;strokeColor=inherit;overflow=hidden;fillColor=none;top=0;left=0;bottom=0;right=0;pointerEvents=1;" vertex="1" parent="yMEa9injsnM9xcDqbvA--15">
          <mxGeometry x="240" width="120" height="40" as="geometry">
            <mxRectangle width="120" height="40" as="alternateBounds" />
          </mxGeometry>
        </mxCell>
        <mxCell id="yMEa9injsnM9xcDqbvA--21" value="&lt;span style=&quot;border-bottom: 1px dotted&quot;&gt;studentId&lt;/span&gt;" style="ellipse;whiteSpace=wrap;html=1;align=center;" vertex="1" parent="1">
          <mxGeometry x="10" y="360" width="100" height="40" as="geometry" />
        </mxCell>
      </root>
    </mxGraphModel>
  </diagram>
</mxfile>
